M48
;Layer_Color=9474304
;FILE_FORMAT=2:4
INCH,TZ
;TYPE=PLATED
T1F00S00C0.0280
T2F00S00C0.0354
T3F00S00C0.0390
T4F00S00C0.0394
T5F00S00C0.0512
T6F00S00C0.0669
T7F00S00C0.1181
%
T01
X48200Y26850
Y28700
X50350Y26850
X52500
X52450Y28700
X54850Y31000
X57175Y30200
X57150Y27350
X57760Y26360
X59750Y28700
X59750Y30600
X43950Y30250
Y28700
Y26850
X46050
X41800
X40700Y17800
Y16350
X36700Y16750
Y17800
X27650Y21900
X23750
X19700
X20083Y34311
X16133Y34300
X24600Y34350
X28550Y34361
X33100Y34350
X37000Y34400
X39550Y35400
X40150Y35900
X41650Y35850
Y37800
Y39700
Y41600
X40050Y42900
X39200Y39900
X37800Y38400
X36700Y38300
X35350Y39900
X46588Y39588
X46800Y43150
X46250Y44100
X44950Y35850
X44800Y34500
X47600
X48050Y35850
X47988Y38588
X47262Y39088
X50050Y38950
X48650Y40800
X48125Y41362
X54050Y41250
Y42000
X56244Y41594
X58343Y41310
X59650Y43200
Y39400
X56400Y39150
X55750Y38950
X52400Y36500
X51750Y33200
X52275Y32575
X51200
X53175Y32125
X55800Y32450
X53300Y44100
T02
X57300Y33350
Y34350
Y35350
Y36350
Y37350
Y38350
X59650Y38000
Y37000
T03
X59150Y22378
Y24150
T04
X33750Y28015
X38750
X30250Y28165
X25250
X21750Y28015
X16750
Y31952
X21750
X25250Y32102
X30250
X33750Y31952
X38750
X57100Y40847
Y41831
Y42816
Y43800
T05
X58170Y21884
Y24644
X16934Y39765
Y42835
X33666Y45749
Y36851
T06
X48700Y23450
X50700
X52700
X54700
X46700
X44700
X42700
X40700
X38700
X36700
X34700
X32700
X30700
X28700
X26700
X24700
X22700
X20700
X18700
T07
X14050Y14450
X59350Y14500
X14050Y45750
X59350Y45800
M30
