G04*
G04 #@! TF.GenerationSoftware,Altium Limited,Altium Designer,20.0.2 (26)*
G04*
G04 Layer_Physical_Order=1*
G04 Layer_Color=255*
%FSLAX25Y25*%
%MOIN*%
G70*
G01*
G75*
%ADD11C,0.01000*%
%ADD37C,0.03937*%
G04:AMPARAMS|DCode=38|XSize=48.42mil|YSize=23.62mil|CornerRadius=2.95mil|HoleSize=0mil|Usage=FLASHONLY|Rotation=0.000|XOffset=0mil|YOffset=0mil|HoleType=Round|Shape=RoundedRectangle|*
%AMROUNDEDRECTD38*
21,1,0.04842,0.01772,0,0,0.0*
21,1,0.04252,0.02362,0,0,0.0*
1,1,0.00591,0.02126,-0.00886*
1,1,0.00591,-0.02126,-0.00886*
1,1,0.00591,-0.02126,0.00886*
1,1,0.00591,0.02126,0.00886*
%
%ADD38ROUNDEDRECTD38*%
G04:AMPARAMS|DCode=39|XSize=77.56mil|YSize=23.23mil|CornerRadius=2.9mil|HoleSize=0mil|Usage=FLASHONLY|Rotation=0.000|XOffset=0mil|YOffset=0mil|HoleType=Round|Shape=RoundedRectangle|*
%AMROUNDEDRECTD39*
21,1,0.07756,0.01742,0,0,0.0*
21,1,0.07175,0.02323,0,0,0.0*
1,1,0.00581,0.03588,-0.00871*
1,1,0.00581,-0.03588,-0.00871*
1,1,0.00581,-0.03588,0.00871*
1,1,0.00581,0.03588,0.00871*
%
%ADD39ROUNDEDRECTD39*%
%ADD40R,0.03543X0.03543*%
%ADD41R,0.03543X0.05906*%
%ADD42R,0.05906X0.03543*%
%ADD43R,0.06693X0.04331*%
G04:AMPARAMS|DCode=44|XSize=51.58mil|YSize=127.56mil|CornerRadius=3.87mil|HoleSize=0mil|Usage=FLASHONLY|Rotation=90.000|XOffset=0mil|YOffset=0mil|HoleType=Round|Shape=RoundedRectangle|*
%AMROUNDEDRECTD44*
21,1,0.05158,0.11982,0,0,90.0*
21,1,0.04384,0.12756,0,0,90.0*
1,1,0.00774,0.05991,0.02192*
1,1,0.00774,0.05991,-0.02192*
1,1,0.00774,-0.05991,-0.02192*
1,1,0.00774,-0.05991,0.02192*
%
%ADD44ROUNDEDRECTD44*%
G04:AMPARAMS|DCode=45|XSize=51.58mil|YSize=36.61mil|CornerRadius=2.75mil|HoleSize=0mil|Usage=FLASHONLY|Rotation=90.000|XOffset=0mil|YOffset=0mil|HoleType=Round|Shape=RoundedRectangle|*
%AMROUNDEDRECTD45*
21,1,0.05158,0.03112,0,0,90.0*
21,1,0.04608,0.03661,0,0,90.0*
1,1,0.00549,0.01556,0.02304*
1,1,0.00549,0.01556,-0.02304*
1,1,0.00549,-0.01556,-0.02304*
1,1,0.00549,-0.01556,0.02304*
%
%ADD45ROUNDEDRECTD45*%
%ADD46C,0.03000*%
%ADD47R,0.09173X0.06142*%
%ADD48R,0.05512X0.04724*%
%ADD49R,0.04724X0.05512*%
%ADD50R,0.04331X0.06693*%
%ADD51C,0.02000*%
%ADD52C,0.02362*%
%ADD53C,0.02500*%
%ADD54C,0.03150*%
%ADD55C,0.02953*%
%ADD56R,0.01968X0.07874*%
%ADD57R,0.01968X0.03937*%
%ADD58C,0.05937*%
%ADD59R,0.05937X0.05937*%
%ADD60R,0.05906X0.05906*%
%ADD61C,0.05906*%
%ADD62C,0.10039*%
%ADD63R,0.10039X0.10039*%
%ADD64C,0.07677*%
%ADD65R,0.07677X0.07677*%
%ADD66C,0.05898*%
%ADD67C,0.11811*%
%ADD68C,0.05000*%
G36*
X354604Y349800D02*
X354600D01*
X354500Y349900D01*
X354604Y349800D01*
D02*
G37*
G36*
X357200Y347300D02*
X354604Y349800D01*
X359700D01*
X357200Y347300D01*
D02*
G37*
G36*
X288414Y350000D02*
X294500D01*
X291500Y347300D01*
X288414Y350000D01*
X288400D01*
X288300Y350100D01*
X288414Y350000D01*
D02*
G37*
G36*
X272200Y347200D02*
X268500Y350000D01*
X275500Y350000D01*
X272200Y347200D01*
D02*
G37*
G36*
X187500Y346250D02*
X184631Y349600D01*
X190231D01*
X187500Y346250D01*
D02*
G37*
G36*
X503000Y226000D02*
D01*
D02*
G37*
G36*
X507000Y228500D02*
X504000Y226000D01*
X510000D01*
X507000Y228500D01*
D02*
G37*
G36*
X360200Y349800D02*
D01*
D02*
G37*
G36*
X493000Y401500D02*
X474500D01*
Y420000D01*
X493000D01*
Y401500D01*
D02*
G37*
G36*
X527000Y241400D02*
X530600Y245000D01*
X523500D01*
X527000Y241400D01*
D02*
G37*
G36*
X566850Y268600D02*
X564350Y264800D01*
Y272400D01*
X566850Y268600D01*
D02*
G37*
G36*
X548500Y400500D02*
X551600Y402700D01*
X545500D01*
X548500Y400500D01*
D02*
G37*
G36*
X552000Y403500D02*
D01*
D02*
G37*
%LPC*%
G36*
X491827Y418890D02*
X489555D01*
Y416618D01*
X491827D01*
Y418890D01*
D02*
G37*
G36*
X477531D02*
X475260D01*
Y416618D01*
X477531D01*
Y418890D01*
D02*
G37*
G36*
X488555D02*
X484043D01*
Y416118D01*
X483043D01*
Y418890D01*
X478532D01*
Y416118D01*
X478031D01*
Y415618D01*
X475260D01*
Y413346D01*
Y411106D01*
X478031D01*
Y410106D01*
X475260D01*
Y407835D01*
Y405594D01*
X478031D01*
Y405094D01*
X478532D01*
Y402323D01*
X483043D01*
Y405094D01*
X484043D01*
Y402323D01*
X488555D01*
Y405094D01*
X489055D01*
Y405594D01*
X491827D01*
Y407835D01*
Y410106D01*
X489055D01*
Y411106D01*
X491827D01*
Y413346D01*
Y415618D01*
X489055D01*
Y416118D01*
X488555D01*
Y418890D01*
D02*
G37*
G36*
X491827Y404595D02*
X489555D01*
Y402323D01*
X491827D01*
Y404595D01*
D02*
G37*
G36*
X477531D02*
X475260D01*
Y402323D01*
X477531D01*
Y404595D01*
D02*
G37*
%LPD*%
D11*
X127000Y131000D02*
X166500D01*
Y133000D01*
X567500D01*
Y131000D02*
Y133000D01*
Y131000D02*
X607000D01*
X607000Y471000D02*
X607000Y131000D01*
X573000Y471000D02*
X607000D01*
X573000Y449000D02*
Y471000D01*
X406500Y449000D02*
Y471000D01*
X127000D02*
X406500D01*
X127000D02*
X127000Y131000D01*
D37*
X454039Y261430D02*
G03*
X453143Y260994I386J-1930D01*
G01*
D02*
G03*
X454039Y257570I1282J-1494D01*
G01*
X459929D02*
G03*
X460691Y261099I-386J1930D01*
G01*
D02*
G03*
X459929Y261430I-1148J-1599D01*
G01*
X503309Y261314D02*
G03*
X502929Y261430I-765J-1814D01*
G01*
Y257570D02*
G03*
X503309Y261314I-386J1930D01*
G01*
X495457Y259500D02*
G03*
X497039Y257570I1969J0D01*
G01*
X496243Y261074D02*
G03*
X495457Y259500I1182J-1574D01*
G01*
X497039Y261430D02*
G03*
X496243Y261074I386J-1930D01*
G01*
X419000Y261220D02*
G03*
X418429Y261430I-957J-1720D01*
G01*
Y257570D02*
G03*
X419000Y261220I-386J1930D01*
G01*
X411722Y261058D02*
G03*
X412539Y257570I1204J-1558D01*
G01*
Y261430D02*
G03*
X411722Y261058I386J-1930D01*
G01*
D38*
X592827Y409240D02*
D03*
X601173Y405500D02*
D03*
X592827Y401760D02*
D03*
X600173Y436260D02*
D03*
X591827Y440000D02*
D03*
X600173Y443740D02*
D03*
D39*
X552256Y294500D02*
D03*
Y289500D02*
D03*
Y284500D02*
D03*
Y279500D02*
D03*
X571744D02*
D03*
Y284500D02*
D03*
Y289500D02*
D03*
Y294500D02*
D03*
D40*
X489055Y416118D02*
D03*
X483543D02*
D03*
X478031D02*
D03*
Y410606D02*
D03*
Y405094D02*
D03*
X483543D02*
D03*
X489055D02*
D03*
Y410606D02*
D03*
X483543D02*
D03*
D41*
X466949Y371079D02*
D03*
X471949D02*
D03*
X476949D02*
D03*
X481949D02*
D03*
X486949D02*
D03*
X491949D02*
D03*
X496949D02*
D03*
X501949D02*
D03*
X506949D02*
D03*
X511949D02*
D03*
D42*
X523898Y441000D02*
D03*
Y436000D02*
D03*
Y431000D02*
D03*
Y426000D02*
D03*
Y421000D02*
D03*
Y416000D02*
D03*
Y411000D02*
D03*
Y406000D02*
D03*
Y401000D02*
D03*
Y396000D02*
D03*
Y391000D02*
D03*
Y386000D02*
D03*
Y381000D02*
D03*
Y376000D02*
D03*
X455000D02*
D03*
Y381000D02*
D03*
Y386000D02*
D03*
Y391000D02*
D03*
Y396000D02*
D03*
Y401000D02*
D03*
Y406000D02*
D03*
Y411000D02*
D03*
Y416000D02*
D03*
Y421000D02*
D03*
Y426000D02*
D03*
Y431000D02*
D03*
Y436000D02*
D03*
Y441000D02*
D03*
D43*
X394000Y418185D02*
D03*
Y428815D02*
D03*
D44*
X372500Y438580D02*
D03*
D45*
X381516Y412241D02*
D03*
X372500D02*
D03*
X363484D02*
D03*
D46*
X453400Y259500D02*
D03*
X460500D02*
D03*
X503500D02*
D03*
X496400D02*
D03*
X419000D02*
D03*
X411900D02*
D03*
D47*
X270575Y251000D02*
D03*
X287425D02*
D03*
X206925D02*
D03*
X190075D02*
D03*
X246925D02*
D03*
X230075D02*
D03*
D48*
X596500Y418457D02*
D03*
Y425543D02*
D03*
X152500Y296957D02*
D03*
Y304043D02*
D03*
Y280043D02*
D03*
Y272957D02*
D03*
X320500Y280043D02*
D03*
Y272957D02*
D03*
X320500Y296957D02*
D03*
Y304043D02*
D03*
X235000Y296957D02*
D03*
Y304043D02*
D03*
X235000Y280043D02*
D03*
Y272957D02*
D03*
D49*
X548457Y396750D02*
D03*
X555543D02*
D03*
X421957Y435000D02*
D03*
X429043D02*
D03*
X556043Y377625D02*
D03*
X548957D02*
D03*
X556043Y358500D02*
D03*
X548957D02*
D03*
X555543Y415875D02*
D03*
X548457D02*
D03*
X548457Y435000D02*
D03*
X555543D02*
D03*
X517065Y358500D02*
D03*
X524152D02*
D03*
X429043Y358500D02*
D03*
X421957D02*
D03*
X462722D02*
D03*
X455635D02*
D03*
X493437D02*
D03*
X486350D02*
D03*
X429043Y377625D02*
D03*
X421957D02*
D03*
X429043Y415875D02*
D03*
X421957D02*
D03*
X385043Y399000D02*
D03*
X377957D02*
D03*
X359957Y399000D02*
D03*
X367043D02*
D03*
X468357Y269013D02*
D03*
X475443D02*
D03*
X518043Y287000D02*
D03*
X510957D02*
D03*
X432843D02*
D03*
X425757D02*
D03*
X510957Y268513D02*
D03*
X518043D02*
D03*
X489657D02*
D03*
X496743D02*
D03*
X475443Y287000D02*
D03*
X468357D02*
D03*
X454143Y269013D02*
D03*
X447057D02*
D03*
X425757Y269513D02*
D03*
X432843D02*
D03*
X404457D02*
D03*
X411543D02*
D03*
X364256Y343500D02*
D03*
X357169D02*
D03*
X344543D02*
D03*
X337457D02*
D03*
X429043Y396750D02*
D03*
X421957D02*
D03*
X532082Y306000D02*
D03*
X539168D02*
D03*
X532082Y287000D02*
D03*
X539168D02*
D03*
X532082Y268500D02*
D03*
X539168D02*
D03*
X583500Y306000D02*
D03*
X590587D02*
D03*
X590587Y287000D02*
D03*
X583500D02*
D03*
Y268500D02*
D03*
X590587D02*
D03*
X279256Y345152D02*
D03*
X272169D02*
D03*
X259543D02*
D03*
X252457D02*
D03*
X194587Y343652D02*
D03*
X187500D02*
D03*
X167787D02*
D03*
X174874D02*
D03*
D50*
X413315Y287000D02*
D03*
X402685D02*
D03*
X456545D02*
D03*
X445915D02*
D03*
X498315D02*
D03*
X487685D02*
D03*
X376685Y343500D02*
D03*
X387315D02*
D03*
X291685Y345152D02*
D03*
X302315D02*
D03*
X207016Y343652D02*
D03*
X217646D02*
D03*
D51*
X481000Y412000D02*
X485250D01*
X489055Y405094D02*
Y410606D01*
X483543Y405094D02*
X489055D01*
X590587Y307000D02*
X591587Y306000D01*
X550868Y225500D02*
X590587Y265219D01*
X564100Y268500D02*
X583500D01*
X564000Y268600D02*
X564100Y268500D01*
X564000Y268600D02*
Y286000D01*
Y255500D02*
Y268600D01*
X553500Y245000D02*
X564000Y255500D01*
X527000Y245000D02*
X553500D01*
X591500Y223642D02*
X600642D01*
X597500Y317000D02*
X603000Y311500D01*
Y226000D02*
Y311500D01*
X600642Y223642D02*
X603000Y226000D01*
X597500Y287000D02*
X597500Y287000D01*
X590587Y287000D02*
X597500D01*
X596753Y336753D02*
Y370747D01*
X584500Y324500D02*
X596753Y336753D01*
X517500Y332000D02*
Y337000D01*
Y289543D02*
Y332000D01*
X596337Y432163D02*
X597074Y432901D01*
X555000Y355543D02*
X557000Y357543D01*
X517000Y357565D02*
X517500Y358065D01*
X517000Y288043D02*
X517500Y288543D01*
X555000Y327500D02*
Y355543D01*
Y327500D02*
X558000Y324500D01*
X556043Y358500D02*
X557000Y357543D01*
X532269Y287937D02*
Y306813D01*
Y268688D02*
Y287562D01*
Y268688D02*
X532457Y268500D01*
X447000Y345000D02*
X448000Y346000D01*
X556043Y358500D02*
Y361457D01*
X549000Y368500D02*
X556043Y361457D01*
X549000Y368500D02*
Y377582D01*
X548957Y358500D02*
Y361543D01*
X544000Y366500D02*
X548957Y361543D01*
X544000Y366500D02*
Y387000D01*
X592260Y443740D02*
X600173D01*
X597508Y436079D02*
X599992D01*
X597074Y432901D02*
Y435645D01*
X597508Y436079D01*
X599992D02*
X600173Y436260D01*
X601173Y405500D02*
Y411673D01*
X602000Y412500D01*
X587000Y425500D02*
X599500D01*
X602000Y423000D01*
Y412500D02*
Y423000D01*
X583574Y411426D02*
Y412959D01*
X583430Y413103D02*
X583574Y412959D01*
Y411426D02*
X585760Y409240D01*
X586000Y440500D02*
X590827D01*
X583500Y438000D02*
X586000Y440500D01*
X571000Y438000D02*
X583500D01*
X564000D02*
X571000D01*
X561000Y435000D02*
X564000Y438000D01*
X540500Y403000D02*
X549240D01*
X527500Y416000D02*
X540500Y403000D01*
X523898Y416000D02*
X527500D01*
X573000Y394000D02*
X596500D01*
X569000D02*
X573000D01*
Y383500D02*
Y394000D01*
X524025Y358627D02*
Y375873D01*
X567500Y356000D02*
X569253Y354247D01*
X567500Y356000D02*
Y370500D01*
X565500Y372500D02*
X567500Y370500D01*
X569253Y354247D02*
X572253D01*
X573000Y353500D01*
X562000Y366000D02*
X564500Y363500D01*
Y349000D02*
Y363500D01*
Y349000D02*
X570000Y343500D01*
X556043Y366957D02*
X561000Y362000D01*
Y332500D02*
Y362000D01*
Y332500D02*
X569000Y324500D01*
X570000Y343500D02*
X573000D01*
X569000Y324500D02*
X584500D01*
X566000Y397000D02*
X569000Y394000D01*
X555793Y397000D02*
X566000D01*
X548457Y402216D02*
X549240Y403000D01*
X558500D02*
X561500Y400000D01*
X549240Y403000D02*
X558500D01*
X561500Y400000D02*
X580762D01*
X582522Y401760D01*
X591942D01*
X565500Y403000D02*
X579520D01*
X562437Y406063D02*
X565500Y403000D01*
X562437Y406063D02*
Y415938D01*
X579520Y403000D02*
X585760Y409240D01*
X555543Y396750D02*
X555793Y397000D01*
X564000Y391500D02*
X565500Y390000D01*
X585760Y409240D02*
X591942D01*
X584342Y428158D02*
X587000Y425500D01*
X571000Y428158D02*
X584342D01*
X417000Y410000D02*
X426500D01*
X365500Y358500D02*
X417000Y410000D01*
X216016Y358500D02*
X365500D01*
X291500Y343685D02*
Y348828D01*
X272169Y345152D02*
Y349831D01*
Y343500D02*
Y345152D01*
X259543D02*
Y347543D01*
Y343500D02*
Y345152D01*
X406000Y389000D02*
X425500D01*
X371000Y354000D02*
X406000Y389000D01*
X298500Y354000D02*
X371000D01*
X596337Y432163D02*
X596500Y432000D01*
X589500Y446500D02*
X592260Y443740D01*
X547000Y446500D02*
X589500D01*
X555500Y396793D02*
X555543Y396750D01*
X548457D02*
Y402216D01*
X538000Y437500D02*
X547000Y446500D01*
X538000Y431000D02*
Y437500D01*
X481248Y412248D02*
Y413618D01*
X478031Y405094D02*
X483543D01*
X478031D02*
Y410606D01*
X557500Y389500D02*
X562000Y385000D01*
Y366000D02*
Y385000D01*
X565500Y372500D02*
Y390000D01*
X555543Y415875D02*
X555575Y415906D01*
X562406D01*
X562437Y415938D01*
X548457Y415481D02*
Y415875D01*
X555543Y435000D02*
X561000D01*
X523898Y431000D02*
X538000D01*
X548457Y420543D01*
X532000Y421000D02*
X540500Y412500D01*
X523898Y421000D02*
X532000D01*
X534500Y426000D02*
X540500Y420000D01*
X523898Y426000D02*
X534500D01*
X548457Y415875D02*
Y420543D01*
X556043Y377625D02*
Y380957D01*
X531000Y406000D02*
X556043Y380957D01*
X523898Y406000D02*
X531000D01*
X530000Y401000D02*
X544000Y387000D01*
X523898Y401000D02*
X530000D01*
X533500Y391000D02*
X540500Y384000D01*
Y325500D02*
Y384000D01*
Y325500D02*
X565000Y301000D01*
X531000Y386000D02*
X536500Y380500D01*
Y312640D02*
Y380500D01*
Y312640D02*
X539168Y309972D01*
X531500Y321500D02*
X531750Y321250D01*
X556043Y366957D02*
Y377625D01*
X548957D02*
X549000Y377582D01*
X548957Y325043D02*
Y358500D01*
Y325043D02*
X557000Y317000D01*
X523898Y391000D02*
X533500D01*
X539168Y306000D02*
Y309972D01*
Y300332D02*
Y306000D01*
Y300332D02*
X545000Y294500D01*
X523898Y386000D02*
X531000D01*
X425457Y287000D02*
X425607Y286850D01*
Y268650D02*
Y286850D01*
X429043Y365043D02*
X440000Y376000D01*
X429043Y358500D02*
Y365043D01*
X435000Y426000D02*
X455000D01*
X429043Y420043D02*
X435000Y426000D01*
X429043Y415875D02*
Y420043D01*
X438500Y431000D02*
X455000D01*
X434309Y435191D02*
X438500Y431000D01*
X429234Y435191D02*
X434309D01*
X583500Y287750D02*
X584250Y287000D01*
X590587Y265219D02*
Y268500D01*
X507000Y225500D02*
X550868D01*
X455000Y441000D02*
X462500D01*
X523898D02*
X533000D01*
X553256Y284500D02*
Y289500D01*
X538834Y287416D02*
X545416D01*
X531500Y321500D02*
Y377500D01*
X528000Y381000D02*
X531500Y377500D01*
X523898Y381000D02*
X528000D01*
X524025Y358627D02*
X524152Y358500D01*
X523898Y376000D02*
X524025Y375873D01*
X423882Y440382D02*
X443000D01*
X447382Y436000D02*
X455000D01*
X443000Y440382D02*
X447382Y436000D01*
X455000Y431000D02*
X455250Y431250D01*
X467750D01*
X468000Y431500D01*
X445000Y421000D02*
X455000D01*
X429043Y405043D02*
X445000Y421000D01*
Y416000D02*
X455000D01*
X436000Y407000D02*
X445000Y416000D01*
X440000Y376000D02*
Y404000D01*
X447000Y411000D02*
X455000D01*
X440000Y404000D02*
X447000Y411000D01*
X444000Y372500D02*
Y401000D01*
X449000Y406000D02*
X455000D01*
X444000Y401000D02*
X449000Y406000D01*
X450875Y401375D02*
X452563D01*
X448500Y399000D02*
X450875Y401375D01*
X448500Y373500D02*
Y399000D01*
X471382Y381382D02*
X492382D01*
X466949Y376949D02*
X471382Y381382D01*
X466949Y371079D02*
Y376949D01*
X464000Y365000D02*
X491000D01*
X461000Y368000D02*
X464000Y365000D01*
X454000Y368000D02*
X461000D01*
X462722Y358500D02*
Y361278D01*
X460000Y364000D02*
X462722Y361278D01*
X452500Y364000D02*
X460000D01*
X492382Y381382D02*
X500500Y389500D01*
X455945Y385882D02*
X479882D01*
X455445Y390882D02*
X472618D01*
X455445Y395882D02*
X465882D01*
X407000Y163500D02*
Y178000D01*
X367000Y167500D02*
Y178000D01*
X524500Y287000D02*
X524500Y287000D01*
X439500Y302500D02*
Y335500D01*
X444000Y372500D02*
X452500Y364000D01*
X491000Y365000D02*
X493500Y362500D01*
X448500Y373500D02*
X454000Y368000D01*
X493500Y358563D02*
Y362500D01*
X583500Y287000D02*
X584250D01*
X583500D02*
Y287000D01*
Y282000D02*
Y287000D01*
X590587Y268500D02*
Y274913D01*
X583500Y282000D02*
X590587Y274913D01*
X559972Y292472D02*
Y298528D01*
X557000Y289500D02*
X559972Y292472D01*
X553256Y289500D02*
X557000D01*
X565000Y292500D02*
Y301000D01*
X559500Y287000D02*
X565000Y292500D01*
X559500Y282000D02*
Y287000D01*
X567500Y289500D02*
X571744D01*
X564000Y286000D02*
X567500Y289500D01*
X552256D02*
X553256D01*
X548500Y310000D02*
X559972Y298528D01*
X557000Y279500D02*
X559500Y282000D01*
X583500Y306000D02*
Y307000D01*
Y297500D02*
Y306000D01*
X507000Y225500D02*
Y234500D01*
X469000Y225500D02*
X507000D01*
X467000Y227500D02*
X469000Y225500D01*
X376500Y350000D02*
X396000Y369500D01*
X207016Y349500D02*
X216016Y358500D01*
X294500Y350000D02*
X298500Y354000D01*
X207016Y343652D02*
Y349500D01*
Y343000D02*
Y343652D01*
X187500D02*
Y349500D01*
Y343000D02*
Y343652D01*
X174874D02*
Y346543D01*
Y343000D02*
Y343652D01*
X279506Y343750D02*
X285356D01*
X285500Y343606D01*
X200778Y343053D02*
X200831Y343106D01*
Y342712D02*
Y343106D01*
X206685Y349169D02*
X207016Y349500D01*
X206685Y345500D02*
Y349169D01*
X177831Y349500D02*
X187500D01*
X174874Y346543D02*
X177831Y349500D01*
X187500D02*
X207016D01*
X552256Y279500D02*
X557000D01*
X503809Y261814D02*
Y268191D01*
Y260191D02*
Y261814D01*
X503500Y268500D02*
X503809Y268191D01*
Y260191D02*
X504000Y260000D01*
X495957D02*
X496743Y260787D01*
Y261574D02*
Y268500D01*
Y260787D02*
Y261574D01*
X460191Y260191D02*
Y268191D01*
X460000Y260000D02*
X460191Y260191D01*
Y268191D02*
X460500Y268500D01*
X454143Y268500D02*
Y269013D01*
Y261994D02*
Y268500D01*
Y260757D02*
Y261994D01*
Y260757D02*
X454400Y260500D01*
X419000Y262220D02*
Y266688D01*
Y260500D02*
Y262220D01*
X418000Y267688D02*
Y268500D01*
Y267688D02*
X419000Y266688D01*
X411543Y268500D02*
X411722D01*
Y269335D01*
Y262058D02*
Y268500D01*
Y260678D02*
Y262058D01*
Y260678D02*
X411900Y260500D01*
X411543Y269513D02*
X411722Y269335D01*
X432843Y268500D02*
X439500D01*
X422500Y439000D02*
X423882Y440382D01*
X436000Y339000D02*
X439500Y335500D01*
X410500Y339000D02*
X436000D01*
X395500Y354000D02*
X410500Y339000D01*
X557000Y317000D02*
X597500D01*
X493437Y358500D02*
X493500Y358563D01*
X449500Y358500D02*
X455635D01*
X436000Y390500D02*
Y407000D01*
X429043Y383543D02*
X436000Y390500D01*
X429000Y392500D02*
Y396707D01*
X429043Y396750D01*
X425500Y389000D02*
X429000Y392500D01*
X410685Y418185D02*
X421957Y429457D01*
X394000Y418185D02*
X410685D01*
X400408Y428907D02*
X400500Y429000D01*
X394092Y428907D02*
X400408D01*
X394000Y428815D02*
X394092Y428907D01*
X364756Y344000D02*
X370000D01*
X377000Y343815D02*
Y350000D01*
X376685Y343500D02*
X377000Y343815D01*
X364256Y343500D02*
X364756Y344000D01*
X279256Y343500D02*
X279506Y343750D01*
X194459Y342872D02*
X194640Y343053D01*
X200778D01*
X522750Y312250D02*
X529000Y306000D01*
X522750Y312250D02*
Y325750D01*
X512000Y326500D02*
Y340500D01*
X507500Y345000D02*
X512000Y340500D01*
X415500Y345000D02*
X447000D01*
X401500Y359000D02*
X415500Y345000D01*
X476000D02*
X507500D01*
X457000Y303500D02*
Y347500D01*
X449543Y296043D02*
X457000Y303500D01*
X452500Y352000D02*
X457000Y347500D01*
X468500Y301000D02*
Y348000D01*
X462722Y298222D02*
Y358500D01*
X472437Y351937D02*
X490937D01*
X468500Y348000D02*
X472437Y351937D01*
X480500Y358500D02*
X486350D01*
X493437Y354437D02*
Y358500D01*
X490937Y351937D02*
X493437Y354437D01*
X468500Y301000D02*
X473500Y296000D01*
X431000Y352000D02*
X452500D01*
X473500Y296000D02*
X493500D01*
X429043Y353957D02*
X431000Y352000D01*
X429043Y353957D02*
Y358500D01*
Y296043D02*
X449543D01*
X425757Y292757D02*
X429043Y296043D01*
X425757Y287000D02*
Y292757D01*
X377957Y399000D02*
X377978Y398978D01*
X367022Y383022D02*
Y398978D01*
X467000Y227500D02*
Y234500D01*
X481000Y412000D02*
X481248Y412248D01*
X529000Y306000D02*
X532082D01*
X571744Y294500D02*
X571750Y294506D01*
Y302000D01*
X517000Y289043D02*
X517500Y289543D01*
Y337000D02*
Y357065D01*
X517000Y357565D02*
X517500Y357065D01*
X517000Y289043D02*
X517500Y288543D01*
X517065Y358500D02*
X517500Y358065D01*
X517000Y288043D02*
X518043Y287000D01*
X579000Y287000D02*
X583500D01*
X576500Y284500D02*
X579000Y287000D01*
X575500Y289500D02*
X583500Y297500D01*
X524152Y358500D02*
X524326Y358326D01*
X591587Y306000D02*
X597500D01*
X583500Y287000D02*
Y287750D01*
X545416Y287416D02*
X547500Y289500D01*
X518043Y287000D02*
X524500D01*
X475443D02*
X482000D01*
X482000Y287000D01*
X456545Y292045D02*
X462722Y298222D01*
X456545Y287000D02*
Y292045D01*
X432843Y287000D02*
X439500D01*
X439500Y287000D01*
X571661Y279500D02*
X571744D01*
X571500Y279339D02*
X571661Y279500D01*
X571500Y273500D02*
Y279339D01*
X539543Y273043D02*
X546000Y279500D01*
X539543Y268875D02*
Y273043D01*
X539168Y268500D02*
X539543Y268875D01*
X546000Y279500D02*
X552256D01*
X532082Y287750D02*
X532269Y287937D01*
X532082Y287750D02*
X532269Y287562D01*
X422500Y435149D02*
Y439000D01*
X421957Y429457D02*
Y435000D01*
X364256Y343500D02*
X364378Y343378D01*
X279256Y343500D02*
X279378Y343378D01*
X367022Y398978D02*
X367043Y399000D01*
X367000Y383000D02*
X367022Y383022D01*
X525000Y268500D02*
X525000Y268500D01*
X518043Y268500D02*
X525000D01*
X518043Y268500D02*
X518043Y268500D01*
X496743Y268500D02*
X496743Y268500D01*
X482000D02*
X482000Y268500D01*
X475443Y268500D02*
X482000D01*
X475443Y268500D02*
X475443Y268500D01*
X454143Y268500D02*
X454143Y268500D01*
X439500Y268500D02*
X439500Y268500D01*
X432843Y268500D02*
X432843Y268500D01*
X411543Y268500D02*
X411543Y268500D01*
X547500Y289500D02*
X552256D01*
X545000Y294500D02*
X552256D01*
X553256D01*
X498315Y287000D02*
Y291185D01*
X493500Y296000D02*
X498315Y291185D01*
X429043Y373043D02*
Y377625D01*
X425500Y369500D02*
X429043Y373043D01*
X396000Y369500D02*
X425500D01*
X346500Y350000D02*
X377000D01*
X426500Y410000D02*
X429043Y412543D01*
Y415875D01*
X392000Y399000D02*
X392000Y399000D01*
X385043Y399000D02*
X392000D01*
X363484Y408984D02*
Y412241D01*
X359957Y405457D02*
X363484Y408984D01*
X359957Y399000D02*
Y405457D01*
X353500Y399000D02*
X359957D01*
X359957Y399000D01*
X486350Y358500D02*
X486350Y358500D01*
X455635Y358500D02*
X455635Y358500D01*
X421957Y358500D02*
X421957Y358500D01*
X416500Y358500D02*
X421957D01*
X421769Y377813D02*
X421957Y377625D01*
X416687Y377813D02*
X421769D01*
X416500Y378000D02*
X416687Y377813D01*
X421832Y396875D02*
X421957Y396750D01*
X416625Y396875D02*
X421832D01*
X416500Y397000D02*
X416625Y396875D01*
X421894Y415938D02*
X421957Y415875D01*
X416563Y415938D02*
X421894D01*
X416500Y416000D02*
X416563Y415938D01*
X344543Y348043D02*
X346500Y350000D01*
X344543Y343500D02*
Y348043D01*
X262000Y350000D02*
X272000D01*
X259543Y347543D02*
X262000Y350000D01*
X357169Y343500D02*
Y349331D01*
X272000Y350000D02*
X294500D01*
X291500Y343685D02*
X291685Y343500D01*
X272000Y350000D02*
X272169Y349831D01*
X429043Y377625D02*
Y383543D01*
Y396750D02*
Y405043D01*
Y435000D02*
X429234Y435191D01*
X371315Y428815D02*
X394000D01*
X363484Y420984D02*
X371315Y428815D01*
X363484Y412241D02*
Y420984D01*
X374685Y418185D02*
X394000D01*
X372500Y416000D02*
X374685Y418185D01*
X372500Y412241D02*
Y416000D01*
Y409000D02*
Y412241D01*
X367043Y403543D02*
X372500Y409000D01*
X367043Y399000D02*
Y403543D01*
X491000Y245000D02*
X527000D01*
Y234500D02*
Y245000D01*
X487000Y241000D02*
X491000Y245000D01*
X487000Y234500D02*
Y241000D01*
X413315Y287000D02*
X413315Y287000D01*
X425457D01*
X571744Y289500D02*
X575500D01*
X572744Y284500D02*
X576500D01*
D52*
X577600Y260484D02*
Y263600D01*
X551616Y234500D02*
X577600Y260484D01*
X547000Y234500D02*
X551616D01*
D53*
X377978Y379978D02*
Y398978D01*
X336661Y368500D02*
X366500D01*
X571642Y418957D02*
X595500D01*
X571000Y418315D02*
X571642Y418957D01*
X562885Y425500D02*
X570070Y418315D01*
X553000Y425500D02*
X562885D01*
X548457Y430043D02*
X553000Y425500D01*
X570070Y418315D02*
X571000D01*
X366500Y368500D02*
X377978Y379978D01*
X548457Y430043D02*
Y435000D01*
X468357Y269013D02*
Y287000D01*
Y268500D02*
Y269013D01*
X510957Y268513D02*
Y287000D01*
Y268500D02*
Y268513D01*
X489657D02*
Y275843D01*
Y268500D02*
Y268513D01*
X447057Y269013D02*
Y276443D01*
Y268500D02*
Y269013D01*
X381500Y408000D02*
Y412225D01*
X377957Y404457D02*
X381500Y408000D01*
X377957Y399000D02*
Y404457D01*
X381500Y412225D02*
X381516Y412241D01*
X445915Y277585D02*
X447057Y276443D01*
X402685Y278315D02*
Y287000D01*
Y278315D02*
X404457Y276543D01*
Y268500D02*
Y276543D01*
X487685Y277815D02*
Y287000D01*
Y277815D02*
X489657Y275843D01*
X498315Y287000D02*
X498315Y287000D01*
X510957D01*
X456545D02*
X468357D01*
X456545Y287000D02*
X456545Y287000D01*
X445915Y277585D02*
Y287000D01*
D54*
X270500Y246000D02*
X276500Y240000D01*
Y220500D02*
Y240000D01*
X387500Y276500D02*
Y280151D01*
X384315Y273315D02*
X387500Y276500D01*
X351315Y273315D02*
X384315D01*
X334000Y256000D02*
X351315Y273315D01*
X270500Y246000D02*
Y250925D01*
X270575Y251000D01*
X230000Y246500D02*
X237500Y239000D01*
Y219000D02*
Y239000D01*
X230000Y246500D02*
Y250925D01*
X230075Y251000D01*
X197000Y219500D02*
Y239500D01*
X190000Y246500D02*
X197000Y239500D01*
X190000Y246500D02*
Y250925D01*
X190075Y251000D01*
X268500Y266000D02*
X288913D01*
X288957Y265957D01*
X260500Y241780D02*
Y258000D01*
X268500Y266000D01*
X267000Y234500D02*
Y235280D01*
X260500Y241780D02*
X267000Y235280D01*
X300000Y256000D02*
X334000D01*
X295000Y251000D02*
X300000Y256000D01*
X287425Y251000D02*
X295000D01*
X287000Y250575D02*
X287425Y251000D01*
X287000Y234500D02*
Y250575D01*
X300651Y282000D02*
X302500Y280151D01*
X272500Y282000D02*
X300651D01*
X246925Y256425D02*
X272500Y282000D01*
X246925Y251000D02*
Y256425D01*
Y251000D02*
X247000Y250925D01*
X320500Y269500D02*
Y272957D01*
X316957Y265957D02*
X320500Y269500D01*
X288957Y265957D02*
X316957D01*
X337446Y280097D02*
X337500Y280151D01*
X320554Y280097D02*
X337446D01*
X320500Y280043D02*
X320554Y280097D01*
X238151Y280151D02*
X252500D01*
X302408Y343408D02*
Y343500D01*
Y312778D02*
Y343408D01*
X217407Y312278D02*
Y343652D01*
X337457Y343500D02*
X337457Y343500D01*
X331000Y343500D02*
X337457D01*
X252457D02*
X252457Y343500D01*
X246000Y343500D02*
X252457D01*
X167787Y343000D02*
X167787Y343000D01*
X161331Y343000D02*
X167787D01*
X404457Y258457D02*
Y268500D01*
X397500Y251500D02*
X404457Y258457D01*
X344000Y251500D02*
X397500D01*
X327000Y234500D02*
X344000Y251500D01*
X247000Y234500D02*
Y250925D01*
X425607Y268650D02*
X425757Y268500D01*
X337478Y312707D02*
X337500Y312685D01*
X337478Y312707D02*
Y343500D01*
X337457Y343500D02*
X337478Y343478D01*
X252478Y312707D02*
X252500Y312685D01*
X252478Y312707D02*
Y343478D01*
X252457Y343500D02*
X252478Y343478D01*
X167478Y312207D02*
X167500Y312185D01*
X167478Y312207D02*
Y342978D01*
X167787Y343000D02*
X167809Y342978D01*
X387407Y312778D02*
X387500Y312685D01*
X387407Y312778D02*
Y343408D01*
X387315Y343500D02*
X387407Y343408D01*
X302408Y312778D02*
X302500Y312685D01*
X302315Y343500D02*
X302408Y343408D01*
X217407Y312278D02*
X217500Y312185D01*
X217646Y343000D02*
X217738Y342908D01*
X337500Y309000D02*
Y312685D01*
X332543Y304043D02*
X337500Y309000D01*
X320500Y304043D02*
X332543D01*
X252500Y309000D02*
Y312685D01*
X247543Y304043D02*
X252500Y309000D01*
X235000Y304043D02*
X247543D01*
X167500Y309500D02*
Y312185D01*
X162043Y304043D02*
X167500Y309500D01*
X152500Y304043D02*
X162043D01*
X387500Y308000D02*
Y312685D01*
X376457Y296957D02*
X387500Y308000D01*
X320500Y296957D02*
X376457D01*
X302500Y308500D02*
Y312685D01*
X290957Y296957D02*
X302500Y308500D01*
X235000Y296957D02*
X290957D01*
X217500Y307500D02*
Y312185D01*
X206957Y296957D02*
X217500Y307500D01*
X152500Y296957D02*
X206957D01*
X287000Y234500D02*
X287484Y234984D01*
D55*
X159500Y234500D02*
X187000D01*
X207000D02*
Y250925D01*
X220000Y241500D02*
X227000Y234500D01*
X220000Y241500D02*
Y268500D01*
X213151Y280151D02*
X217500D01*
X206925Y273925D02*
X213151Y280151D01*
X206925Y251000D02*
Y273925D01*
Y251000D02*
X207000Y250925D01*
X224457Y272957D02*
X235000D01*
X220000Y268500D02*
X224457Y272957D01*
X152500Y280043D02*
X152554Y280097D01*
X167446D01*
X167500Y280151D01*
X152500Y241500D02*
Y272957D01*
Y241500D02*
X159500Y234500D01*
X437500Y252000D02*
X447057Y261557D01*
X411000Y252000D02*
X437500D01*
X403500Y244500D02*
X411000Y252000D01*
X373500Y244500D02*
X403500D01*
X474500Y246000D02*
X489657Y261157D01*
X415000Y246000D02*
X474500D01*
X407000Y238000D02*
X415000Y246000D01*
X407000Y234500D02*
Y238000D01*
X367000D02*
X373500Y244500D01*
X367000Y234500D02*
Y238000D01*
X207000Y234500D02*
X207500Y235000D01*
X489657Y261157D02*
Y268500D01*
X447057Y261557D02*
Y268500D01*
D56*
X455016Y259500D02*
D03*
X458953Y259500D02*
D03*
X501953D02*
D03*
X498016Y259500D02*
D03*
X417453Y259500D02*
D03*
X413516Y259500D02*
D03*
D57*
X453047Y259500D02*
D03*
X460921D02*
D03*
X503921D02*
D03*
X496047D02*
D03*
X419421D02*
D03*
X411547D02*
D03*
D58*
X571000Y428158D02*
D03*
Y438000D02*
D03*
Y418315D02*
D03*
X217500Y319521D02*
D03*
Y280151D02*
D03*
X167500Y319521D02*
D03*
X387500D02*
D03*
Y280151D02*
D03*
X337500Y319521D02*
D03*
X302500Y321021D02*
D03*
Y281651D02*
D03*
X252500Y321021D02*
D03*
D59*
X571000Y408472D02*
D03*
X167500Y280151D02*
D03*
X337500D02*
D03*
X252500Y281651D02*
D03*
D60*
X573000Y333500D02*
D03*
X596500Y380000D02*
D03*
D61*
X573000Y343500D02*
D03*
Y353500D02*
D03*
Y363500D02*
D03*
Y373500D02*
D03*
Y383500D02*
D03*
X596500Y370000D02*
D03*
D62*
X187000Y234500D02*
D03*
X207000D02*
D03*
X227000D02*
D03*
X247000D02*
D03*
X267000D02*
D03*
X287000D02*
D03*
X307000D02*
D03*
X327000D02*
D03*
X347000D02*
D03*
X367000D02*
D03*
X387000D02*
D03*
X407000D02*
D03*
X427000D02*
D03*
X447000D02*
D03*
X467000D02*
D03*
X487000D02*
D03*
X507000D02*
D03*
X527000D02*
D03*
D63*
X547000D02*
D03*
D64*
X336661Y368512D02*
D03*
Y457488D02*
D03*
X169339Y397646D02*
D03*
X581697Y218843D02*
D03*
Y246441D02*
D03*
D65*
X169339Y428354D02*
D03*
D66*
X591500Y241500D02*
D03*
Y223783D02*
D03*
D67*
X593500Y145000D02*
D03*
Y458000D02*
D03*
X140500Y457500D02*
D03*
Y144500D02*
D03*
D68*
X577600Y263600D02*
D03*
X597500Y287000D02*
D03*
X517500Y332000D02*
D03*
X558000Y324500D02*
D03*
X583430Y413103D02*
D03*
X596500Y394000D02*
D03*
X564000Y391500D02*
D03*
X596500Y432000D02*
D03*
X486500Y408000D02*
D03*
X481248Y413618D02*
D03*
X557500Y389500D02*
D03*
X540500Y420000D02*
D03*
Y412500D02*
D03*
X531750Y321250D02*
D03*
X524000Y365000D02*
D03*
X462500Y441000D02*
D03*
X533000D02*
D03*
X468000Y431500D02*
D03*
X500500Y389500D02*
D03*
X479882Y385882D02*
D03*
X472618Y390882D02*
D03*
X465882Y395882D02*
D03*
X407000Y178000D02*
D03*
X367000D02*
D03*
X407000Y163500D02*
D03*
X367000Y167500D02*
D03*
X524500Y287000D02*
D03*
X439500Y302500D02*
D03*
X548500Y310000D02*
D03*
X276500Y219000D02*
D03*
X237500D02*
D03*
X197000D02*
D03*
X285500Y343606D02*
D03*
X200831Y343106D02*
D03*
X503500Y268500D02*
D03*
X460500D02*
D03*
X418000D02*
D03*
X400500Y429000D02*
D03*
X331000Y343500D02*
D03*
X246000D02*
D03*
X161331Y343000D02*
D03*
X370000Y344000D02*
D03*
X522750Y325750D02*
D03*
X512000D02*
D03*
X476000Y345000D02*
D03*
X448000D02*
D03*
X395500Y354000D02*
D03*
X401500Y359000D02*
D03*
X480500Y358500D02*
D03*
X571750Y302000D02*
D03*
X562437Y415938D02*
D03*
X378000Y384000D02*
D03*
X597500Y306000D02*
D03*
X482000Y287000D02*
D03*
X439500D02*
D03*
X571500Y273500D02*
D03*
X367000Y383000D02*
D03*
X525000Y268500D02*
D03*
X482000D02*
D03*
X439500D02*
D03*
X392000Y399000D02*
D03*
X353500D02*
D03*
X449500Y358500D02*
D03*
X416500D02*
D03*
Y378000D02*
D03*
Y397000D02*
D03*
Y416000D02*
D03*
M02*
