G04*
G04 #@! TF.GenerationSoftware,Altium Limited,Altium Designer,20.0.2 (26)*
G04*
G04 Layer_Color=16711935*
%FSLAX25Y25*%
%MOIN*%
G70*
G01*
G75*
%ADD10C,0.00787*%
%ADD12C,0.00500*%
%ADD73C,0.00394*%
G36*
X279362Y143468D02*
X274638D01*
Y145437D01*
X279362D01*
Y143468D01*
D02*
G37*
G36*
X239362D02*
X234638D01*
Y145437D01*
X239362D01*
Y143468D01*
D02*
G37*
G36*
X199362D02*
X194638D01*
Y145437D01*
X199362D01*
Y143468D01*
D02*
G37*
G36*
X279362Y137563D02*
X274638D01*
Y139532D01*
X279362D01*
Y137563D01*
D02*
G37*
G36*
X239362D02*
X234638D01*
Y139532D01*
X239362D01*
Y137563D01*
D02*
G37*
G36*
X199362D02*
X194638D01*
Y139532D01*
X199362D01*
Y137563D01*
D02*
G37*
G36*
X419362Y143468D02*
X414638D01*
Y145437D01*
X419362D01*
Y143468D01*
D02*
G37*
G36*
X379362D02*
X374638D01*
Y145437D01*
X379362D01*
Y143468D01*
D02*
G37*
G36*
X338862D02*
X334138D01*
Y145437D01*
X338862D01*
Y143468D01*
D02*
G37*
G36*
X419362Y137563D02*
X414638D01*
Y139532D01*
X419362D01*
Y137563D01*
D02*
G37*
G36*
X379362D02*
X374638D01*
Y139532D01*
X379362D01*
Y137563D01*
D02*
G37*
G36*
X338862D02*
X334138D01*
Y139532D01*
X338862D01*
Y137563D01*
D02*
G37*
D10*
X571394Y395677D02*
G03*
X571394Y395677I-394J0D01*
G01*
X588535Y410618D02*
G03*
X588535Y410618I-394J0D01*
G01*
X605252Y434882D02*
G03*
X605252Y434882I-394J0D01*
G01*
X544894Y296823D02*
G03*
X544894Y296823I-394J0D01*
G01*
X547394Y246311D02*
G03*
X547394Y246311I-394J0D01*
G01*
X363878Y405725D02*
G03*
X363878Y405725I-394J0D01*
G01*
X153512Y422843D02*
G03*
X153512Y422843I-394J0D01*
G01*
X294177Y251000D02*
G03*
X294177Y251000I-394J0D01*
G01*
X167697Y259678D02*
G03*
X167697Y259678I-394J0D01*
G01*
X213677Y251000D02*
G03*
X213677Y251000I-394J0D01*
G01*
X253677D02*
G03*
X253677Y251000I-394J0D01*
G01*
X337697Y259678D02*
G03*
X337697Y259678I-394J0D01*
G01*
X252697Y261178D02*
G03*
X252697Y261178I-394J0D01*
G01*
X374638Y145437D02*
X379362D01*
Y137563D02*
Y145437D01*
X374638Y137563D02*
X379362D01*
X374638D02*
Y145437D01*
X414638Y137563D02*
Y145437D01*
Y137563D02*
X419362D01*
Y145437D01*
X414638D02*
X419362D01*
X334138Y137563D02*
Y145437D01*
Y137563D02*
X338862D01*
Y145437D01*
X334138D02*
X338862D01*
X234638Y137563D02*
Y145437D01*
Y137563D02*
X239362D01*
Y145437D01*
X234638D02*
X239362D01*
X274638Y137563D02*
Y145437D01*
Y137563D02*
X279362D01*
Y145437D01*
X274638D02*
X279362D01*
X194638D02*
X199362D01*
Y137563D02*
Y145437D01*
X194638Y137563D02*
X199362D01*
X194638D02*
Y145437D01*
D12*
X584386Y398827D02*
Y447646D01*
X561748Y398827D02*
X584386D01*
X561748D02*
Y447646D01*
X584386D01*
X594441Y399791D02*
Y411209D01*
X599559D01*
Y399791D02*
Y411209D01*
X594441Y399791D02*
X599559D01*
X598559Y434291D02*
Y445709D01*
X593441Y434291D02*
X598559D01*
X593441D02*
Y445709D01*
X598559D01*
X554126Y296843D02*
X569874D01*
X554126Y277157D02*
X569874D01*
X554126D02*
Y296843D01*
X569874Y277157D02*
Y296843D01*
X173850Y242374D02*
X560150D01*
X173850Y195130D02*
Y242374D01*
Y195130D02*
X560150D01*
Y242374D01*
X359695Y418511D02*
X385305D01*
Y432310D01*
X359695D02*
X385305D01*
X359695Y418511D02*
Y432310D01*
X159496Y356898D02*
Y469102D01*
Y356898D02*
X346504D01*
Y469102D01*
X159496D02*
X346504D01*
X267976Y245193D02*
Y256807D01*
Y245193D02*
X290024D01*
Y256807D01*
X267976D02*
X290024D01*
X159626Y262040D02*
X225374D01*
Y337631D01*
X159626D02*
X225374D01*
X159626Y262040D02*
Y337631D01*
X187476Y256807D02*
X209524D01*
Y245193D02*
Y256807D01*
X187476Y245193D02*
X209524D01*
X187476D02*
Y256807D01*
X227476D02*
X249524D01*
Y245193D02*
Y256807D01*
X227476Y245193D02*
X249524D01*
X227476D02*
Y256807D01*
X575713Y218646D02*
Y246638D01*
X606697D01*
Y218646D02*
Y246638D01*
X575713Y218646D02*
X606697D01*
X329626Y262040D02*
X395374D01*
Y337631D01*
X329626D02*
X395374D01*
X329626Y262040D02*
Y337631D01*
X244626Y263540D02*
X310374D01*
Y339131D01*
X244626D02*
X310374D01*
X244626Y263540D02*
Y339131D01*
D73*
X390457Y416807D02*
X397543D01*
X390457Y430193D02*
X397543D01*
X390457Y416807D02*
Y430193D01*
X397543Y416807D02*
Y430193D01*
X593744Y417768D02*
Y426232D01*
X599256Y417768D02*
Y426232D01*
X593744Y417768D02*
X599256D01*
X593744Y426232D02*
X599256D01*
X547768Y393994D02*
Y399506D01*
X556232Y393994D02*
Y399506D01*
X547768D02*
X556232D01*
X547768Y393994D02*
X556232D01*
X421268Y437756D02*
X429732D01*
X421268Y432244D02*
X429732D01*
X421268D02*
Y437756D01*
X429732Y432244D02*
Y437756D01*
X404244Y145929D02*
X409756D01*
X404244Y137465D02*
X409756D01*
X404244D02*
Y145929D01*
X409756Y137465D02*
Y145929D01*
X364244D02*
X369756D01*
X364244Y137465D02*
X369756D01*
X364244D02*
Y145929D01*
X369756Y137465D02*
Y145929D01*
X324244D02*
X329756D01*
X324244Y137465D02*
X329756D01*
X324244D02*
Y145929D01*
X329756Y137465D02*
Y145929D01*
X264244Y145732D02*
X269756D01*
X264244Y137268D02*
X269756D01*
X264244D02*
Y145732D01*
X269756Y137268D02*
Y145732D01*
X224244D02*
X229756D01*
X224244Y137268D02*
X229756D01*
X224244D02*
Y145732D01*
X229756Y137268D02*
Y145732D01*
X189756Y137268D02*
Y145732D01*
X184244Y137268D02*
Y145732D01*
Y137268D02*
X189756D01*
X184244Y145732D02*
X189756D01*
X149744Y296268D02*
Y304732D01*
X155256Y296268D02*
Y304732D01*
X149744Y296268D02*
X155256D01*
X149744Y304732D02*
X155256D01*
X155256Y272268D02*
Y280732D01*
X149744Y272268D02*
Y280732D01*
X155256D01*
X149744Y272268D02*
X155256D01*
X323256D02*
Y280732D01*
X317744Y272268D02*
Y280732D01*
X323256D01*
X317744Y272268D02*
X323256D01*
X317744Y296268D02*
Y304732D01*
X323256Y296268D02*
Y304732D01*
X317744Y296268D02*
X323256D01*
X317744Y304732D02*
X323256D01*
X402768Y410756D02*
X411232D01*
X402768Y405244D02*
X411232D01*
Y410756D01*
X402768Y405244D02*
Y410756D01*
X556732Y374869D02*
Y380381D01*
X548268Y374869D02*
Y380381D01*
Y374869D02*
X556732D01*
X548268Y380381D02*
X556732D01*
X548268Y355744D02*
X556732D01*
X548268Y361256D02*
X556732D01*
Y355744D02*
Y361256D01*
X548268Y355744D02*
Y361256D01*
X547768Y413119D02*
X556232D01*
X547768Y418631D02*
X556232D01*
Y413119D02*
Y418631D01*
X547768Y413119D02*
Y418631D01*
X547768Y437756D02*
X556232D01*
X547768Y432244D02*
X556232D01*
X547768D02*
Y437756D01*
X556232Y432244D02*
Y437756D01*
X516376Y361256D02*
X524841D01*
X516376Y355744D02*
X524841D01*
X516376D02*
Y361256D01*
X524841Y355744D02*
Y361256D01*
X421268Y355744D02*
X429732D01*
X421268Y361256D02*
X429732D01*
Y355744D02*
Y361256D01*
X421268Y355744D02*
Y361256D01*
X454946Y355744D02*
X463411D01*
X454946Y361256D02*
X463411D01*
Y355744D02*
Y361256D01*
X454946Y355744D02*
Y361256D01*
X485661Y355744D02*
X494126D01*
X485661Y361256D02*
X494126D01*
Y355744D02*
Y361256D01*
X485661Y355744D02*
Y361256D01*
X421268Y374869D02*
X429732D01*
X421268Y380381D02*
X429732D01*
Y374869D02*
Y380381D01*
X421268Y374869D02*
Y380381D01*
Y413119D02*
X429732D01*
X421268Y418631D02*
X429732D01*
Y413119D02*
Y418631D01*
X421268Y413119D02*
Y418631D01*
X385732Y396244D02*
Y401756D01*
X377268Y396244D02*
Y401756D01*
Y396244D02*
X385732D01*
X377268Y401756D02*
X385732D01*
X359268Y396244D02*
Y401756D01*
X367732Y396244D02*
Y401756D01*
X359268D02*
X367732D01*
X359268Y396244D02*
X367732D01*
X414693Y283457D02*
Y290543D01*
X401307Y283457D02*
Y290543D01*
Y283457D02*
X414693D01*
X401307Y290543D02*
X414693D01*
X457923Y283457D02*
Y290543D01*
X444537Y283457D02*
Y290543D01*
Y283457D02*
X457923D01*
X444537Y290543D02*
X457923D01*
X467668Y271769D02*
X476132D01*
X467668Y266257D02*
X476132D01*
X467668D02*
Y271769D01*
X476132Y266257D02*
Y271769D01*
X499693Y283457D02*
Y290543D01*
X486307Y283457D02*
Y290543D01*
Y283457D02*
X499693D01*
X486307Y290543D02*
X499693D01*
X510268Y284244D02*
X518732D01*
X510268Y289756D02*
X518732D01*
Y284244D02*
Y289756D01*
X510268Y284244D02*
Y289756D01*
X425068Y284244D02*
X433532D01*
X425068Y289756D02*
X433532D01*
Y284244D02*
Y289756D01*
X425068Y284244D02*
Y289756D01*
X510268Y271269D02*
X518732D01*
X510268Y265757D02*
X518732D01*
X510268D02*
Y271269D01*
X518732Y265757D02*
Y271269D01*
X488968D02*
X497432D01*
X488968Y265757D02*
X497432D01*
X488968D02*
Y271269D01*
X497432Y265757D02*
Y271269D01*
X467668Y284244D02*
X476132D01*
X467668Y289756D02*
X476132D01*
Y284244D02*
Y289756D01*
X467668Y284244D02*
Y289756D01*
X454832Y266257D02*
Y271769D01*
X446368Y266257D02*
Y271769D01*
Y266257D02*
X454832D01*
X446368Y271769D02*
X454832D01*
X425068Y272269D02*
X433532D01*
X425068Y266757D02*
X433532D01*
X425068D02*
Y272269D01*
X433532Y266757D02*
Y272269D01*
X403768D02*
X412232D01*
X403768Y266757D02*
X412232D01*
X403768D02*
Y272269D01*
X412232Y266757D02*
Y272269D01*
X356480Y340744D02*
X364945D01*
X356480Y346256D02*
X364945D01*
Y340744D02*
Y346256D01*
X356480Y340744D02*
Y346256D01*
X336768Y340744D02*
X345232D01*
X336768Y346256D02*
X345232D01*
Y340744D02*
Y346256D01*
X336768Y340744D02*
Y346256D01*
X375307Y339957D02*
Y347043D01*
X388693Y339957D02*
Y347043D01*
X375307D02*
X388693D01*
X375307Y339957D02*
X388693D01*
X290307Y341608D02*
Y348695D01*
X303693Y341608D02*
Y348695D01*
X290307D02*
X303693D01*
X290307Y341608D02*
X303693D01*
X421268Y393994D02*
X429732D01*
X421268Y399506D02*
X429732D01*
Y393994D02*
Y399506D01*
X421268Y393994D02*
Y399506D01*
X531393Y308756D02*
X539857D01*
X531393Y303244D02*
X539857D01*
X531393D02*
Y308756D01*
X539857Y303244D02*
Y308756D01*
X531393Y289756D02*
X539857D01*
X531393Y284244D02*
X539857D01*
X531393D02*
Y289756D01*
X539857Y284244D02*
Y289756D01*
X531393Y271256D02*
X539857D01*
X531393Y265744D02*
X539857D01*
X531393D02*
Y271256D01*
X539857Y265744D02*
Y271256D01*
X582811Y308756D02*
X591276D01*
X582811Y303244D02*
X591276D01*
X582811D02*
Y308756D01*
X591276Y303244D02*
Y308756D01*
X582811Y284244D02*
X591276D01*
X582811Y289756D02*
X591276D01*
Y284244D02*
Y289756D01*
X582811Y284244D02*
Y289756D01*
Y265744D02*
Y271256D01*
X591276Y265744D02*
Y271256D01*
X582811D02*
X591276D01*
X582811Y265744D02*
X591276D01*
X271480Y342396D02*
X279945D01*
X271480Y347907D02*
X279945D01*
Y342396D02*
Y347907D01*
X271480Y342396D02*
Y347907D01*
X251768Y342396D02*
X260232D01*
X251768Y347907D02*
X260232D01*
Y342396D02*
Y347907D01*
X251768Y342396D02*
Y347907D01*
X232244Y296268D02*
Y304732D01*
X237756Y296268D02*
Y304732D01*
X232244Y296268D02*
X237756D01*
X232244Y304732D02*
X237756D01*
X237756Y272268D02*
Y280732D01*
X232244Y272268D02*
Y280732D01*
X237756D01*
X232244Y272268D02*
X237756D01*
X205638Y340108D02*
Y347195D01*
X219024Y340108D02*
Y347195D01*
X205638D02*
X219024D01*
X205638Y340108D02*
X219024D01*
X186811Y340896D02*
X195276D01*
X186811Y346408D02*
X195276D01*
Y340896D02*
Y346408D01*
X186811Y340896D02*
Y346408D01*
X167098Y340896D02*
Y346408D01*
X175563Y340896D02*
Y346408D01*
X167098D02*
X175563D01*
X167098Y340896D02*
X175563D01*
M02*
