G04*
G04 #@! TF.GenerationSoftware,Altium Limited,Altium Designer,20.0.2 (26)*
G04*
G04 Layer_Color=16711935*
%FSLAX25Y25*%
%MOIN*%
G70*
G01*
G75*
%ADD23R,0.06312X0.05524*%
%ADD24R,0.05524X0.06312*%
%ADD26C,0.06737*%
%ADD27R,0.06737X0.06737*%
%ADD28R,0.06706X0.06706*%
%ADD29C,0.06706*%
%ADD30C,0.10839*%
%ADD31R,0.10839X0.10839*%
%ADD32C,0.08477*%
%ADD33R,0.08477X0.08477*%
%ADD34C,0.06698*%
%ADD35C,0.12611*%
%ADD36C,0.05800*%
%ADD71R,0.06509X0.05131*%
D23*
X407000Y145240D02*
D03*
Y138154D02*
D03*
X367000Y145240D02*
D03*
Y138154D02*
D03*
X327000Y145240D02*
D03*
Y138154D02*
D03*
X267000Y145043D02*
D03*
Y137957D02*
D03*
X227000Y145043D02*
D03*
Y137957D02*
D03*
X187000D02*
D03*
Y145043D02*
D03*
D24*
X410543Y408000D02*
D03*
X403457D02*
D03*
D26*
X571000Y428158D02*
D03*
Y438000D02*
D03*
Y418315D02*
D03*
X217500Y319521D02*
D03*
Y280151D02*
D03*
X167500Y319521D02*
D03*
X387500D02*
D03*
Y280151D02*
D03*
X337500Y319521D02*
D03*
X302500Y321021D02*
D03*
Y281651D02*
D03*
X252500Y321021D02*
D03*
D27*
X571000Y408472D02*
D03*
X167500Y280151D02*
D03*
X337500D02*
D03*
X252500Y281651D02*
D03*
D28*
X573000Y333500D02*
D03*
X596500Y380000D02*
D03*
D29*
X573000Y343500D02*
D03*
Y353500D02*
D03*
Y363500D02*
D03*
Y373500D02*
D03*
Y383500D02*
D03*
X596500Y370000D02*
D03*
D30*
X187000Y234500D02*
D03*
X207000D02*
D03*
X227000D02*
D03*
X247000D02*
D03*
X267000D02*
D03*
X287000D02*
D03*
X307000D02*
D03*
X327000D02*
D03*
X347000D02*
D03*
X367000D02*
D03*
X387000D02*
D03*
X407000D02*
D03*
X427000D02*
D03*
X447000D02*
D03*
X467000D02*
D03*
X487000D02*
D03*
X507000D02*
D03*
X527000D02*
D03*
D31*
X547000D02*
D03*
D32*
X336661Y368512D02*
D03*
Y457488D02*
D03*
X169339Y397646D02*
D03*
X581697Y218843D02*
D03*
Y246441D02*
D03*
D33*
X169339Y428354D02*
D03*
D34*
X591500Y241500D02*
D03*
Y223783D02*
D03*
D35*
X593500Y145000D02*
D03*
Y458000D02*
D03*
X140500Y457500D02*
D03*
Y144500D02*
D03*
D36*
X577600Y263600D02*
D03*
X597500Y287000D02*
D03*
X517500Y332000D02*
D03*
X558000Y324500D02*
D03*
X583430Y413103D02*
D03*
X596500Y394000D02*
D03*
X564000Y391500D02*
D03*
X596500Y432000D02*
D03*
X486500Y408000D02*
D03*
X481248Y413618D02*
D03*
X557500Y389500D02*
D03*
X540500Y420000D02*
D03*
Y412500D02*
D03*
X531750Y321250D02*
D03*
X524000Y365000D02*
D03*
X462500Y441000D02*
D03*
X533000D02*
D03*
X468000Y431500D02*
D03*
X500500Y389500D02*
D03*
X479882Y385882D02*
D03*
X472618Y390882D02*
D03*
X465882Y395882D02*
D03*
X407000Y178000D02*
D03*
X367000D02*
D03*
X407000Y163500D02*
D03*
X367000Y167500D02*
D03*
X524500Y287000D02*
D03*
X439500Y302500D02*
D03*
X548500Y310000D02*
D03*
X276500Y219000D02*
D03*
X237500D02*
D03*
X197000D02*
D03*
X285500Y343606D02*
D03*
X200831Y343106D02*
D03*
X503500Y268500D02*
D03*
X460500D02*
D03*
X418000D02*
D03*
X400500Y429000D02*
D03*
X331000Y343500D02*
D03*
X246000D02*
D03*
X161331Y343000D02*
D03*
X370000Y344000D02*
D03*
X522750Y325750D02*
D03*
X512000D02*
D03*
X476000Y345000D02*
D03*
X448000D02*
D03*
X395500Y354000D02*
D03*
X401500Y359000D02*
D03*
X480500Y358500D02*
D03*
X571750Y302000D02*
D03*
X562437Y415938D02*
D03*
X378000Y384000D02*
D03*
X597500Y306000D02*
D03*
X482000Y287000D02*
D03*
X439500D02*
D03*
X571500Y273500D02*
D03*
X367000Y383000D02*
D03*
X525000Y268500D02*
D03*
X482000D02*
D03*
X439500D02*
D03*
X392000Y399000D02*
D03*
X353500D02*
D03*
X449500Y358500D02*
D03*
X416500D02*
D03*
Y378000D02*
D03*
Y397000D02*
D03*
Y416000D02*
D03*
D71*
X377000Y137957D02*
D03*
Y145043D02*
D03*
X417000D02*
D03*
Y137957D02*
D03*
X336500Y145043D02*
D03*
Y137957D02*
D03*
X237000Y145043D02*
D03*
Y137957D02*
D03*
X277000Y145043D02*
D03*
Y137957D02*
D03*
X197000D02*
D03*
Y145043D02*
D03*
M02*
