G04*
G04 #@! TF.GenerationSoftware,Altium Limited,Altium Designer,20.0.2 (26)*
G04*
G04 Layer_Color=32896*
%FSLAX25Y25*%
%MOIN*%
G70*
G01*
G75*
%ADD10C,0.00787*%
%ADD11C,0.01000*%
D10*
X377394Y149374D02*
G03*
X377394Y149374I-394J0D01*
G01*
X417394D02*
G03*
X417394Y149374I-394J0D01*
G01*
X336894D02*
G03*
X336894Y149374I-394J0D01*
G01*
X237394D02*
G03*
X237394Y149374I-394J0D01*
G01*
X277394D02*
G03*
X277394Y149374I-394J0D01*
G01*
X197394D02*
G03*
X197394Y149374I-394J0D01*
G01*
X379362Y140713D02*
Y142287D01*
X374638Y140713D02*
Y142287D01*
X414638Y140713D02*
Y142287D01*
X419362Y140713D02*
Y142287D01*
X404638Y141697D02*
X409362D01*
X364638D02*
X369362D01*
X334138Y140713D02*
Y142287D01*
X338862Y140713D02*
Y142287D01*
X324638Y141697D02*
X329362D01*
X234638Y140713D02*
Y142287D01*
X239362Y140713D02*
Y142287D01*
X274638Y140713D02*
Y142287D01*
X279362Y140713D02*
Y142287D01*
X264638Y141500D02*
X269362D01*
X224638D02*
X229362D01*
X184638D02*
X189362D01*
X199362Y140713D02*
Y142287D01*
X194638Y140713D02*
Y142287D01*
X407000Y405638D02*
Y410362D01*
D11*
X578999Y407501D02*
X578500Y407001D01*
X577500D01*
X577000Y407501D01*
Y409500D01*
X577500Y410000D01*
X578500D01*
X578999Y409500D01*
Y408500D01*
X578000D01*
X579999Y410000D02*
Y407001D01*
X581998Y410000D01*
Y407001D01*
X582998D02*
Y410000D01*
X584498D01*
X584997Y409500D01*
Y407501D01*
X584498Y407001D01*
X582998D01*
X582501Y438999D02*
X583001Y439499D01*
X584000D01*
X584500Y438999D01*
Y438499D01*
X584000Y437999D01*
X583001D01*
X582501Y437500D01*
Y437000D01*
X583001Y436500D01*
X584000D01*
X584500Y437000D01*
X579502Y438999D02*
X580001Y439499D01*
X581001D01*
X581501Y438999D01*
Y437000D01*
X581001Y436500D01*
X580001D01*
X579502Y437000D01*
X578502Y439499D02*
Y436500D01*
X576503D01*
X583001Y429499D02*
X583500Y429999D01*
X584500D01*
X585000Y429499D01*
Y428999D01*
X584500Y428500D01*
X583500D01*
X583001Y428000D01*
Y427500D01*
X583500Y427000D01*
X584500D01*
X585000Y427500D01*
X582001Y429999D02*
Y427000D01*
X580502D01*
X580002Y427500D01*
Y429499D01*
X580502Y429999D01*
X582001D01*
X579002Y427000D02*
Y428999D01*
X578002Y429999D01*
X577003Y428999D01*
Y427000D01*
Y428500D01*
X579002D01*
X582500Y418500D02*
X580501D01*
X581500Y419499D02*
Y417500D01*
X577502Y419999D02*
X579501D01*
Y418500D01*
X578501Y418999D01*
X578001D01*
X577502Y418500D01*
Y417500D01*
X578001Y417000D01*
X579001D01*
X579501Y417500D01*
X410000Y166500D02*
X404002D01*
Y163501D01*
X405002Y162501D01*
X407001D01*
X408001Y163501D01*
Y166500D01*
Y164501D02*
X410000Y162501D01*
Y157503D02*
X404002D01*
X407001Y160502D01*
Y156503D01*
X405002Y154504D02*
X404002Y153504D01*
Y151505D01*
X405002Y150505D01*
X409000D01*
X410000Y151505D01*
Y153504D01*
X409000Y154504D01*
X405002D01*
X370000Y166500D02*
X364002D01*
Y163501D01*
X365002Y162501D01*
X367001D01*
X368001Y163501D01*
Y166500D01*
Y164501D02*
X370000Y162501D01*
X365002Y160502D02*
X364002Y159502D01*
Y157503D01*
X365002Y156503D01*
X366001D01*
X367001Y157503D01*
Y158503D01*
Y157503D01*
X368001Y156503D01*
X369000D01*
X370000Y157503D01*
Y159502D01*
X369000Y160502D01*
Y154504D02*
X370000Y153504D01*
Y151505D01*
X369000Y150505D01*
X365002D01*
X364002Y151505D01*
Y153504D01*
X365002Y154504D01*
X366001D01*
X367001Y153504D01*
Y150505D01*
X330000Y166500D02*
X324002D01*
Y163501D01*
X325002Y162501D01*
X327001D01*
X328001Y163501D01*
Y166500D01*
Y164501D02*
X330000Y162501D01*
X325002Y160502D02*
X324002Y159502D01*
Y157503D01*
X325002Y156503D01*
X326001D01*
X327001Y157503D01*
Y158503D01*
Y157503D01*
X328001Y156503D01*
X329000D01*
X330000Y157503D01*
Y159502D01*
X329000Y160502D01*
X325002Y154504D02*
X324002Y153504D01*
Y151505D01*
X325002Y150505D01*
X326001D01*
X327001Y151505D01*
X328001Y150505D01*
X329000D01*
X330000Y151505D01*
Y153504D01*
X329000Y154504D01*
X328001D01*
X327001Y153504D01*
X326001Y154504D01*
X325002D01*
X327001Y153504D02*
Y151505D01*
X374002Y166500D02*
X380000D01*
Y163501D01*
X379000Y162501D01*
X375002D01*
X374002Y163501D01*
Y166500D01*
X375002Y160502D02*
X374002Y159502D01*
Y157503D01*
X375002Y156503D01*
X376001D01*
X377001Y157503D01*
X378001Y156503D01*
X379000D01*
X380000Y157503D01*
Y159502D01*
X379000Y160502D01*
X378001D01*
X377001Y159502D01*
X376001Y160502D01*
X375002D01*
X377001Y159502D02*
Y157503D01*
X333502Y166500D02*
X339500D01*
Y163501D01*
X338500Y162501D01*
X334502D01*
X333502Y163501D01*
Y166500D01*
Y160502D02*
Y156503D01*
X334502D01*
X338500Y160502D01*
X339500D01*
X414002Y166500D02*
X420000D01*
Y163501D01*
X419000Y162501D01*
X415002D01*
X414002Y163501D01*
Y166500D01*
X419000Y160502D02*
X420000Y159502D01*
Y157503D01*
X419000Y156503D01*
X415002D01*
X414002Y157503D01*
Y159502D01*
X415002Y160502D01*
X416001D01*
X417001Y159502D01*
Y156503D01*
X270000Y166500D02*
X264002D01*
Y163501D01*
X265002Y162501D01*
X267001D01*
X268001Y163501D01*
Y166500D01*
Y164501D02*
X270000Y162501D01*
X265002Y160502D02*
X264002Y159502D01*
Y157503D01*
X265002Y156503D01*
X266001D01*
X267001Y157503D01*
Y158503D01*
Y157503D01*
X268001Y156503D01*
X269000D01*
X270000Y157503D01*
Y159502D01*
X269000Y160502D01*
X264002Y154504D02*
Y150505D01*
X265002D01*
X269000Y154504D01*
X270000D01*
X230000Y166500D02*
X224002D01*
Y163501D01*
X225002Y162501D01*
X227001D01*
X228001Y163501D01*
Y166500D01*
Y164501D02*
X230000Y162501D01*
X225002Y160502D02*
X224002Y159502D01*
Y157503D01*
X225002Y156503D01*
X226001D01*
X227001Y157503D01*
Y158503D01*
Y157503D01*
X228001Y156503D01*
X229000D01*
X230000Y157503D01*
Y159502D01*
X229000Y160502D01*
X224002Y150505D02*
X225002Y152505D01*
X227001Y154504D01*
X229000D01*
X230000Y153504D01*
Y151505D01*
X229000Y150505D01*
X228001D01*
X227001Y151505D01*
Y154504D01*
X274002Y166500D02*
X280000D01*
Y163501D01*
X279000Y162501D01*
X275002D01*
X274002Y163501D01*
Y166500D01*
Y156503D02*
Y160502D01*
X277001D01*
X276001Y158503D01*
Y157503D01*
X277001Y156503D01*
X279000D01*
X280000Y157503D01*
Y159502D01*
X279000Y160502D01*
X234502Y166500D02*
X240500D01*
Y163501D01*
X239500Y162501D01*
X235502D01*
X234502Y163501D01*
Y166500D01*
X235502Y160502D02*
X234502Y159502D01*
Y157503D01*
X235502Y156503D01*
X236501D01*
X237501Y157503D01*
Y158503D01*
Y157503D01*
X238501Y156503D01*
X239500D01*
X240500Y157503D01*
Y159502D01*
X239500Y160502D01*
X190000Y166500D02*
X184002D01*
Y163501D01*
X185002Y162501D01*
X187001D01*
X188001Y163501D01*
Y166500D01*
Y164501D02*
X190000Y162501D01*
X185002Y160502D02*
X184002Y159502D01*
Y157503D01*
X185002Y156503D01*
X186001D01*
X187001Y157503D01*
Y158503D01*
Y157503D01*
X188001Y156503D01*
X189000D01*
X190000Y157503D01*
Y159502D01*
X189000Y160502D01*
X184002Y150505D02*
Y154504D01*
X187001D01*
X186001Y152505D01*
Y151505D01*
X187001Y150505D01*
X189000D01*
X190000Y151505D01*
Y153504D01*
X189000Y154504D01*
X194002Y166500D02*
X200000D01*
Y163501D01*
X199000Y162501D01*
X195002D01*
X194002Y163501D01*
Y166500D01*
X200000Y160502D02*
Y158503D01*
Y159502D01*
X194002D01*
X195002Y160502D01*
M02*
