G04*
G04 #@! TF.GenerationSoftware,Altium Limited,Altium Designer,20.0.2 (26)*
G04*
G04 Layer_Physical_Order=2*
G04 Layer_Color=16711680*
%FSLAX25Y25*%
%MOIN*%
G70*
G01*
G75*
%ADD11C,0.01000*%
%ADD48R,0.05512X0.04724*%
%ADD49R,0.04724X0.05512*%
%ADD51C,0.02000*%
%ADD53C,0.02500*%
%ADD54C,0.03150*%
%ADD55C,0.02953*%
%ADD58C,0.05937*%
%ADD59R,0.05937X0.05937*%
%ADD60R,0.05906X0.05906*%
%ADD61C,0.05906*%
%ADD62C,0.10039*%
%ADD63R,0.10039X0.10039*%
%ADD64C,0.07677*%
%ADD65R,0.07677X0.07677*%
%ADD66C,0.05898*%
%ADD67C,0.11811*%
%ADD68C,0.05000*%
%ADD69R,0.05709X0.04331*%
%ADD70C,0.05000*%
G36*
X605471Y209879D02*
X605117Y209526D01*
X577039Y209617D01*
Y216227D01*
X577539Y216313D01*
X578246Y215392D01*
X579257Y214616D01*
X580434Y214128D01*
X581697Y213962D01*
X582960Y214128D01*
X584137Y214616D01*
X585148Y215392D01*
X585923Y216402D01*
X586411Y217579D01*
X586577Y218843D01*
X586411Y220106D01*
X585923Y221283D01*
X585148Y222293D01*
X584137Y223069D01*
X582960Y223557D01*
X581697Y223723D01*
X580434Y223557D01*
X579257Y223069D01*
X578246Y222293D01*
X577539Y221372D01*
X577039Y221458D01*
Y243825D01*
X577539Y243911D01*
X578246Y242990D01*
X579257Y242214D01*
X580434Y241727D01*
X581697Y241561D01*
X582960Y241727D01*
X584137Y242214D01*
X585148Y242990D01*
X585923Y244001D01*
X586411Y245178D01*
X586577Y246441D01*
X586411Y247704D01*
X585923Y248881D01*
X585148Y249892D01*
X584137Y250667D01*
X582960Y251155D01*
X581697Y251321D01*
X580434Y251155D01*
X579257Y250667D01*
X578246Y249892D01*
X577539Y248971D01*
X577039Y249057D01*
Y256386D01*
X576884Y257166D01*
X576442Y257828D01*
X512444Y321826D01*
X512605Y322299D01*
X512914Y322340D01*
X513765Y322693D01*
X514496Y323254D01*
X514847Y323711D01*
X519903D01*
X520254Y323254D01*
X520985Y322693D01*
X521836Y322340D01*
X522750Y322220D01*
X523664Y322340D01*
X524515Y322693D01*
X525246Y323254D01*
X525597Y323711D01*
X528661D01*
X528883Y323262D01*
X528693Y323015D01*
X528340Y322164D01*
X528220Y321250D01*
X528340Y320336D01*
X528693Y319485D01*
X529254Y318754D01*
X529985Y318193D01*
X530836Y317840D01*
X531750Y317720D01*
X532664Y317840D01*
X533515Y318193D01*
X534246Y318754D01*
X534597Y319211D01*
X536405D01*
X545045Y310571D01*
X544970Y310000D01*
X545090Y309086D01*
X545443Y308235D01*
X546004Y307504D01*
X546735Y306943D01*
X547586Y306590D01*
X548500Y306470D01*
X549414Y306590D01*
X550265Y306943D01*
X550996Y307504D01*
X551557Y308235D01*
X551910Y309086D01*
X552030Y310000D01*
X551910Y310914D01*
X551557Y311765D01*
X550996Y312496D01*
X550265Y313057D01*
X549414Y313410D01*
X548500Y313530D01*
X547929Y313455D01*
X538692Y322692D01*
X538030Y323134D01*
X537644Y323211D01*
X537693Y323711D01*
X544905D01*
X550058Y318558D01*
X550720Y318116D01*
X551500Y317961D01*
X569097D01*
X569461Y317597D01*
Y304655D01*
X569254Y304496D01*
X568693Y303765D01*
X568340Y302914D01*
X568220Y302000D01*
X568340Y301086D01*
X568693Y300235D01*
X569254Y299504D01*
X569711Y299153D01*
Y289250D01*
X569866Y288470D01*
X570308Y287808D01*
X572558Y285558D01*
X573220Y285116D01*
X574000Y284961D01*
X594653D01*
X595004Y284504D01*
X595735Y283943D01*
X596586Y283590D01*
X597500Y283470D01*
X598414Y283590D01*
X599265Y283943D01*
X599996Y284504D01*
X600557Y285235D01*
X600910Y286086D01*
X601030Y287000D01*
X600910Y287914D01*
X600557Y288765D01*
X599996Y289496D01*
X599265Y290057D01*
X598414Y290410D01*
X597500Y290530D01*
X596586Y290410D01*
X595735Y290057D01*
X595004Y289496D01*
X594653Y289039D01*
X574845D01*
X573789Y290095D01*
Y299153D01*
X574246Y299504D01*
X574807Y300235D01*
X575160Y301086D01*
X575280Y302000D01*
X575160Y302914D01*
X574807Y303765D01*
X574246Y304496D01*
X573539Y305039D01*
Y317597D01*
X573903Y317961D01*
X582000D01*
X582780Y318116D01*
X583442Y318558D01*
X587442Y322558D01*
X587884Y323220D01*
X588039Y324000D01*
Y392500D01*
X587884Y393280D01*
X587442Y393942D01*
X579789Y401595D01*
Y411441D01*
X580289Y411541D01*
X580373Y411338D01*
X580934Y410607D01*
X581665Y410046D01*
X582517Y409693D01*
X583430Y409573D01*
X584344Y409693D01*
X585196Y410046D01*
X585927Y410607D01*
X586488Y411338D01*
X586840Y412189D01*
X586942Y412961D01*
X594461D01*
Y396847D01*
X594004Y396496D01*
X593443Y395765D01*
X593090Y394914D01*
X592970Y394000D01*
X593090Y393086D01*
X593443Y392235D01*
X594004Y391504D01*
X594735Y390943D01*
X595586Y390590D01*
X596500Y390470D01*
X597414Y390590D01*
X598265Y390943D01*
X598996Y391504D01*
X599557Y392235D01*
X599910Y393086D01*
X600030Y394000D01*
X599910Y394914D01*
X599557Y395765D01*
X598996Y396496D01*
X598539Y396847D01*
Y415000D01*
Y429153D01*
X598996Y429504D01*
X599557Y430235D01*
X599910Y431086D01*
X600030Y432000D01*
X599910Y432914D01*
X599557Y433765D01*
X598996Y434496D01*
X598265Y435057D01*
X597414Y435410D01*
X596500Y435530D01*
X595586Y435410D01*
X594735Y435057D01*
X594004Y434496D01*
X593443Y433765D01*
X593090Y432914D01*
X592970Y432000D01*
X593090Y431086D01*
X593443Y430235D01*
X594004Y429504D01*
X594461Y429153D01*
Y417039D01*
X585328D01*
X584547Y416884D01*
X584050Y416552D01*
X583430Y416633D01*
X582517Y416513D01*
X581665Y416160D01*
X580934Y415599D01*
X580373Y414868D01*
X580289Y414665D01*
X579789Y414764D01*
Y416250D01*
X579634Y417030D01*
X579192Y417692D01*
X576942Y419942D01*
X576280Y420384D01*
X575500Y420539D01*
X574296D01*
X573830Y421145D01*
X573001Y421781D01*
X572036Y422181D01*
X571000Y422318D01*
X569964Y422181D01*
X568999Y421781D01*
X568170Y421145D01*
X567533Y420316D01*
X567134Y419351D01*
X566997Y418315D01*
X567134Y417279D01*
X567533Y416314D01*
X568170Y415485D01*
X568999Y414849D01*
X569964Y414449D01*
X571000Y414312D01*
X572036Y414449D01*
X573001Y414849D01*
X573830Y415485D01*
X574305Y416104D01*
X574865Y416193D01*
X574948Y416169D01*
X575711Y415405D01*
Y400750D01*
X575866Y399970D01*
X576308Y399308D01*
X583961Y391655D01*
Y324845D01*
X581155Y322039D01*
X578443D01*
X578394Y322539D01*
X578780Y322616D01*
X579442Y323058D01*
X582442Y326058D01*
X582884Y326720D01*
X583039Y327500D01*
Y388000D01*
X582884Y388780D01*
X582442Y389442D01*
X574942Y396942D01*
X574280Y397384D01*
X573500Y397539D01*
X573345D01*
X566773Y404111D01*
X567087Y404504D01*
X567509Y404504D01*
X570500D01*
Y407972D01*
X567031D01*
Y405001D01*
X567031Y404560D01*
X566639Y404245D01*
X564477Y406407D01*
Y413091D01*
X564934Y413441D01*
X565495Y414172D01*
X565847Y415024D01*
X565968Y415938D01*
X565847Y416851D01*
X565495Y417703D01*
X564934Y418434D01*
X564203Y418995D01*
X563351Y419347D01*
X562437Y419468D01*
X561524Y419347D01*
X560672Y418995D01*
X559941Y418434D01*
X559380Y417703D01*
X559028Y416851D01*
X558907Y415938D01*
X559028Y415024D01*
X559380Y414172D01*
X559941Y413441D01*
X560398Y413091D01*
Y405562D01*
X560554Y404782D01*
X560996Y404121D01*
X571058Y394058D01*
X571720Y393616D01*
X572500Y393461D01*
X572500Y393461D01*
X572655D01*
X578961Y387155D01*
Y328345D01*
X577155Y326539D01*
X560847D01*
X560496Y326996D01*
X559765Y327557D01*
X558914Y327910D01*
X558000Y328030D01*
X557429Y327955D01*
X551942Y333442D01*
X551280Y333884D01*
X550500Y334039D01*
X520347D01*
X519996Y334496D01*
X519265Y335057D01*
X518414Y335410D01*
X517500Y335530D01*
X516586Y335410D01*
X515735Y335057D01*
X515004Y334496D01*
X514443Y333765D01*
X514090Y332914D01*
X513970Y332000D01*
X514090Y331086D01*
X514443Y330235D01*
X515004Y329504D01*
X515735Y328943D01*
X516586Y328590D01*
X517500Y328470D01*
X518414Y328590D01*
X519265Y328943D01*
X519996Y329504D01*
X520347Y329961D01*
X549655D01*
X554545Y325071D01*
X554470Y324500D01*
X554590Y323586D01*
X554943Y322735D01*
X555132Y322488D01*
X554911Y322039D01*
X552345D01*
X547192Y327192D01*
X546530Y327634D01*
X545750Y327789D01*
X525597D01*
X525246Y328246D01*
X524515Y328807D01*
X523664Y329160D01*
X522750Y329280D01*
X521836Y329160D01*
X520985Y328807D01*
X520254Y328246D01*
X519903Y327789D01*
X514847D01*
X514496Y328246D01*
X513765Y328807D01*
X512914Y329160D01*
X512000Y329280D01*
X511086Y329160D01*
X510235Y328807D01*
X509504Y328246D01*
X509039Y327641D01*
X508539Y327794D01*
Y359264D01*
X508384Y360044D01*
X507942Y360706D01*
X504500Y364148D01*
Y368500D01*
X500148D01*
X483337Y385311D01*
X483412Y385882D01*
X483292Y386796D01*
X482939Y387647D01*
X482378Y388378D01*
X481647Y388939D01*
X480796Y389292D01*
X479882Y389412D01*
X478968Y389292D01*
X478117Y388939D01*
X477386Y388378D01*
X476825Y387647D01*
X476472Y386796D01*
X476431Y386487D01*
X475958Y386326D01*
X474712Y387571D01*
X474735Y388094D01*
X475114Y388386D01*
X475675Y389117D01*
X476028Y389968D01*
X476148Y390882D01*
X476028Y391796D01*
X475675Y392647D01*
X475114Y393378D01*
X474383Y393939D01*
X473532Y394292D01*
X472618Y394412D01*
X471704Y394292D01*
X470853Y393939D01*
X470122Y393378D01*
X469561Y392647D01*
X469208Y391796D01*
X469088Y390882D01*
X469208Y389968D01*
X469561Y389117D01*
X470122Y388386D01*
X470579Y388035D01*
Y386782D01*
X470734Y386001D01*
X471176Y385340D01*
X487554Y368962D01*
X487363Y368500D01*
X484384D01*
X467921Y384963D01*
Y393035D01*
X468378Y393386D01*
X468939Y394117D01*
X469292Y394968D01*
X469412Y395882D01*
X469292Y396796D01*
X468939Y397647D01*
X468378Y398378D01*
X467647Y398939D01*
X466796Y399292D01*
X465882Y399412D01*
X464968Y399292D01*
X464117Y398939D01*
X463386Y398378D01*
X462825Y397647D01*
X462472Y396796D01*
X462352Y395882D01*
X462472Y394968D01*
X462825Y394117D01*
X463386Y393386D01*
X463843Y393035D01*
Y384118D01*
X463998Y383338D01*
X464440Y382676D01*
X478154Y368962D01*
X477963Y368500D01*
X447500D01*
X441000Y375000D01*
X441000Y375500D01*
Y433500D01*
X405500Y433500D01*
Y411756D01*
X403957D01*
Y408000D01*
Y404244D01*
X405500D01*
Y403000D01*
X380756Y378256D01*
X380294Y378447D01*
Y381349D01*
X380496Y381504D01*
X381057Y382235D01*
X381410Y383086D01*
X381530Y384000D01*
X381410Y384914D01*
X381057Y385765D01*
X380496Y386496D01*
X379765Y387057D01*
X378914Y387410D01*
X378000Y387530D01*
X377086Y387410D01*
X376235Y387057D01*
X375504Y386496D01*
X374943Y385765D01*
X374590Y384914D01*
X374470Y384000D01*
X374590Y383086D01*
X374943Y382235D01*
X375504Y381504D01*
X375706Y381349D01*
Y373206D01*
X369501Y367001D01*
X369039Y367193D01*
Y380153D01*
X369496Y380504D01*
X370057Y381235D01*
X370410Y382086D01*
X370530Y383000D01*
X370410Y383914D01*
X370057Y384765D01*
X369496Y385496D01*
X368765Y386057D01*
X367914Y386410D01*
X367000Y386530D01*
X366086Y386410D01*
X365235Y386057D01*
X364504Y385496D01*
X363943Y384765D01*
X363590Y383914D01*
X363470Y383000D01*
X363590Y382086D01*
X363943Y381235D01*
X364504Y380504D01*
X364961Y380153D01*
Y364000D01*
X339551Y364000D01*
X339381Y364500D01*
X340112Y365061D01*
X340888Y366072D01*
X341375Y367249D01*
X341542Y368512D01*
X341375Y369775D01*
X340888Y370952D01*
X340112Y371963D01*
X339102Y372738D01*
X337925Y373226D01*
X336661Y373392D01*
X335398Y373226D01*
X334221Y372738D01*
X333210Y371963D01*
X332435Y370952D01*
X331947Y369775D01*
X331781Y368512D01*
X331947Y367249D01*
X332435Y366072D01*
X333210Y365061D01*
X333942Y364500D01*
X333772Y364000D01*
X321500D01*
Y469471D01*
X404971D01*
Y449000D01*
X405087Y448415D01*
X405419Y447919D01*
X405915Y447587D01*
X406500Y447471D01*
Y445300D01*
X453440D01*
X453626Y445176D01*
X454016Y445098D01*
X524882D01*
X525272Y445176D01*
X525457Y445300D01*
X573000D01*
Y447471D01*
X573585Y447587D01*
X574081Y447919D01*
X574413Y448415D01*
X574529Y449000D01*
Y469471D01*
X605471D01*
X605471Y209879D01*
D02*
G37*
G36*
X375706Y369053D02*
Y365500D01*
X375881Y364622D01*
X376378Y363878D01*
X382878Y357378D01*
X383622Y356880D01*
X384500Y356706D01*
X392131D01*
X392409Y356206D01*
X392306Y356039D01*
X371000D01*
X371000Y356039D01*
X371000Y356039D01*
X370099D01*
X369039Y356796D01*
Y363039D01*
X375244Y369244D01*
X375706Y369053D01*
D02*
G37*
G36*
X437500Y375000D02*
X446500Y366000D01*
X481116Y366000D01*
X495961Y351155D01*
Y323000D01*
X496116Y322220D01*
X496558Y321558D01*
X528346Y289770D01*
X528333Y289426D01*
X528000Y289039D01*
X527347D01*
X526996Y289496D01*
X526265Y290057D01*
X525414Y290410D01*
X524500Y290530D01*
X523586Y290410D01*
X522735Y290057D01*
X522004Y289496D01*
X521653Y289039D01*
X484847D01*
X484496Y289496D01*
X483765Y290057D01*
X482914Y290410D01*
X482000Y290530D01*
X481086Y290410D01*
X480235Y290057D01*
X479504Y289496D01*
X479153Y289039D01*
X442347D01*
X441996Y289496D01*
X441539Y289847D01*
Y299653D01*
X441996Y300004D01*
X442557Y300735D01*
X442910Y301586D01*
X443030Y302500D01*
X442910Y303414D01*
X442557Y304265D01*
X441996Y304996D01*
X441265Y305557D01*
X440414Y305910D01*
X439500Y306030D01*
X438586Y305910D01*
X437735Y305557D01*
X437004Y304996D01*
X436443Y304265D01*
X436090Y303414D01*
X435970Y302500D01*
X436090Y301586D01*
X436443Y300735D01*
X437004Y300004D01*
X437461Y299653D01*
Y289847D01*
X437004Y289496D01*
X436443Y288765D01*
X436090Y287914D01*
X435970Y287000D01*
X436090Y286086D01*
X436443Y285235D01*
X437004Y284504D01*
X437735Y283943D01*
X438586Y283590D01*
X439500Y283470D01*
X440414Y283590D01*
X441265Y283943D01*
X441996Y284504D01*
X442347Y284961D01*
X479153D01*
X479504Y284504D01*
X480235Y283943D01*
X481086Y283590D01*
X482000Y283470D01*
X482914Y283590D01*
X483765Y283943D01*
X484496Y284504D01*
X484847Y284961D01*
X521653D01*
X522004Y284504D01*
X522735Y283943D01*
X523586Y283590D01*
X524500Y283470D01*
X525414Y283590D01*
X526265Y283943D01*
X526996Y284504D01*
X527033Y284552D01*
X527532Y284584D01*
X528500Y283616D01*
X528500Y270476D01*
X528283Y270372D01*
X528000Y270340D01*
X527496Y270996D01*
X526765Y271557D01*
X525914Y271910D01*
X525500Y271964D01*
Y268500D01*
Y265036D01*
X525914Y265090D01*
X526765Y265443D01*
X527496Y266004D01*
X528000Y266660D01*
X528283Y266628D01*
X528500Y266524D01*
Y260500D01*
X526500Y258500D01*
X523500Y256000D01*
X467000D01*
X456500Y245500D01*
X456500Y210000D01*
X316000D01*
Y247000D01*
X397400D01*
X399400Y249000D01*
Y333000D01*
X154500D01*
X152000Y335500D01*
Y358000D01*
X154500Y360500D01*
X364961D01*
Y356796D01*
X363901Y356039D01*
X207500D01*
X206720Y355884D01*
X206058Y355442D01*
X199389Y348773D01*
X198947Y348111D01*
X198792Y347331D01*
Y345953D01*
X198335Y345602D01*
X197774Y344871D01*
X197421Y344020D01*
X197301Y343106D01*
X197421Y342192D01*
X197774Y341341D01*
X198335Y340610D01*
X199066Y340049D01*
X199917Y339696D01*
X200831Y339576D01*
X201744Y339696D01*
X202596Y340049D01*
X203327Y340610D01*
X203888Y341341D01*
X204241Y342192D01*
X204361Y343106D01*
X204241Y344020D01*
X203888Y344871D01*
X203327Y345602D01*
X202870Y345953D01*
Y346486D01*
X208345Y351961D01*
X282039D01*
X283461Y351072D01*
Y346453D01*
X283004Y346102D01*
X282443Y345371D01*
X282090Y344520D01*
X281970Y343606D01*
X282090Y342692D01*
X282443Y341841D01*
X283004Y341110D01*
X283735Y340549D01*
X284586Y340196D01*
X285500Y340076D01*
X286414Y340196D01*
X287265Y340549D01*
X287996Y341110D01*
X288557Y341841D01*
X288910Y342692D01*
X289030Y343606D01*
X288910Y344520D01*
X288557Y345371D01*
X287996Y346102D01*
X287539Y346453D01*
Y351072D01*
X288961Y351961D01*
X367000D01*
X367250Y352011D01*
X367362Y351988D01*
X368461Y351204D01*
Y347151D01*
X368235Y347057D01*
X367504Y346496D01*
X366943Y345765D01*
X366590Y344914D01*
X366470Y344000D01*
X366590Y343086D01*
X366943Y342235D01*
X367504Y341504D01*
X368235Y340943D01*
X369086Y340590D01*
X370000Y340470D01*
X370914Y340590D01*
X371765Y340943D01*
X372496Y341504D01*
X373057Y342235D01*
X373410Y343086D01*
X373530Y344000D01*
X373410Y344914D01*
X373057Y345765D01*
X372539Y346440D01*
Y351204D01*
X373599Y351961D01*
X392653D01*
X393004Y351504D01*
X393735Y350943D01*
X394586Y350590D01*
X395500Y350470D01*
X396414Y350590D01*
X397265Y350943D01*
X397996Y351504D01*
X398557Y352235D01*
X398910Y353086D01*
X399030Y354000D01*
X398910Y354914D01*
X398557Y355765D01*
X398271Y356138D01*
X398485Y356586D01*
X398922Y356610D01*
X399004Y356504D01*
X399735Y355943D01*
X400586Y355590D01*
X401500Y355470D01*
X402414Y355590D01*
X403265Y355943D01*
X403996Y356504D01*
X404557Y357235D01*
X404910Y358086D01*
X405030Y359000D01*
X404910Y359914D01*
X404557Y360765D01*
X403996Y361496D01*
X403265Y362057D01*
X402414Y362410D01*
X401500Y362530D01*
X400586Y362410D01*
X399735Y362057D01*
X399004Y361496D01*
X398849Y361294D01*
X385450D01*
X380294Y366450D01*
Y374294D01*
X408500Y402500D01*
Y404244D01*
X410043D01*
Y408000D01*
Y411756D01*
X408500D01*
X408500Y430000D01*
X437500Y430000D01*
X437500Y375000D01*
D02*
G37*
G36*
X370500Y354500D02*
X363500D01*
X367000Y357000D01*
X370500Y354500D01*
D02*
G37*
G36*
Y351000D02*
X367000Y353500D01*
X374000D01*
X370500Y351000D01*
D02*
G37*
G36*
X285500D02*
X281500Y353500D01*
X289500D01*
X285500Y351000D01*
D02*
G37*
G36*
X571500Y317000D02*
X568500Y320000D01*
X574500D01*
X571500Y317000D01*
D02*
G37*
G36*
X560961Y251155D02*
Y210023D01*
X560607Y209670D01*
X459000Y210000D01*
X459000Y244000D01*
X469000Y254000D01*
X523500Y254000D01*
X527500Y257500D01*
X530500Y260500D01*
X530500Y280963D01*
X530962Y281154D01*
X560961Y251155D01*
D02*
G37*
%LPC*%
G36*
X337161Y462303D02*
Y457988D01*
X341476D01*
X341375Y458751D01*
X340888Y459928D01*
X340112Y460939D01*
X339102Y461715D01*
X337925Y462202D01*
X337161Y462303D01*
D02*
G37*
G36*
X336161D02*
X335398Y462202D01*
X334221Y461715D01*
X333210Y460939D01*
X332435Y459928D01*
X331947Y458751D01*
X331847Y457988D01*
X336161D01*
Y462303D01*
D02*
G37*
G36*
X341476Y456988D02*
X337161D01*
Y452674D01*
X337925Y452774D01*
X339102Y453262D01*
X340112Y454037D01*
X340888Y455048D01*
X341375Y456225D01*
X341476Y456988D01*
D02*
G37*
G36*
X336161D02*
X331847D01*
X331947Y456225D01*
X332435Y455048D01*
X333210Y454037D01*
X334221Y453262D01*
X335398Y452774D01*
X336161Y452674D01*
Y456988D01*
D02*
G37*
G36*
X593500Y464939D02*
X592146Y464806D01*
X590845Y464411D01*
X589645Y463769D01*
X588593Y462907D01*
X587731Y461855D01*
X587089Y460655D01*
X586694Y459354D01*
X586561Y458000D01*
X586694Y456646D01*
X587089Y455345D01*
X587731Y454145D01*
X588593Y453093D01*
X589645Y452231D01*
X590845Y451589D01*
X592146Y451194D01*
X593500Y451061D01*
X594854Y451194D01*
X596155Y451589D01*
X597355Y452231D01*
X598407Y453093D01*
X599269Y454145D01*
X599911Y455345D01*
X600306Y456646D01*
X600439Y458000D01*
X600306Y459354D01*
X599911Y460655D01*
X599269Y461855D01*
X598407Y462907D01*
X597355Y463769D01*
X596155Y464411D01*
X594854Y464806D01*
X593500Y464939D01*
D02*
G37*
G36*
X533500Y444464D02*
Y441500D01*
X536464D01*
X536410Y441914D01*
X536057Y442765D01*
X535496Y443496D01*
X534765Y444057D01*
X533914Y444410D01*
X533500Y444464D01*
D02*
G37*
G36*
X532500D02*
X532086Y444410D01*
X531235Y444057D01*
X530504Y443496D01*
X529943Y442765D01*
X529590Y441914D01*
X529536Y441500D01*
X532500D01*
Y444464D01*
D02*
G37*
G36*
X463000D02*
Y441500D01*
X465964D01*
X465910Y441914D01*
X465557Y442765D01*
X464996Y443496D01*
X464265Y444057D01*
X463414Y444410D01*
X463000Y444464D01*
D02*
G37*
G36*
X462000D02*
X461586Y444410D01*
X460735Y444057D01*
X460004Y443496D01*
X459443Y442765D01*
X459090Y441914D01*
X459036Y441500D01*
X462000D01*
Y444464D01*
D02*
G37*
G36*
X536464Y440500D02*
X533500D01*
Y437536D01*
X533914Y437590D01*
X534765Y437943D01*
X535496Y438504D01*
X536057Y439235D01*
X536410Y440086D01*
X536464Y440500D01*
D02*
G37*
G36*
X532500D02*
X529536D01*
X529590Y440086D01*
X529943Y439235D01*
X530504Y438504D01*
X531235Y437943D01*
X532086Y437590D01*
X532500Y437536D01*
Y440500D01*
D02*
G37*
G36*
X465964D02*
X463000D01*
Y437536D01*
X463414Y437590D01*
X464265Y437943D01*
X464996Y438504D01*
X465557Y439235D01*
X465910Y440086D01*
X465964Y440500D01*
D02*
G37*
G36*
X462000D02*
X459036D01*
X459090Y440086D01*
X459443Y439235D01*
X460004Y438504D01*
X460735Y437943D01*
X461586Y437590D01*
X462000Y437536D01*
Y440500D01*
D02*
G37*
G36*
X571000Y442003D02*
X569964Y441866D01*
X568999Y441467D01*
X568170Y440830D01*
X567533Y440001D01*
X567134Y439036D01*
X566997Y438000D01*
X567134Y436964D01*
X567533Y435999D01*
X568170Y435170D01*
X568999Y434534D01*
X569964Y434134D01*
X571000Y433997D01*
X572036Y434134D01*
X573001Y434534D01*
X573830Y435170D01*
X574467Y435999D01*
X574866Y436964D01*
X575003Y438000D01*
X574866Y439036D01*
X574467Y440001D01*
X573830Y440830D01*
X573001Y441467D01*
X572036Y441866D01*
X571000Y442003D01*
D02*
G37*
G36*
X401000Y432464D02*
Y429500D01*
X403964D01*
X403910Y429914D01*
X403557Y430765D01*
X402996Y431496D01*
X402265Y432057D01*
X401414Y432410D01*
X401000Y432464D01*
D02*
G37*
G36*
X400000D02*
X399586Y432410D01*
X398735Y432057D01*
X398004Y431496D01*
X397443Y430765D01*
X397090Y429914D01*
X397036Y429500D01*
X400000D01*
Y432464D01*
D02*
G37*
G36*
X403964Y428500D02*
X401000D01*
Y425536D01*
X401414Y425590D01*
X402265Y425943D01*
X402996Y426504D01*
X403557Y427235D01*
X403910Y428086D01*
X403964Y428500D01*
D02*
G37*
G36*
X400000D02*
X397036D01*
X397090Y428086D01*
X397443Y427235D01*
X398004Y426504D01*
X398735Y425943D01*
X399586Y425590D01*
X400000Y425536D01*
Y428500D01*
D02*
G37*
G36*
X571000Y432160D02*
X569964Y432024D01*
X568999Y431624D01*
X568170Y430988D01*
X567533Y430159D01*
X567134Y429193D01*
X566997Y428158D01*
X567134Y427121D01*
X567533Y426156D01*
X568170Y425327D01*
X568999Y424691D01*
X569964Y424291D01*
X571000Y424155D01*
X572036Y424291D01*
X573001Y424691D01*
X573830Y425327D01*
X574467Y426156D01*
X574866Y427121D01*
X575003Y428158D01*
X574866Y429193D01*
X574467Y430159D01*
X573830Y430988D01*
X573001Y431624D01*
X572036Y432024D01*
X571000Y432160D01*
D02*
G37*
G36*
X481748Y417083D02*
Y414118D01*
X484712D01*
X484658Y414532D01*
X484305Y415383D01*
X483744Y416114D01*
X483013Y416675D01*
X482162Y417028D01*
X481748Y417083D01*
D02*
G37*
G36*
X480748D02*
X480334Y417028D01*
X479483Y416675D01*
X478752Y416114D01*
X478191Y415383D01*
X477838Y414532D01*
X477784Y414118D01*
X480748D01*
Y417083D01*
D02*
G37*
G36*
X484712Y413118D02*
X481748D01*
Y410154D01*
X482162Y410208D01*
X483013Y410561D01*
X483744Y411122D01*
X484305Y411853D01*
X484658Y412704D01*
X484712Y413118D01*
D02*
G37*
G36*
X480748D02*
X477784D01*
X477838Y412704D01*
X478191Y411853D01*
X478752Y411122D01*
X479483Y410561D01*
X480334Y410208D01*
X480748Y410154D01*
Y413118D01*
D02*
G37*
G36*
X574968Y412441D02*
X571500D01*
Y408972D01*
X574968D01*
Y412441D01*
D02*
G37*
G36*
X570500D02*
X567031D01*
Y408972D01*
X570500D01*
Y412441D01*
D02*
G37*
G36*
X402957Y411756D02*
X400095D01*
Y408500D01*
X402957D01*
Y411756D01*
D02*
G37*
G36*
X487000Y411464D02*
Y408500D01*
X489964D01*
X489910Y408914D01*
X489557Y409765D01*
X488996Y410496D01*
X488265Y411057D01*
X487414Y411410D01*
X487000Y411464D01*
D02*
G37*
G36*
X486000D02*
X485586Y411410D01*
X484735Y411057D01*
X484004Y410496D01*
X483443Y409765D01*
X483090Y408914D01*
X483036Y408500D01*
X486000D01*
Y411464D01*
D02*
G37*
G36*
X489964Y407500D02*
X487000D01*
Y404536D01*
X487414Y404590D01*
X488265Y404943D01*
X488996Y405504D01*
X489557Y406235D01*
X489910Y407086D01*
X489964Y407500D01*
D02*
G37*
G36*
X486000D02*
X483036D01*
X483090Y407086D01*
X483443Y406235D01*
X484004Y405504D01*
X484735Y404943D01*
X485586Y404590D01*
X486000Y404536D01*
Y407500D01*
D02*
G37*
G36*
X574968Y407972D02*
X571500D01*
Y404504D01*
X574968D01*
Y407972D01*
D02*
G37*
G36*
X402957Y407500D02*
X400095D01*
Y404244D01*
X402957D01*
Y407500D01*
D02*
G37*
G36*
X392500Y402464D02*
Y399500D01*
X395464D01*
X395410Y399914D01*
X395057Y400765D01*
X394496Y401496D01*
X393765Y402057D01*
X392914Y402410D01*
X392500Y402464D01*
D02*
G37*
G36*
X391500D02*
X391086Y402410D01*
X390235Y402057D01*
X389504Y401496D01*
X388943Y400765D01*
X388590Y399914D01*
X388536Y399500D01*
X391500D01*
Y402464D01*
D02*
G37*
G36*
X354000D02*
Y399500D01*
X356964D01*
X356910Y399914D01*
X356557Y400765D01*
X355996Y401496D01*
X355265Y402057D01*
X354414Y402410D01*
X354000Y402464D01*
D02*
G37*
G36*
X353000D02*
X352586Y402410D01*
X351735Y402057D01*
X351004Y401496D01*
X350443Y400765D01*
X350090Y399914D01*
X350036Y399500D01*
X353000D01*
Y402464D01*
D02*
G37*
G36*
X395464Y398500D02*
X392500D01*
Y395536D01*
X392914Y395590D01*
X393765Y395943D01*
X394496Y396504D01*
X395057Y397235D01*
X395410Y398086D01*
X395464Y398500D01*
D02*
G37*
G36*
X391500D02*
X388536D01*
X388590Y398086D01*
X388943Y397235D01*
X389504Y396504D01*
X390235Y395943D01*
X391086Y395590D01*
X391500Y395536D01*
Y398500D01*
D02*
G37*
G36*
X356964D02*
X354000D01*
Y395536D01*
X354414Y395590D01*
X355265Y395943D01*
X355996Y396504D01*
X356557Y397235D01*
X356910Y398086D01*
X356964Y398500D01*
D02*
G37*
G36*
X353000D02*
X350036D01*
X350090Y398086D01*
X350443Y397235D01*
X351004Y396504D01*
X351735Y395943D01*
X352586Y395590D01*
X353000Y395536D01*
Y398500D01*
D02*
G37*
G36*
X501000Y392964D02*
Y390000D01*
X503964D01*
X503910Y390414D01*
X503557Y391265D01*
X502996Y391996D01*
X502265Y392557D01*
X501414Y392910D01*
X501000Y392964D01*
D02*
G37*
G36*
X500000D02*
X499586Y392910D01*
X498735Y392557D01*
X498004Y391996D01*
X497443Y391265D01*
X497090Y390414D01*
X497036Y390000D01*
X500000D01*
Y392964D01*
D02*
G37*
G36*
X540500Y423530D02*
X539586Y423410D01*
X538735Y423057D01*
X538004Y422496D01*
X537443Y421765D01*
X537090Y420914D01*
X536970Y420000D01*
X537090Y419086D01*
X537443Y418235D01*
X538004Y417504D01*
X538735Y416943D01*
X539586Y416590D01*
X540254Y416502D01*
Y415998D01*
X539586Y415910D01*
X538735Y415557D01*
X538004Y414996D01*
X537443Y414265D01*
X537090Y413414D01*
X536970Y412500D01*
X537090Y411586D01*
X537443Y410735D01*
X538004Y410004D01*
X538461Y409653D01*
Y406500D01*
X538616Y405720D01*
X539058Y405058D01*
X554045Y390071D01*
X553970Y389500D01*
X554090Y388586D01*
X554443Y387735D01*
X555004Y387004D01*
X555735Y386443D01*
X556586Y386090D01*
X557500Y385970D01*
X558414Y386090D01*
X559265Y386443D01*
X559996Y387004D01*
X560557Y387735D01*
X560910Y388586D01*
X560952Y388902D01*
X561474Y389042D01*
X561504Y389004D01*
X562235Y388443D01*
X563086Y388090D01*
X564000Y387970D01*
X564914Y388090D01*
X565765Y388443D01*
X566496Y389004D01*
X567057Y389735D01*
X567410Y390586D01*
X567530Y391500D01*
X567410Y392414D01*
X567057Y393265D01*
X566496Y393996D01*
X565765Y394557D01*
X564914Y394910D01*
X564000Y395030D01*
X563429Y394955D01*
X547539Y410845D01*
Y415000D01*
X547384Y415780D01*
X546942Y416442D01*
X543955Y419429D01*
X544030Y420000D01*
X543910Y420914D01*
X543557Y421765D01*
X542996Y422496D01*
X542265Y423057D01*
X541414Y423410D01*
X540500Y423530D01*
D02*
G37*
G36*
X503964Y389000D02*
X501000D01*
Y386036D01*
X501414Y386090D01*
X502265Y386443D01*
X502996Y387004D01*
X503557Y387735D01*
X503910Y388586D01*
X503964Y389000D01*
D02*
G37*
G36*
X500000D02*
X497036D01*
X497090Y388586D01*
X497443Y387735D01*
X498004Y387004D01*
X498735Y386443D01*
X499586Y386090D01*
X500000Y386036D01*
Y389000D01*
D02*
G37*
G36*
X600453Y383953D02*
X597000D01*
Y380500D01*
X600453D01*
Y383953D01*
D02*
G37*
G36*
X596000D02*
X592547D01*
Y380500D01*
X596000D01*
Y383953D01*
D02*
G37*
G36*
X573000Y387487D02*
X571968Y387351D01*
X571007Y386953D01*
X570181Y386319D01*
X569547Y385493D01*
X569149Y384532D01*
X569013Y383500D01*
X569149Y382468D01*
X569547Y381507D01*
X570181Y380681D01*
X571007Y380047D01*
X571968Y379649D01*
X573000Y379513D01*
X574032Y379649D01*
X574993Y380047D01*
X575819Y380681D01*
X576453Y381507D01*
X576851Y382468D01*
X576987Y383500D01*
X576851Y384532D01*
X576453Y385493D01*
X575819Y386319D01*
X574993Y386953D01*
X574032Y387351D01*
X573000Y387487D01*
D02*
G37*
G36*
X600453Y379500D02*
X597000D01*
Y376047D01*
X600453D01*
Y379500D01*
D02*
G37*
G36*
X596000D02*
X592547D01*
Y376047D01*
X596000D01*
Y379500D01*
D02*
G37*
G36*
X468000Y435030D02*
X467086Y434910D01*
X466235Y434557D01*
X465504Y433996D01*
X464943Y433265D01*
X464590Y432414D01*
X464470Y431500D01*
X464590Y430586D01*
X464943Y429735D01*
X465504Y429004D01*
X465961Y428653D01*
Y410500D01*
X466116Y409720D01*
X466558Y409058D01*
X503558Y372058D01*
X504220Y371616D01*
X505000Y371461D01*
X569582D01*
X570181Y370681D01*
X571007Y370047D01*
X571968Y369649D01*
X573000Y369513D01*
X574032Y369649D01*
X574993Y370047D01*
X575819Y370681D01*
X576453Y371507D01*
X576851Y372468D01*
X576987Y373500D01*
X576851Y374532D01*
X576453Y375493D01*
X575819Y376319D01*
X574993Y376953D01*
X574032Y377351D01*
X573000Y377487D01*
X571968Y377351D01*
X571007Y376953D01*
X570181Y376319D01*
X569582Y375539D01*
X505845D01*
X470039Y411345D01*
Y428653D01*
X470496Y429004D01*
X471057Y429735D01*
X471410Y430586D01*
X471530Y431500D01*
X471410Y432414D01*
X471057Y433265D01*
X470496Y433996D01*
X469765Y434557D01*
X468914Y434910D01*
X468000Y435030D01*
D02*
G37*
G36*
X596500Y373987D02*
X595468Y373851D01*
X594507Y373453D01*
X593681Y372819D01*
X593047Y371993D01*
X592649Y371032D01*
X592513Y370000D01*
X592649Y368968D01*
X593047Y368007D01*
X593681Y367181D01*
X594507Y366547D01*
X595468Y366149D01*
X596500Y366013D01*
X597532Y366149D01*
X598493Y366547D01*
X599319Y367181D01*
X599953Y368007D01*
X600351Y368968D01*
X600487Y370000D01*
X600351Y371032D01*
X599953Y371993D01*
X599319Y372819D01*
X598493Y373453D01*
X597532Y373851D01*
X596500Y373987D01*
D02*
G37*
G36*
X524000Y368530D02*
X523086Y368410D01*
X522235Y368057D01*
X521504Y367496D01*
X520943Y366765D01*
X520590Y365914D01*
X520470Y365000D01*
X520590Y364086D01*
X520943Y363235D01*
X521504Y362504D01*
X522235Y361943D01*
X523086Y361590D01*
X524000Y361470D01*
X524914Y361590D01*
X525765Y361943D01*
X526111Y362208D01*
X569257D01*
X569547Y361507D01*
X570181Y360681D01*
X571007Y360047D01*
X571968Y359649D01*
X573000Y359513D01*
X574032Y359649D01*
X574993Y360047D01*
X575819Y360681D01*
X576453Y361507D01*
X576851Y362468D01*
X576987Y363500D01*
X576851Y364532D01*
X576453Y365493D01*
X575819Y366319D01*
X574993Y366953D01*
X574032Y367351D01*
X573000Y367487D01*
X571968Y367351D01*
X571007Y366953D01*
X570181Y366319D01*
X570156Y366286D01*
X527255D01*
X527057Y366765D01*
X526496Y367496D01*
X525765Y368057D01*
X524914Y368410D01*
X524000Y368530D01*
D02*
G37*
G36*
X573000Y357487D02*
X571968Y357351D01*
X571007Y356953D01*
X570181Y356319D01*
X569547Y355493D01*
X569149Y354532D01*
X569013Y353500D01*
X569149Y352468D01*
X569547Y351507D01*
X570181Y350681D01*
X571007Y350047D01*
X571968Y349649D01*
X573000Y349513D01*
X574032Y349649D01*
X574993Y350047D01*
X575819Y350681D01*
X576453Y351507D01*
X576851Y352468D01*
X576987Y353500D01*
X576851Y354532D01*
X576453Y355493D01*
X575819Y356319D01*
X574993Y356953D01*
X574032Y357351D01*
X573000Y357487D01*
D02*
G37*
G36*
Y347487D02*
X571968Y347351D01*
X571007Y346953D01*
X570181Y346319D01*
X569547Y345493D01*
X569149Y344532D01*
X569013Y343500D01*
X569149Y342468D01*
X569547Y341507D01*
X570181Y340681D01*
X571007Y340047D01*
X571968Y339649D01*
X573000Y339513D01*
X574032Y339649D01*
X574993Y340047D01*
X575819Y340681D01*
X576453Y341507D01*
X576851Y342468D01*
X576987Y343500D01*
X576851Y344532D01*
X576453Y345493D01*
X575819Y346319D01*
X574993Y346953D01*
X574032Y347351D01*
X573000Y347487D01*
D02*
G37*
G36*
X576953Y337453D02*
X573500D01*
Y334000D01*
X576953D01*
Y337453D01*
D02*
G37*
G36*
X572500D02*
X569047D01*
Y334000D01*
X572500D01*
Y337453D01*
D02*
G37*
G36*
X576953Y333000D02*
X573500D01*
Y329547D01*
X576953D01*
Y333000D01*
D02*
G37*
G36*
X572500D02*
X569047D01*
Y329547D01*
X572500D01*
Y333000D01*
D02*
G37*
G36*
X598000Y309464D02*
Y306500D01*
X600964D01*
X600910Y306914D01*
X600557Y307765D01*
X599996Y308496D01*
X599265Y309057D01*
X598414Y309410D01*
X598000Y309464D01*
D02*
G37*
G36*
X597000D02*
X596586Y309410D01*
X595735Y309057D01*
X595004Y308496D01*
X594443Y307765D01*
X594090Y306914D01*
X594036Y306500D01*
X597000D01*
Y309464D01*
D02*
G37*
G36*
X600964Y305500D02*
X598000D01*
Y302536D01*
X598414Y302590D01*
X599265Y302943D01*
X599996Y303504D01*
X600557Y304235D01*
X600910Y305086D01*
X600964Y305500D01*
D02*
G37*
G36*
X597000D02*
X594036D01*
X594090Y305086D01*
X594443Y304235D01*
X595004Y303504D01*
X595735Y302943D01*
X596586Y302590D01*
X597000Y302536D01*
Y305500D01*
D02*
G37*
G36*
X572000Y276964D02*
Y274000D01*
X574964D01*
X574910Y274414D01*
X574557Y275265D01*
X573996Y275996D01*
X573265Y276557D01*
X572414Y276910D01*
X572000Y276964D01*
D02*
G37*
G36*
X571000D02*
X570586Y276910D01*
X569735Y276557D01*
X569004Y275996D01*
X568443Y275265D01*
X568090Y274414D01*
X568036Y274000D01*
X571000D01*
Y276964D01*
D02*
G37*
G36*
X574964Y273000D02*
X572000D01*
Y270036D01*
X572414Y270090D01*
X573265Y270443D01*
X573996Y271004D01*
X574557Y271735D01*
X574910Y272586D01*
X574964Y273000D01*
D02*
G37*
G36*
X571000D02*
X568036D01*
X568090Y272586D01*
X568443Y271735D01*
X569004Y271004D01*
X569735Y270443D01*
X570586Y270090D01*
X571000Y270036D01*
Y273000D01*
D02*
G37*
G36*
X578100Y267064D02*
Y264100D01*
X581064D01*
X581010Y264514D01*
X580657Y265365D01*
X580096Y266096D01*
X579365Y266657D01*
X578514Y267010D01*
X578100Y267064D01*
D02*
G37*
G36*
X577100D02*
X576686Y267010D01*
X575835Y266657D01*
X575104Y266096D01*
X574543Y265365D01*
X574190Y264514D01*
X574136Y264100D01*
X577100D01*
Y267064D01*
D02*
G37*
G36*
X581064Y263100D02*
X578100D01*
Y260136D01*
X578514Y260190D01*
X579365Y260543D01*
X580096Y261104D01*
X580657Y261835D01*
X581010Y262686D01*
X581064Y263100D01*
D02*
G37*
G36*
X577100D02*
X574136D01*
X574190Y262686D01*
X574543Y261835D01*
X575104Y261104D01*
X575835Y260543D01*
X576686Y260190D01*
X577100Y260136D01*
Y263100D01*
D02*
G37*
G36*
X592000Y245417D02*
Y242000D01*
X595417D01*
X595347Y242531D01*
X594949Y243491D01*
X594316Y244316D01*
X593491Y244949D01*
X592531Y245347D01*
X592000Y245417D01*
D02*
G37*
G36*
X591000D02*
X590469Y245347D01*
X589509Y244949D01*
X588684Y244316D01*
X588051Y243491D01*
X587653Y242531D01*
X587583Y242000D01*
X591000D01*
Y245417D01*
D02*
G37*
G36*
X595417Y241000D02*
X592000D01*
Y237583D01*
X592531Y237653D01*
X593491Y238051D01*
X594316Y238684D01*
X594949Y239509D01*
X595347Y240469D01*
X595417Y241000D01*
D02*
G37*
G36*
X591000D02*
X587583D01*
X587653Y240469D01*
X588051Y239509D01*
X588684Y238684D01*
X589509Y238051D01*
X590469Y237653D01*
X591000Y237583D01*
Y241000D01*
D02*
G37*
G36*
X591500Y227766D02*
X590469Y227631D01*
X589509Y227233D01*
X588684Y226600D01*
X588051Y225775D01*
X587653Y224814D01*
X587517Y223783D01*
X587653Y222753D01*
X588051Y221792D01*
X588684Y220967D01*
X589509Y220334D01*
X590469Y219936D01*
X591500Y219801D01*
X592531Y219936D01*
X593491Y220334D01*
X594316Y220967D01*
X594949Y221792D01*
X595347Y222753D01*
X595483Y223783D01*
X595347Y224814D01*
X594949Y225775D01*
X594316Y226600D01*
X593491Y227233D01*
X592531Y227631D01*
X591500Y227766D01*
D02*
G37*
%LPD*%
G36*
X543494Y409831D02*
X543616Y409220D01*
X544058Y408558D01*
X559968Y392648D01*
X559638Y392271D01*
X559265Y392557D01*
X558414Y392910D01*
X557500Y393030D01*
X556929Y392955D01*
X542539Y407345D01*
Y409653D01*
X542968Y409982D01*
X543050Y409985D01*
X543494Y409831D01*
D02*
G37*
%LPC*%
G36*
X417000Y419464D02*
Y416500D01*
X419964D01*
X419910Y416914D01*
X419557Y417765D01*
X418996Y418496D01*
X418265Y419057D01*
X417414Y419410D01*
X417000Y419464D01*
D02*
G37*
G36*
X416000D02*
X415586Y419410D01*
X414735Y419057D01*
X414004Y418496D01*
X413443Y417765D01*
X413090Y416914D01*
X413036Y416500D01*
X416000D01*
Y419464D01*
D02*
G37*
G36*
X419964Y415500D02*
X417000D01*
Y412536D01*
X417414Y412590D01*
X418265Y412943D01*
X418996Y413504D01*
X419557Y414235D01*
X419910Y415086D01*
X419964Y415500D01*
D02*
G37*
G36*
X416000D02*
X413036D01*
X413090Y415086D01*
X413443Y414235D01*
X414004Y413504D01*
X414735Y412943D01*
X415586Y412590D01*
X416000Y412536D01*
Y415500D01*
D02*
G37*
G36*
X413905Y411756D02*
X411043D01*
Y408500D01*
X413905D01*
Y411756D01*
D02*
G37*
G36*
Y407500D02*
X411043D01*
Y404244D01*
X413905D01*
Y407500D01*
D02*
G37*
G36*
X417000Y400464D02*
Y397500D01*
X419964D01*
X419910Y397914D01*
X419557Y398765D01*
X418996Y399496D01*
X418265Y400057D01*
X417414Y400410D01*
X417000Y400464D01*
D02*
G37*
G36*
X416000D02*
X415586Y400410D01*
X414735Y400057D01*
X414004Y399496D01*
X413443Y398765D01*
X413090Y397914D01*
X413036Y397500D01*
X416000D01*
Y400464D01*
D02*
G37*
G36*
X419964Y396500D02*
X417000D01*
Y393536D01*
X417414Y393590D01*
X418265Y393943D01*
X418996Y394504D01*
X419557Y395235D01*
X419910Y396086D01*
X419964Y396500D01*
D02*
G37*
G36*
X416000D02*
X413036D01*
X413090Y396086D01*
X413443Y395235D01*
X414004Y394504D01*
X414735Y393943D01*
X415586Y393590D01*
X416000Y393536D01*
Y396500D01*
D02*
G37*
G36*
X417000Y381464D02*
Y378500D01*
X419964D01*
X419910Y378914D01*
X419557Y379765D01*
X418996Y380496D01*
X418265Y381057D01*
X417414Y381410D01*
X417000Y381464D01*
D02*
G37*
G36*
X416000D02*
X415586Y381410D01*
X414735Y381057D01*
X414004Y380496D01*
X413443Y379765D01*
X413090Y378914D01*
X413036Y378500D01*
X416000D01*
Y381464D01*
D02*
G37*
G36*
X419964Y377500D02*
X417000D01*
Y374536D01*
X417414Y374590D01*
X418265Y374943D01*
X418996Y375504D01*
X419557Y376235D01*
X419910Y377086D01*
X419964Y377500D01*
D02*
G37*
G36*
X416000D02*
X413036D01*
X413090Y377086D01*
X413443Y376235D01*
X414004Y375504D01*
X414735Y374943D01*
X415586Y374590D01*
X416000Y374536D01*
Y377500D01*
D02*
G37*
G36*
X481000Y361964D02*
Y359000D01*
X483964D01*
X483910Y359414D01*
X483557Y360265D01*
X482996Y360996D01*
X482265Y361557D01*
X481414Y361910D01*
X481000Y361964D01*
D02*
G37*
G36*
X480000D02*
X479586Y361910D01*
X478735Y361557D01*
X478004Y360996D01*
X477443Y360265D01*
X477090Y359414D01*
X477036Y359000D01*
X480000D01*
Y361964D01*
D02*
G37*
G36*
X450000D02*
Y359000D01*
X452964D01*
X452910Y359414D01*
X452557Y360265D01*
X451996Y360996D01*
X451265Y361557D01*
X450414Y361910D01*
X450000Y361964D01*
D02*
G37*
G36*
X449000D02*
X448586Y361910D01*
X447735Y361557D01*
X447004Y360996D01*
X446443Y360265D01*
X446090Y359414D01*
X446036Y359000D01*
X449000D01*
Y361964D01*
D02*
G37*
G36*
X417000D02*
Y359000D01*
X419964D01*
X419910Y359414D01*
X419557Y360265D01*
X418996Y360996D01*
X418265Y361557D01*
X417414Y361910D01*
X417000Y361964D01*
D02*
G37*
G36*
X416000D02*
X415586Y361910D01*
X414735Y361557D01*
X414004Y360996D01*
X413443Y360265D01*
X413090Y359414D01*
X413036Y359000D01*
X416000D01*
Y361964D01*
D02*
G37*
G36*
X483964Y358000D02*
X481000D01*
Y355036D01*
X481414Y355090D01*
X482265Y355443D01*
X482996Y356004D01*
X483557Y356735D01*
X483910Y357586D01*
X483964Y358000D01*
D02*
G37*
G36*
X480000D02*
X477036D01*
X477090Y357586D01*
X477443Y356735D01*
X478004Y356004D01*
X478735Y355443D01*
X479586Y355090D01*
X480000Y355036D01*
Y358000D01*
D02*
G37*
G36*
X452964D02*
X450000D01*
Y355036D01*
X450414Y355090D01*
X451265Y355443D01*
X451996Y356004D01*
X452557Y356735D01*
X452910Y357586D01*
X452964Y358000D01*
D02*
G37*
G36*
X449000D02*
X446036D01*
X446090Y357586D01*
X446443Y356735D01*
X447004Y356004D01*
X447735Y355443D01*
X448586Y355090D01*
X449000Y355036D01*
Y358000D01*
D02*
G37*
G36*
X419964D02*
X417000D01*
Y355036D01*
X417414Y355090D01*
X418265Y355443D01*
X418996Y356004D01*
X419557Y356735D01*
X419910Y357586D01*
X419964Y358000D01*
D02*
G37*
G36*
X416000D02*
X413036D01*
X413090Y357586D01*
X413443Y356735D01*
X414004Y356004D01*
X414735Y355443D01*
X415586Y355090D01*
X416000Y355036D01*
Y358000D01*
D02*
G37*
G36*
X476000Y348530D02*
X475086Y348410D01*
X474235Y348057D01*
X473504Y347496D01*
X473153Y347039D01*
X450847D01*
X450496Y347496D01*
X449765Y348057D01*
X448914Y348410D01*
X448000Y348530D01*
X447086Y348410D01*
X446235Y348057D01*
X445504Y347496D01*
X444943Y346765D01*
X444590Y345914D01*
X444470Y345000D01*
X444590Y344086D01*
X444943Y343235D01*
X445504Y342504D01*
X446235Y341943D01*
X447086Y341590D01*
X448000Y341470D01*
X448914Y341590D01*
X449765Y341943D01*
X450496Y342504D01*
X450847Y342961D01*
X473153D01*
X473504Y342504D01*
X474235Y341943D01*
X475086Y341590D01*
X476000Y341470D01*
X476914Y341590D01*
X477765Y341943D01*
X478496Y342504D01*
X479057Y343235D01*
X479410Y344086D01*
X479530Y345000D01*
X479410Y345914D01*
X479057Y346765D01*
X478496Y347496D01*
X477765Y348057D01*
X476914Y348410D01*
X476000Y348530D01*
D02*
G37*
G36*
X331500Y346964D02*
Y344000D01*
X334464D01*
X334410Y344414D01*
X334057Y345265D01*
X333496Y345996D01*
X332765Y346557D01*
X331914Y346910D01*
X331500Y346964D01*
D02*
G37*
G36*
X330500D02*
X330086Y346910D01*
X329235Y346557D01*
X328504Y345996D01*
X327943Y345265D01*
X327590Y344414D01*
X327536Y344000D01*
X330500D01*
Y346964D01*
D02*
G37*
G36*
X246500D02*
Y344000D01*
X249464D01*
X249410Y344414D01*
X249057Y345265D01*
X248496Y345996D01*
X247765Y346557D01*
X246914Y346910D01*
X246500Y346964D01*
D02*
G37*
G36*
X245500D02*
X245086Y346910D01*
X244235Y346557D01*
X243504Y345996D01*
X242943Y345265D01*
X242590Y344414D01*
X242536Y344000D01*
X245500D01*
Y346964D01*
D02*
G37*
G36*
X161831Y346464D02*
Y343500D01*
X164795D01*
X164741Y343914D01*
X164388Y344765D01*
X163827Y345496D01*
X163096Y346057D01*
X162244Y346410D01*
X161831Y346464D01*
D02*
G37*
G36*
X160831D02*
X160417Y346410D01*
X159566Y346057D01*
X158835Y345496D01*
X158273Y344765D01*
X157921Y343914D01*
X157866Y343500D01*
X160831D01*
Y346464D01*
D02*
G37*
G36*
X334464Y343000D02*
X331500D01*
Y340036D01*
X331914Y340090D01*
X332765Y340443D01*
X333496Y341004D01*
X334057Y341735D01*
X334410Y342586D01*
X334464Y343000D01*
D02*
G37*
G36*
X330500D02*
X327536D01*
X327590Y342586D01*
X327943Y341735D01*
X328504Y341004D01*
X329235Y340443D01*
X330086Y340090D01*
X330500Y340036D01*
Y343000D01*
D02*
G37*
G36*
X249464D02*
X246500D01*
Y340036D01*
X246914Y340090D01*
X247765Y340443D01*
X248496Y341004D01*
X249057Y341735D01*
X249410Y342586D01*
X249464Y343000D01*
D02*
G37*
G36*
X245500D02*
X242536D01*
X242590Y342586D01*
X242943Y341735D01*
X243504Y341004D01*
X244235Y340443D01*
X245086Y340090D01*
X245500Y340036D01*
Y343000D01*
D02*
G37*
G36*
X164795Y342500D02*
X161831D01*
Y339536D01*
X162244Y339590D01*
X163096Y339943D01*
X163827Y340504D01*
X164388Y341235D01*
X164741Y342086D01*
X164795Y342500D01*
D02*
G37*
G36*
X160831D02*
X157866D01*
X157921Y342086D01*
X158273Y341235D01*
X158835Y340504D01*
X159566Y339943D01*
X160417Y339590D01*
X160831Y339536D01*
Y342500D01*
D02*
G37*
G36*
X524500Y271964D02*
X524086Y271910D01*
X523235Y271557D01*
X522504Y270996D01*
X521943Y270265D01*
X521590Y269414D01*
X521536Y269000D01*
X524500D01*
Y271964D01*
D02*
G37*
G36*
X504000D02*
Y269000D01*
X506964D01*
X506910Y269414D01*
X506557Y270265D01*
X505996Y270996D01*
X505265Y271557D01*
X504414Y271910D01*
X504000Y271964D01*
D02*
G37*
G36*
X503000D02*
X502586Y271910D01*
X501735Y271557D01*
X501004Y270996D01*
X500443Y270265D01*
X500090Y269414D01*
X500036Y269000D01*
X503000D01*
Y271964D01*
D02*
G37*
G36*
X482500D02*
Y269000D01*
X485464D01*
X485410Y269414D01*
X485057Y270265D01*
X484496Y270996D01*
X483765Y271557D01*
X482914Y271910D01*
X482500Y271964D01*
D02*
G37*
G36*
X481500D02*
X481086Y271910D01*
X480235Y271557D01*
X479504Y270996D01*
X478943Y270265D01*
X478590Y269414D01*
X478536Y269000D01*
X481500D01*
Y271964D01*
D02*
G37*
G36*
X461000D02*
Y269000D01*
X463964D01*
X463910Y269414D01*
X463557Y270265D01*
X462996Y270996D01*
X462265Y271557D01*
X461414Y271910D01*
X461000Y271964D01*
D02*
G37*
G36*
X460000D02*
X459586Y271910D01*
X458735Y271557D01*
X458004Y270996D01*
X457443Y270265D01*
X457090Y269414D01*
X457036Y269000D01*
X460000D01*
Y271964D01*
D02*
G37*
G36*
X440000D02*
Y269000D01*
X442964D01*
X442910Y269414D01*
X442557Y270265D01*
X441996Y270996D01*
X441265Y271557D01*
X440414Y271910D01*
X440000Y271964D01*
D02*
G37*
G36*
X439000D02*
X438586Y271910D01*
X437735Y271557D01*
X437004Y270996D01*
X436443Y270265D01*
X436090Y269414D01*
X436036Y269000D01*
X439000D01*
Y271964D01*
D02*
G37*
G36*
X418500D02*
Y269000D01*
X421464D01*
X421410Y269414D01*
X421057Y270265D01*
X420496Y270996D01*
X419765Y271557D01*
X418914Y271910D01*
X418500Y271964D01*
D02*
G37*
G36*
X417500D02*
X417086Y271910D01*
X416235Y271557D01*
X415504Y270996D01*
X414943Y270265D01*
X414590Y269414D01*
X414536Y269000D01*
X417500D01*
Y271964D01*
D02*
G37*
G36*
X524500Y268000D02*
X521536D01*
X521590Y267586D01*
X521943Y266735D01*
X522504Y266004D01*
X523235Y265443D01*
X524086Y265090D01*
X524500Y265036D01*
Y268000D01*
D02*
G37*
G36*
X506964D02*
X504000D01*
Y265036D01*
X504414Y265090D01*
X505265Y265443D01*
X505996Y266004D01*
X506557Y266735D01*
X506910Y267586D01*
X506964Y268000D01*
D02*
G37*
G36*
X503000D02*
X500036D01*
X500090Y267586D01*
X500443Y266735D01*
X501004Y266004D01*
X501735Y265443D01*
X502586Y265090D01*
X503000Y265036D01*
Y268000D01*
D02*
G37*
G36*
X485464D02*
X482500D01*
Y265036D01*
X482914Y265090D01*
X483765Y265443D01*
X484496Y266004D01*
X485057Y266735D01*
X485410Y267586D01*
X485464Y268000D01*
D02*
G37*
G36*
X481500D02*
X478536D01*
X478590Y267586D01*
X478943Y266735D01*
X479504Y266004D01*
X480235Y265443D01*
X481086Y265090D01*
X481500Y265036D01*
Y268000D01*
D02*
G37*
G36*
X463964D02*
X461000D01*
Y265036D01*
X461414Y265090D01*
X462265Y265443D01*
X462996Y266004D01*
X463557Y266735D01*
X463910Y267586D01*
X463964Y268000D01*
D02*
G37*
G36*
X460000D02*
X457036D01*
X457090Y267586D01*
X457443Y266735D01*
X458004Y266004D01*
X458735Y265443D01*
X459586Y265090D01*
X460000Y265036D01*
Y268000D01*
D02*
G37*
G36*
X442964D02*
X440000D01*
Y265036D01*
X440414Y265090D01*
X441265Y265443D01*
X441996Y266004D01*
X442557Y266735D01*
X442910Y267586D01*
X442964Y268000D01*
D02*
G37*
G36*
X439000D02*
X436036D01*
X436090Y267586D01*
X436443Y266735D01*
X437004Y266004D01*
X437735Y265443D01*
X438586Y265090D01*
X439000Y265036D01*
Y268000D01*
D02*
G37*
G36*
X421464D02*
X418500D01*
Y265036D01*
X418914Y265090D01*
X419765Y265443D01*
X420496Y266004D01*
X421057Y266735D01*
X421410Y267586D01*
X421464Y268000D01*
D02*
G37*
G36*
X417500D02*
X414536D01*
X414590Y267586D01*
X414943Y266735D01*
X415504Y266004D01*
X416235Y265443D01*
X417086Y265090D01*
X417500Y265036D01*
Y268000D01*
D02*
G37*
G36*
X427500Y240500D02*
Y235000D01*
X433000D01*
X432933Y235680D01*
X432588Y236815D01*
X432029Y237860D01*
X431277Y238777D01*
X430361Y239529D01*
X429315Y240088D01*
X428180Y240433D01*
X427500Y240500D01*
D02*
G37*
G36*
X387500D02*
Y235000D01*
X393000D01*
X392933Y235680D01*
X392588Y236815D01*
X392029Y237860D01*
X391277Y238777D01*
X390360Y239529D01*
X389315Y240088D01*
X388180Y240433D01*
X387500Y240500D01*
D02*
G37*
G36*
X347500D02*
Y235000D01*
X353000D01*
X352933Y235680D01*
X352588Y236815D01*
X352029Y237860D01*
X351277Y238777D01*
X350360Y239529D01*
X349315Y240088D01*
X348180Y240433D01*
X347500Y240500D01*
D02*
G37*
G36*
X426500D02*
X425820Y240433D01*
X424685Y240088D01*
X423639Y239529D01*
X422723Y238777D01*
X421971Y237860D01*
X421412Y236815D01*
X421067Y235680D01*
X421000Y235000D01*
X426500D01*
Y240500D01*
D02*
G37*
G36*
X386500D02*
X385820Y240433D01*
X384685Y240088D01*
X383640Y239529D01*
X382723Y238777D01*
X381971Y237860D01*
X381412Y236815D01*
X381067Y235680D01*
X381000Y235000D01*
X386500D01*
Y240500D01*
D02*
G37*
G36*
X346500D02*
X345820Y240433D01*
X344685Y240088D01*
X343639Y239529D01*
X342723Y238777D01*
X341971Y237860D01*
X341412Y236815D01*
X341067Y235680D01*
X341000Y235000D01*
X346500D01*
Y240500D01*
D02*
G37*
G36*
X433000Y234000D02*
X427500D01*
Y228500D01*
X428180Y228567D01*
X429315Y228912D01*
X430361Y229471D01*
X431277Y230223D01*
X432029Y231139D01*
X432588Y232185D01*
X432933Y233320D01*
X433000Y234000D01*
D02*
G37*
G36*
X393000D02*
X387500D01*
Y228500D01*
X388180Y228567D01*
X389315Y228912D01*
X390360Y229471D01*
X391277Y230223D01*
X392029Y231139D01*
X392588Y232185D01*
X392933Y233320D01*
X393000Y234000D01*
D02*
G37*
G36*
X353000D02*
X347500D01*
Y228500D01*
X348180Y228567D01*
X349315Y228912D01*
X350360Y229471D01*
X351277Y230223D01*
X352029Y231139D01*
X352588Y232185D01*
X352933Y233320D01*
X353000Y234000D01*
D02*
G37*
G36*
X426500D02*
X421000D01*
X421067Y233320D01*
X421412Y232185D01*
X421971Y231139D01*
X422723Y230223D01*
X423639Y229471D01*
X424685Y228912D01*
X425820Y228567D01*
X426500Y228500D01*
Y234000D01*
D02*
G37*
G36*
X386500D02*
X381000D01*
X381067Y233320D01*
X381412Y232185D01*
X381971Y231139D01*
X382723Y230223D01*
X383640Y229471D01*
X384685Y228912D01*
X385820Y228567D01*
X386500Y228500D01*
Y234000D01*
D02*
G37*
G36*
X346500D02*
X341000D01*
X341067Y233320D01*
X341412Y232185D01*
X341971Y231139D01*
X342723Y230223D01*
X343639Y229471D01*
X344685Y228912D01*
X345820Y228567D01*
X346500Y228500D01*
Y234000D01*
D02*
G37*
G36*
X447000Y240549D02*
X445820Y240433D01*
X444685Y240088D01*
X443640Y239529D01*
X442723Y238777D01*
X441971Y237860D01*
X441412Y236815D01*
X441067Y235680D01*
X440951Y234500D01*
X441067Y233320D01*
X441412Y232185D01*
X441971Y231139D01*
X442723Y230223D01*
X443640Y229471D01*
X444685Y228912D01*
X445820Y228567D01*
X447000Y228451D01*
X448180Y228567D01*
X449315Y228912D01*
X450360Y229471D01*
X451277Y230223D01*
X452029Y231139D01*
X452588Y232185D01*
X452933Y233320D01*
X453049Y234500D01*
X452933Y235680D01*
X452588Y236815D01*
X452029Y237860D01*
X451277Y238777D01*
X450360Y239529D01*
X449315Y240088D01*
X448180Y240433D01*
X447000Y240549D01*
D02*
G37*
G36*
X407000D02*
X405820Y240433D01*
X404685Y240088D01*
X403640Y239529D01*
X402723Y238777D01*
X401971Y237860D01*
X401412Y236815D01*
X401067Y235680D01*
X400951Y234500D01*
X401067Y233320D01*
X401412Y232185D01*
X401971Y231139D01*
X402723Y230223D01*
X403640Y229471D01*
X404685Y228912D01*
X405820Y228567D01*
X407000Y228451D01*
X408180Y228567D01*
X409315Y228912D01*
X410360Y229471D01*
X411277Y230223D01*
X412029Y231139D01*
X412588Y232185D01*
X412933Y233320D01*
X413049Y234500D01*
X412933Y235680D01*
X412588Y236815D01*
X412029Y237860D01*
X411277Y238777D01*
X410360Y239529D01*
X409315Y240088D01*
X408180Y240433D01*
X407000Y240549D01*
D02*
G37*
G36*
X367000D02*
X365820Y240433D01*
X364685Y240088D01*
X363639Y239529D01*
X362723Y238777D01*
X361971Y237860D01*
X361412Y236815D01*
X361067Y235680D01*
X360951Y234500D01*
X361067Y233320D01*
X361412Y232185D01*
X361971Y231139D01*
X362723Y230223D01*
X363639Y229471D01*
X364685Y228912D01*
X365820Y228567D01*
X367000Y228451D01*
X368180Y228567D01*
X369315Y228912D01*
X370360Y229471D01*
X371277Y230223D01*
X372029Y231139D01*
X372588Y232185D01*
X372933Y233320D01*
X373049Y234500D01*
X372933Y235680D01*
X372588Y236815D01*
X372029Y237860D01*
X371277Y238777D01*
X370360Y239529D01*
X369315Y240088D01*
X368180Y240433D01*
X367000Y240549D01*
D02*
G37*
G36*
X327000D02*
X325820Y240433D01*
X324685Y240088D01*
X323639Y239529D01*
X322723Y238777D01*
X321971Y237860D01*
X321412Y236815D01*
X321067Y235680D01*
X320951Y234500D01*
X321067Y233320D01*
X321412Y232185D01*
X321971Y231139D01*
X322723Y230223D01*
X323639Y229471D01*
X324685Y228912D01*
X325820Y228567D01*
X327000Y228451D01*
X328180Y228567D01*
X329315Y228912D01*
X330361Y229471D01*
X331277Y230223D01*
X332029Y231139D01*
X332588Y232185D01*
X332933Y233320D01*
X333049Y234500D01*
X332933Y235680D01*
X332588Y236815D01*
X332029Y237860D01*
X331277Y238777D01*
X330361Y239529D01*
X329315Y240088D01*
X328180Y240433D01*
X327000Y240549D01*
D02*
G37*
G36*
X553020Y240520D02*
X547500D01*
Y235000D01*
X553020D01*
Y240520D01*
D02*
G37*
G36*
X546500D02*
X540980D01*
Y235000D01*
X546500D01*
Y240520D01*
D02*
G37*
G36*
X553020Y234000D02*
X547500D01*
Y228480D01*
X553020D01*
Y234000D01*
D02*
G37*
G36*
X546500D02*
X540980D01*
Y228480D01*
X546500D01*
Y234000D01*
D02*
G37*
G36*
X527000Y240549D02*
X525820Y240433D01*
X524685Y240088D01*
X523639Y239529D01*
X522723Y238777D01*
X521971Y237860D01*
X521412Y236815D01*
X521067Y235680D01*
X520951Y234500D01*
X521067Y233320D01*
X521412Y232185D01*
X521971Y231139D01*
X522723Y230223D01*
X523639Y229471D01*
X524685Y228912D01*
X525820Y228567D01*
X527000Y228451D01*
X528180Y228567D01*
X529315Y228912D01*
X530361Y229471D01*
X531277Y230223D01*
X532029Y231139D01*
X532588Y232185D01*
X532933Y233320D01*
X533049Y234500D01*
X532933Y235680D01*
X532588Y236815D01*
X532029Y237860D01*
X531277Y238777D01*
X530361Y239529D01*
X529315Y240088D01*
X528180Y240433D01*
X527000Y240549D01*
D02*
G37*
G36*
X507000D02*
X505820Y240433D01*
X504685Y240088D01*
X503640Y239529D01*
X502723Y238777D01*
X501971Y237860D01*
X501412Y236815D01*
X501067Y235680D01*
X500951Y234500D01*
X501067Y233320D01*
X501412Y232185D01*
X501971Y231139D01*
X502723Y230223D01*
X503640Y229471D01*
X504685Y228912D01*
X505820Y228567D01*
X507000Y228451D01*
X508180Y228567D01*
X509315Y228912D01*
X510360Y229471D01*
X511277Y230223D01*
X512029Y231139D01*
X512588Y232185D01*
X512933Y233320D01*
X513049Y234500D01*
X512933Y235680D01*
X512588Y236815D01*
X512029Y237860D01*
X511277Y238777D01*
X510360Y239529D01*
X509315Y240088D01*
X508180Y240433D01*
X507000Y240549D01*
D02*
G37*
G36*
X487000D02*
X485820Y240433D01*
X484685Y240088D01*
X483639Y239529D01*
X482723Y238777D01*
X481971Y237860D01*
X481412Y236815D01*
X481067Y235680D01*
X480951Y234500D01*
X481067Y233320D01*
X481412Y232185D01*
X481971Y231139D01*
X482723Y230223D01*
X483639Y229471D01*
X484685Y228912D01*
X485820Y228567D01*
X487000Y228451D01*
X488180Y228567D01*
X489315Y228912D01*
X490360Y229471D01*
X491277Y230223D01*
X492029Y231139D01*
X492588Y232185D01*
X492933Y233320D01*
X493049Y234500D01*
X492933Y235680D01*
X492588Y236815D01*
X492029Y237860D01*
X491277Y238777D01*
X490360Y239529D01*
X489315Y240088D01*
X488180Y240433D01*
X487000Y240549D01*
D02*
G37*
G36*
X467000D02*
X465820Y240433D01*
X464685Y240088D01*
X463639Y239529D01*
X462723Y238777D01*
X461971Y237860D01*
X461412Y236815D01*
X461067Y235680D01*
X460951Y234500D01*
X461067Y233320D01*
X461412Y232185D01*
X461971Y231139D01*
X462723Y230223D01*
X463639Y229471D01*
X464685Y228912D01*
X465820Y228567D01*
X467000Y228451D01*
X468180Y228567D01*
X469315Y228912D01*
X470361Y229471D01*
X471277Y230223D01*
X472029Y231139D01*
X472588Y232185D01*
X472933Y233320D01*
X473049Y234500D01*
X472933Y235680D01*
X472588Y236815D01*
X472029Y237860D01*
X471277Y238777D01*
X470361Y239529D01*
X469315Y240088D01*
X468180Y240433D01*
X467000Y240549D01*
D02*
G37*
%LPD*%
D11*
X567500Y131000D02*
X607000D01*
X567500D02*
Y133000D01*
X166500D02*
X567500D01*
X166500Y131000D02*
Y133000D01*
X127000Y131000D02*
X166500D01*
X406500Y449000D02*
Y471000D01*
X573000Y449000D02*
Y471000D01*
X607000D02*
X607000Y131000D01*
X573000Y471000D02*
X607000D01*
X127000D02*
X406500D01*
X127000D02*
X127000Y131000D01*
D48*
X407000Y145240D02*
D03*
Y138154D02*
D03*
X367000Y145240D02*
D03*
Y138154D02*
D03*
X327000Y145240D02*
D03*
Y138154D02*
D03*
X267000Y145043D02*
D03*
Y137957D02*
D03*
X227000Y145043D02*
D03*
Y137957D02*
D03*
X187000D02*
D03*
Y145043D02*
D03*
D49*
X410543Y408000D02*
D03*
X403457D02*
D03*
D51*
X574000Y287000D02*
X597500D01*
X571750Y289250D02*
X574000Y287000D01*
X571750Y289250D02*
Y302000D01*
X505000Y373500D02*
X573000D01*
X468000Y410500D02*
X505000Y373500D01*
X468000Y410500D02*
Y431500D01*
X571500Y320000D02*
X582000D01*
X551500D02*
X571500D01*
Y302250D02*
X571750Y302000D01*
X571500Y302250D02*
Y320000D01*
X586000Y324000D02*
Y392500D01*
X582000Y320000D02*
X586000Y324000D01*
X545750Y325750D02*
X551500Y320000D01*
X522750Y325750D02*
X545750D01*
X517500Y332000D02*
X550500D01*
X558000Y324500D01*
X370500Y344000D02*
Y353500D01*
X335000Y178000D02*
X550500D01*
X581000Y327500D02*
Y388000D01*
X578000Y324500D02*
X581000Y327500D01*
X558000Y324500D02*
X578000D01*
X573500Y395500D02*
X581000Y388000D01*
X448000Y346000D02*
X449000Y345000D01*
X512000Y326500D02*
X512750Y325750D01*
X577750Y400750D02*
X586000Y392500D01*
X572500Y395500D02*
X573500D01*
X562437Y405562D02*
X572500Y395500D01*
X585328Y415000D02*
X596500D01*
X583430Y413103D02*
X585328Y415000D01*
X524753Y364247D02*
X572253D01*
X524000Y365000D02*
X524753Y364247D01*
X572253D02*
X573000Y363500D01*
X596500Y394000D02*
Y415000D01*
X540500Y406500D02*
X557500Y389500D01*
X540500Y406500D02*
Y412500D01*
X545500Y410000D02*
X564000Y391500D01*
X545500Y410000D02*
Y415000D01*
X540500Y420000D02*
X545500Y415000D01*
X577750Y400750D02*
Y416250D01*
X575500Y418500D02*
X577750Y416250D01*
X572500Y418500D02*
X575500D01*
X479882Y385882D02*
X506500Y359264D01*
Y324886D02*
Y359264D01*
X596500Y415000D02*
Y432000D01*
X537250Y321250D02*
X548500Y310000D01*
X531750Y321250D02*
X537250D01*
X472618Y386782D02*
X502000Y357400D01*
X472618Y386782D02*
Y390882D01*
X502000Y324000D02*
Y357400D01*
X417000Y145043D02*
Y159500D01*
Y145000D02*
Y145043D01*
X377000D02*
Y162000D01*
Y145000D02*
Y145043D01*
X336500D02*
Y168500D01*
X341500Y173500D01*
X407000Y145240D02*
Y163500D01*
X367000Y145240D02*
Y167500D01*
X327000Y145240D02*
Y170000D01*
X335000Y178000D01*
X276500Y219000D02*
X276750Y218750D01*
X465882Y384118D02*
X498000Y352000D01*
Y323000D02*
Y352000D01*
Y323000D02*
X567000Y254000D01*
X502000Y324000D02*
X571000Y255000D01*
X465882Y384118D02*
Y395882D01*
X563000Y190500D02*
Y252000D01*
X528000Y287000D02*
X563000Y252000D01*
X524500Y287000D02*
X528000D01*
X567000Y187500D02*
Y254000D01*
X571000Y183000D02*
Y255000D01*
X506500Y324886D02*
X575000Y256386D01*
Y179500D02*
Y256386D01*
X560500Y165000D02*
X575000Y179500D01*
X550500Y178000D02*
X563000Y190500D01*
X553000Y173500D02*
X567000Y187500D01*
X276750Y145293D02*
X277000Y145043D01*
X187000Y137957D02*
X197000D01*
X227000D02*
X237000D01*
X267000D02*
X277000D01*
X336402Y138055D02*
X336500Y137957D01*
X327098Y138055D02*
X336402D01*
X327000Y138154D02*
X327098Y138055D01*
X376902D02*
X377000Y137957D01*
X367098Y138055D02*
X376902D01*
X367000Y138154D02*
X367098Y138055D01*
X407000Y138154D02*
X407098Y138055D01*
X416902D01*
X417000Y137957D01*
X341500Y173500D02*
X553000D01*
X422500Y165000D02*
X560500D01*
X417000Y159500D02*
X422500Y165000D01*
X557000Y169000D02*
X571000Y183000D01*
X384000Y169000D02*
X557000D01*
X377000Y162000D02*
X384000Y169000D01*
X482000Y287000D02*
X524500D01*
X439500D02*
Y302500D01*
X285106Y343606D02*
X285500D01*
Y354000D01*
X200831Y343106D02*
Y347331D01*
X207500Y354000D01*
X367500D02*
X371000D01*
X285500D02*
X367000D01*
Y383000D01*
X370500Y353500D02*
X371000Y354000D01*
X395500D01*
X207500D02*
X285500D01*
X562437Y405562D02*
Y415938D01*
X512750Y325750D02*
X522750D01*
X449000Y345000D02*
X476000D01*
X395500Y354000D02*
Y354250D01*
X439500Y287000D02*
X482000D01*
D53*
X267000Y145043D02*
Y234500D01*
Y145000D02*
Y145043D01*
X187000D02*
Y234500D01*
Y145000D02*
Y145043D01*
X187000Y145043D02*
X187000Y145043D01*
X267000Y145043D02*
X267000Y145043D01*
X384500Y359000D02*
X401500D01*
X378000Y365500D02*
X384500Y359000D01*
X378000Y365500D02*
Y384000D01*
D54*
X276750Y145293D02*
Y218750D01*
X237250Y145293D02*
Y218750D01*
X237500Y219000D01*
X197000Y146000D02*
X198000Y145000D01*
X197000Y146000D02*
Y219000D01*
X237000Y145043D02*
X237250Y145293D01*
X410543Y408000D02*
X410543Y408000D01*
D55*
X227000Y145043D02*
Y234500D01*
Y145000D02*
Y145043D01*
X227000Y145043D02*
X227000Y145043D01*
D58*
X571000Y428158D02*
D03*
Y438000D02*
D03*
Y418315D02*
D03*
X217500Y319521D02*
D03*
Y280151D02*
D03*
X167500Y319521D02*
D03*
X387500D02*
D03*
Y280151D02*
D03*
X337500Y319521D02*
D03*
X302500Y321021D02*
D03*
Y281651D02*
D03*
X252500Y321021D02*
D03*
D59*
X571000Y408472D02*
D03*
X167500Y280151D02*
D03*
X337500D02*
D03*
X252500Y281651D02*
D03*
D60*
X573000Y333500D02*
D03*
X596500Y380000D02*
D03*
D61*
X573000Y343500D02*
D03*
Y353500D02*
D03*
Y363500D02*
D03*
Y373500D02*
D03*
Y383500D02*
D03*
X596500Y370000D02*
D03*
D62*
X187000Y234500D02*
D03*
X207000D02*
D03*
X227000D02*
D03*
X247000D02*
D03*
X267000D02*
D03*
X287000D02*
D03*
X307000D02*
D03*
X327000D02*
D03*
X347000D02*
D03*
X367000D02*
D03*
X387000D02*
D03*
X407000D02*
D03*
X427000D02*
D03*
X447000D02*
D03*
X467000D02*
D03*
X487000D02*
D03*
X507000D02*
D03*
X527000D02*
D03*
D63*
X547000D02*
D03*
D64*
X336661Y368512D02*
D03*
Y457488D02*
D03*
X169339Y397646D02*
D03*
X581697Y218843D02*
D03*
Y246441D02*
D03*
D65*
X169339Y428354D02*
D03*
D66*
X591500Y241500D02*
D03*
Y223783D02*
D03*
D67*
X593500Y145000D02*
D03*
Y458000D02*
D03*
X140500Y457500D02*
D03*
Y144500D02*
D03*
D68*
X577600Y263600D02*
D03*
X597500Y287000D02*
D03*
X517500Y332000D02*
D03*
X558000Y324500D02*
D03*
X583430Y413103D02*
D03*
X596500Y394000D02*
D03*
X564000Y391500D02*
D03*
X596500Y432000D02*
D03*
X486500Y408000D02*
D03*
X481248Y413618D02*
D03*
X557500Y389500D02*
D03*
X540500Y420000D02*
D03*
Y412500D02*
D03*
X531750Y321250D02*
D03*
X524000Y365000D02*
D03*
X462500Y441000D02*
D03*
X533000D02*
D03*
X468000Y431500D02*
D03*
X500500Y389500D02*
D03*
X479882Y385882D02*
D03*
X472618Y390882D02*
D03*
X465882Y395882D02*
D03*
X407000Y178000D02*
D03*
X367000D02*
D03*
X407000Y163500D02*
D03*
X367000Y167500D02*
D03*
X524500Y287000D02*
D03*
X439500Y302500D02*
D03*
X548500Y310000D02*
D03*
X276500Y219000D02*
D03*
X237500D02*
D03*
X197000D02*
D03*
X285500Y343606D02*
D03*
X200831Y343106D02*
D03*
X503500Y268500D02*
D03*
X460500D02*
D03*
X418000D02*
D03*
X400500Y429000D02*
D03*
X331000Y343500D02*
D03*
X246000D02*
D03*
X161331Y343000D02*
D03*
X370000Y344000D02*
D03*
X522750Y325750D02*
D03*
X512000D02*
D03*
X476000Y345000D02*
D03*
X448000D02*
D03*
X395500Y354000D02*
D03*
X401500Y359000D02*
D03*
X480500Y358500D02*
D03*
X571750Y302000D02*
D03*
X562437Y415938D02*
D03*
X378000Y384000D02*
D03*
X597500Y306000D02*
D03*
X482000Y287000D02*
D03*
X439500D02*
D03*
X571500Y273500D02*
D03*
X367000Y383000D02*
D03*
X525000Y268500D02*
D03*
X482000D02*
D03*
X439500D02*
D03*
X392000Y399000D02*
D03*
X353500D02*
D03*
X449500Y358500D02*
D03*
X416500D02*
D03*
Y378000D02*
D03*
Y397000D02*
D03*
Y416000D02*
D03*
D69*
X377000Y137957D02*
D03*
Y145043D02*
D03*
X417000D02*
D03*
Y137957D02*
D03*
X336500Y145043D02*
D03*
Y137957D02*
D03*
X237000Y145043D02*
D03*
Y137957D02*
D03*
X277000Y145043D02*
D03*
Y137957D02*
D03*
X197000D02*
D03*
Y145043D02*
D03*
D70*
X146500Y429000D02*
X167693D01*
X133000Y415500D02*
X146500Y429000D01*
X152646Y397646D02*
X169339D01*
X133000Y243500D02*
X142000Y234500D01*
X133000Y415500D02*
X133000Y243500D01*
X153000Y249000D02*
X200000D01*
X142000Y234500D02*
X187000D01*
X200000Y249000D02*
X207000Y242000D01*
X143500Y388500D02*
X152646Y397646D01*
X143500Y258500D02*
Y388500D01*
Y258500D02*
X153000Y249000D01*
X207000Y234500D02*
Y242000D01*
M02*
