G04*
G04 #@! TF.GenerationSoftware,Altium Limited,Altium Designer,20.0.2 (26)*
G04*
G04 Layer_Color=65535*
%FSLAX25Y25*%
%MOIN*%
G70*
G01*
G75*
%ADD10C,0.00787*%
%ADD11C,0.01000*%
%ADD12C,0.00500*%
G36*
X462086Y337943D02*
Y337783D01*
Y337623D01*
Y337463D01*
X461926D01*
Y337303D01*
Y337143D01*
Y336983D01*
Y336823D01*
X462086D01*
X462086Y336663D01*
X462246D01*
Y336503D01*
X462566D01*
Y336343D01*
X462726D01*
Y336183D01*
X463046D01*
Y336023D01*
X462886D01*
Y335863D01*
X461766D01*
Y335703D01*
X461286D01*
Y335543D01*
X461126D01*
Y335383D01*
Y335223D01*
X460966D01*
Y335063D01*
X460806Y335063D01*
Y334903D01*
X460646Y334903D01*
Y334743D01*
X460326Y334743D01*
Y334903D01*
X460166Y334903D01*
Y335063D01*
X460006D01*
Y335223D01*
X459846D01*
Y335383D01*
Y335543D01*
X459686D01*
X459686Y335703D01*
X459206D01*
Y335863D01*
X458086D01*
Y336023D01*
X457926D01*
Y336183D01*
X458246D01*
Y336343D01*
X458406D01*
Y336503D01*
X458726D01*
Y336663D01*
X458886D01*
X458886Y336823D01*
X459046D01*
Y336983D01*
Y337143D01*
Y337303D01*
Y337463D01*
X458886D01*
Y337623D01*
Y337783D01*
Y337943D01*
Y338103D01*
X459206D01*
Y337943D01*
X459686D01*
Y337783D01*
X460326Y337783D01*
Y337623D01*
X460806D01*
Y337783D01*
X461286Y337783D01*
Y337943D01*
X461766Y337943D01*
Y338103D01*
X462086D01*
Y337943D01*
D02*
G37*
G36*
X467685Y342423D02*
X467845D01*
Y342263D01*
X467845Y342103D01*
X467845Y341943D01*
X468005D01*
Y341783D01*
X468165D01*
Y341623D01*
X468325D01*
Y341463D01*
X468485D01*
Y341303D01*
X468645D01*
Y341143D01*
X468805D01*
X468805Y340983D01*
X468965D01*
X468965Y340823D01*
X469125D01*
X469125Y340663D01*
X469285D01*
Y340503D01*
X469445D01*
Y340343D01*
X469605D01*
Y340183D01*
X469765D01*
Y340023D01*
X470085D01*
Y339863D01*
X470245Y339863D01*
Y339703D01*
X470405D01*
Y339543D01*
X470565D01*
Y339383D01*
X470725D01*
Y339223D01*
X470885D01*
Y339063D01*
X471045D01*
Y338903D01*
X471205D01*
Y338743D01*
X471365D01*
Y338583D01*
X471525D01*
Y338423D01*
X471685Y338423D01*
Y338263D01*
X471845D01*
Y338103D01*
X472005D01*
Y337943D01*
X472325Y337943D01*
X472325Y338103D01*
X472485D01*
X472485Y338263D01*
X472805D01*
Y338423D01*
X472965D01*
Y338583D01*
X473125D01*
Y338743D01*
X473285D01*
Y338903D01*
X473445D01*
Y339063D01*
X473605D01*
Y339223D01*
X473765D01*
Y339383D01*
X473925D01*
Y339543D01*
X474085D01*
Y339703D01*
X474245D01*
Y339863D01*
X474405D01*
Y340023D01*
X474565D01*
Y340183D01*
X474885D01*
Y340343D01*
X475045D01*
Y340503D01*
X475205D01*
Y340663D01*
X475365D01*
Y340823D01*
X475525D01*
Y340983D01*
X475685D01*
Y341143D01*
X475845D01*
Y341303D01*
X476005D01*
Y341463D01*
X476165D01*
Y341623D01*
X476325D01*
Y341783D01*
X476485D01*
Y341943D01*
X476645D01*
Y342103D01*
Y342263D01*
Y342423D01*
X481285D01*
Y342263D01*
X480965D01*
Y342103D01*
X480645D01*
Y341943D01*
X480325Y341943D01*
Y341783D01*
X480165D01*
Y341623D01*
X480005D01*
Y341463D01*
X479845D01*
Y341303D01*
X479685D01*
Y341143D01*
X479525D01*
Y340983D01*
Y340823D01*
X479365D01*
X479365Y340663D01*
Y340503D01*
Y340343D01*
Y340183D01*
X479205D01*
Y340023D01*
Y339863D01*
Y339703D01*
Y339543D01*
Y339383D01*
Y339223D01*
Y339063D01*
Y338903D01*
Y338743D01*
Y338583D01*
Y338423D01*
Y338263D01*
Y338103D01*
Y337943D01*
Y337783D01*
Y337623D01*
Y337463D01*
Y337303D01*
Y337143D01*
Y336983D01*
Y336823D01*
X479205Y336663D01*
Y336503D01*
Y336343D01*
Y336183D01*
Y336023D01*
Y335863D01*
Y335703D01*
X479205Y335543D01*
Y335383D01*
Y335223D01*
Y335063D01*
Y334903D01*
Y334743D01*
Y334583D01*
Y334423D01*
Y334263D01*
Y334103D01*
X479365D01*
Y333943D01*
Y333783D01*
Y333623D01*
Y333463D01*
Y333303D01*
X479525Y333303D01*
Y333143D01*
Y332983D01*
Y332823D01*
X479685D01*
Y332663D01*
Y332503D01*
X479845D01*
Y332343D01*
Y332183D01*
X480005D01*
Y332023D01*
X475525D01*
Y332183D01*
X475685D01*
Y332343D01*
X475845Y332343D01*
Y332503D01*
Y332663D01*
X476005Y332663D01*
Y332823D01*
Y332983D01*
X476165Y332983D01*
Y333143D01*
Y333303D01*
Y333463D01*
Y333623D01*
X476325D01*
Y333783D01*
Y333943D01*
Y334103D01*
Y334263D01*
Y334423D01*
Y334583D01*
Y334743D01*
X476485D01*
Y334903D01*
Y335063D01*
Y335223D01*
Y335383D01*
Y335543D01*
Y335703D01*
Y335863D01*
Y336023D01*
Y336183D01*
Y336343D01*
Y336503D01*
Y336663D01*
Y336823D01*
Y336983D01*
Y337143D01*
Y337303D01*
Y337463D01*
Y337623D01*
Y337783D01*
Y337943D01*
Y338103D01*
Y338263D01*
X476165D01*
Y338103D01*
X476005Y338103D01*
Y337943D01*
X475845D01*
Y337783D01*
X475525Y337783D01*
Y337623D01*
X475365D01*
Y337463D01*
X475205D01*
Y337303D01*
X475045D01*
Y337143D01*
X474885Y337143D01*
Y336983D01*
X474725D01*
Y336823D01*
X474565D01*
X474565Y336663D01*
X474245D01*
Y336503D01*
X474085D01*
Y336343D01*
X473925D01*
Y336183D01*
X473765D01*
Y336023D01*
X473605D01*
Y335863D01*
X473445D01*
Y335703D01*
X473285D01*
Y335543D01*
X473125D01*
Y335383D01*
X472805D01*
Y335223D01*
X472645D01*
X472645Y335063D01*
X472485D01*
Y334903D01*
X472325D01*
Y334743D01*
X472165D01*
Y334903D01*
X471845D01*
Y335063D01*
X471685D01*
Y335223D01*
X471525D01*
Y335383D01*
X471365D01*
Y335543D01*
X471205D01*
Y335703D01*
X471045D01*
Y335863D01*
X470885D01*
Y336023D01*
X470725D01*
Y336183D01*
X470565D01*
Y336343D01*
X470405D01*
Y336503D01*
X470085D01*
Y336663D01*
X469925D01*
Y336823D01*
X469765D01*
Y336983D01*
X469605D01*
Y337143D01*
X469445D01*
Y337303D01*
X469285D01*
Y337463D01*
X469125D01*
Y337623D01*
X468965D01*
Y337783D01*
X468645D01*
Y337943D01*
X468485D01*
Y338103D01*
X468325D01*
Y338263D01*
X468005D01*
Y338103D01*
Y337943D01*
Y337783D01*
Y337623D01*
Y337463D01*
Y337303D01*
Y337143D01*
Y336983D01*
Y336823D01*
Y336663D01*
Y336503D01*
Y336343D01*
Y336183D01*
Y336023D01*
Y335863D01*
Y335703D01*
Y335543D01*
Y335383D01*
Y335223D01*
Y335063D01*
Y334903D01*
Y334743D01*
Y334583D01*
Y334423D01*
Y334263D01*
X468165D01*
Y334103D01*
Y333943D01*
Y333783D01*
Y333623D01*
Y333463D01*
X468325D01*
Y333303D01*
Y333143D01*
Y332983D01*
X468485D01*
Y332823D01*
Y332663D01*
X468645D01*
Y332503D01*
Y332343D01*
X468805D01*
Y332183D01*
X468965D01*
Y332023D01*
X464006D01*
Y332183D01*
X464166D01*
Y332343D01*
Y332503D01*
Y332663D01*
Y332823D01*
Y332983D01*
X464006D01*
Y333143D01*
Y333303D01*
X463846D01*
Y333463D01*
X463686Y333463D01*
Y333623D01*
Y333783D01*
X463526D01*
Y333943D01*
X463366D01*
Y334103D01*
Y334263D01*
X463206D01*
Y334423D01*
X463046D01*
X463046Y334583D01*
X462886D01*
Y334743D01*
Y334903D01*
X462726D01*
Y335063D01*
X462566D01*
X462566Y335223D01*
Y335383D01*
X462406D01*
Y335543D01*
X463366D01*
Y335703D01*
X464006D01*
Y335863D01*
X463846D01*
Y336023D01*
X463686D01*
Y336183D01*
X463366D01*
Y336343D01*
X463206D01*
Y336503D01*
X463046D01*
Y336663D01*
X462726D01*
Y336823D01*
X462566D01*
Y336983D01*
X462406D01*
X462406Y337143D01*
Y337303D01*
Y337463D01*
X462566D01*
Y337623D01*
Y337783D01*
X462566Y337943D01*
X462566Y338103D01*
X462566Y338263D01*
Y338423D01*
X462726D01*
Y338583D01*
Y338743D01*
X462246Y338743D01*
Y338583D01*
X461766D01*
Y338423D01*
X461286Y338423D01*
Y338263D01*
X460806D01*
Y338103D01*
X460166Y338103D01*
Y338263D01*
X459686Y338263D01*
Y338423D01*
X459206D01*
Y338583D01*
X458726D01*
Y338743D01*
X458246D01*
Y338583D01*
Y338423D01*
X458406D01*
Y338263D01*
X458406Y338103D01*
X458406Y337943D01*
X458406Y337783D01*
Y337623D01*
Y337463D01*
X458566D01*
Y337303D01*
Y337143D01*
X458566Y336983D01*
X458406D01*
Y336823D01*
X458246D01*
Y336663D01*
X457926D01*
Y336503D01*
X457766D01*
Y336343D01*
X457606D01*
Y336183D01*
X457286D01*
Y336023D01*
X456966D01*
Y335863D01*
Y335703D01*
X457606D01*
Y335543D01*
X458566D01*
Y335383D01*
X458406D01*
Y335223D01*
X458406Y335063D01*
X458246D01*
Y334903D01*
X458086D01*
Y334743D01*
Y334583D01*
X457926D01*
Y334423D01*
X457766D01*
Y334263D01*
Y334103D01*
X457606D01*
Y333943D01*
X457446Y333943D01*
Y333783D01*
X457286D01*
Y333623D01*
Y333463D01*
X457126Y333463D01*
Y333303D01*
X456966D01*
Y333143D01*
Y332983D01*
Y332823D01*
X456806D01*
Y332663D01*
Y332503D01*
Y332343D01*
Y332183D01*
X456966D01*
Y332023D01*
X443687D01*
Y332183D01*
X443686Y332343D01*
X443847D01*
Y332503D01*
X444006D01*
Y332663D01*
Y332823D01*
X444167D01*
Y332983D01*
X444326D01*
Y333143D01*
Y333303D01*
X444487D01*
Y333463D01*
X444647Y333463D01*
Y333623D01*
Y333783D01*
X444806D01*
Y333943D01*
X444967D01*
Y334103D01*
Y334263D01*
X445126D01*
Y334423D01*
Y334583D01*
X452326Y334583D01*
Y334743D01*
X452646D01*
Y334903D01*
X452806D01*
Y335063D01*
X452966D01*
Y335223D01*
Y335383D01*
Y335543D01*
Y335703D01*
Y335863D01*
X452806D01*
Y336023D01*
X452646D01*
Y336183D01*
X452166D01*
Y336343D01*
X446086D01*
Y336503D01*
X445446D01*
Y336663D01*
X445126D01*
Y336823D01*
X444806D01*
Y336983D01*
X444647D01*
Y337143D01*
X444487D01*
Y337303D01*
X444167D01*
Y337463D01*
Y337623D01*
X444006D01*
Y337783D01*
X443847D01*
X443847Y337943D01*
X443847Y338103D01*
X443686D01*
X443687Y338263D01*
Y338423D01*
Y338583D01*
X443527D01*
Y338743D01*
Y338903D01*
Y339063D01*
Y339223D01*
X443527Y339383D01*
X443527Y339543D01*
X443527Y339703D01*
Y339863D01*
Y340023D01*
X443527Y340183D01*
X443687D01*
Y340343D01*
Y340503D01*
Y340663D01*
X443847D01*
Y340823D01*
Y340983D01*
X444006D01*
X444007Y341143D01*
X444167D01*
Y341303D01*
X444326D01*
Y341463D01*
X444487D01*
X444487Y341623D01*
X444647D01*
Y341783D01*
X444806D01*
Y341943D01*
X445126Y341943D01*
Y342103D01*
X445446D01*
Y342263D01*
X445927D01*
Y342423D01*
X459366Y342423D01*
Y342263D01*
X459206D01*
Y342103D01*
X459046D01*
Y341943D01*
X458886D01*
Y341783D01*
Y341623D01*
X458726D01*
Y341463D01*
X458566D01*
Y341303D01*
X458406D01*
Y341143D01*
X458246D01*
Y340983D01*
Y340823D01*
X458086D01*
Y340663D01*
X457926D01*
Y340503D01*
X457766D01*
Y340343D01*
X457606D01*
Y340183D01*
X457606Y340023D01*
X457446D01*
Y339863D01*
X446726D01*
Y339703D01*
X446566D01*
Y339543D01*
X446406D01*
Y339383D01*
Y339223D01*
X446566D01*
Y339063D01*
Y338903D01*
X446886D01*
Y338743D01*
X452966Y338743D01*
Y338583D01*
X453446D01*
Y338423D01*
X453766D01*
Y338263D01*
X454086Y338263D01*
Y338103D01*
X454246D01*
Y337943D01*
X454406Y337943D01*
Y337783D01*
X454566D01*
Y337623D01*
X454726D01*
Y337463D01*
X454886D01*
Y337303D01*
X455046D01*
Y337143D01*
Y336983D01*
X455206D01*
Y336823D01*
Y336663D01*
X455366D01*
Y336503D01*
Y336343D01*
Y336183D01*
X455526D01*
Y336023D01*
X455366D01*
Y335863D01*
X455686D01*
Y336023D01*
X455846D01*
Y336183D01*
X456006D01*
Y336343D01*
Y336503D01*
X456166D01*
Y336663D01*
X456326D01*
Y336823D01*
X456486D01*
Y336983D01*
Y337143D01*
X456646D01*
Y337303D01*
X456806D01*
Y337463D01*
X456966D01*
Y337623D01*
Y337783D01*
X457126D01*
Y337943D01*
X457286Y337943D01*
X457286Y338103D01*
X457286Y338263D01*
X457446Y338263D01*
Y338423D01*
X457606Y338423D01*
Y338583D01*
X457766D01*
Y338743D01*
Y338903D01*
X457926D01*
Y339063D01*
X458086D01*
Y339223D01*
X458246D01*
Y339383D01*
Y339543D01*
X458406D01*
X458406Y339703D01*
X458566D01*
Y339863D01*
X458726D01*
Y340023D01*
X458726Y340183D01*
X458886D01*
Y340343D01*
X459046D01*
Y340503D01*
Y340663D01*
X459206D01*
X459206Y340823D01*
X459366D01*
X459366Y340983D01*
X459526D01*
Y341143D01*
Y341303D01*
X459686D01*
Y341463D01*
X459846D01*
Y341623D01*
X460006D01*
Y341783D01*
Y341943D01*
X460166D01*
Y342103D01*
X460326D01*
Y342263D01*
X460486D01*
Y342423D01*
X460646Y342423D01*
Y342263D01*
Y342103D01*
X460806D01*
Y341943D01*
X460966Y341943D01*
Y341783D01*
Y341623D01*
X461126D01*
Y341463D01*
X461286D01*
Y341303D01*
X461446D01*
Y341143D01*
Y340983D01*
X461606D01*
Y340823D01*
X461766D01*
X461766Y340663D01*
X461926D01*
Y340503D01*
Y340343D01*
X462086D01*
Y340183D01*
X462246D01*
Y340023D01*
X462406D01*
Y339863D01*
Y339703D01*
X462566D01*
X462566Y339543D01*
X462726D01*
X462726Y339383D01*
X462726Y339223D01*
X462886D01*
Y339063D01*
X463046D01*
Y338903D01*
X463206D01*
Y338743D01*
Y338583D01*
X463366D01*
Y338423D01*
X463526D01*
Y338263D01*
X463686D01*
Y338103D01*
Y337943D01*
X463846Y337943D01*
Y337783D01*
X464006D01*
Y337623D01*
X464166D01*
Y337463D01*
Y337303D01*
X464326D01*
Y337143D01*
X464486D01*
Y336983D01*
Y336823D01*
X464646D01*
Y336663D01*
X464806D01*
Y336503D01*
X464965D01*
Y336343D01*
X465126D01*
Y336183D01*
X465285D01*
Y336343D01*
Y336503D01*
Y336663D01*
Y336823D01*
Y336983D01*
Y337143D01*
Y337303D01*
Y337463D01*
Y337623D01*
Y337783D01*
Y337943D01*
Y338103D01*
Y338263D01*
Y338423D01*
Y338583D01*
Y338743D01*
Y338903D01*
Y339063D01*
Y339223D01*
Y339383D01*
Y339543D01*
Y339703D01*
Y339863D01*
Y340023D01*
Y340183D01*
Y340343D01*
Y340503D01*
Y340663D01*
Y340823D01*
Y340983D01*
X465126D01*
Y341143D01*
X464965D01*
Y341303D01*
X464806D01*
Y341463D01*
X464646D01*
Y341623D01*
X464326D01*
Y341783D01*
X464166D01*
Y341943D01*
X464006D01*
Y342103D01*
X463846D01*
Y342263D01*
X463686D01*
Y342423D01*
X463526D01*
Y342583D01*
X467685D01*
Y342423D01*
D02*
G37*
G36*
X464486Y330903D02*
Y330743D01*
X464486Y330583D01*
Y330423D01*
Y330263D01*
Y330103D01*
Y329943D01*
Y329783D01*
Y329623D01*
Y329463D01*
Y329303D01*
Y329143D01*
Y328983D01*
Y328823D01*
Y328663D01*
Y328503D01*
Y328343D01*
Y328183D01*
Y328023D01*
Y327864D01*
Y327703D01*
Y327543D01*
Y327383D01*
X463686D01*
Y327543D01*
Y327703D01*
Y327864D01*
Y328023D01*
Y328183D01*
Y328343D01*
Y328503D01*
Y328663D01*
Y328823D01*
Y328983D01*
Y329143D01*
Y329303D01*
Y329463D01*
X463526D01*
Y329303D01*
X463366D01*
Y329143D01*
X463206D01*
Y328983D01*
Y328823D01*
X463046D01*
Y328663D01*
Y328503D01*
X462886D01*
Y328343D01*
X462726D01*
Y328183D01*
X462726Y328023D01*
X462566D01*
X462566Y327864D01*
X462566Y327703D01*
X462406D01*
Y327543D01*
Y327383D01*
X461926D01*
Y327543D01*
Y327703D01*
X461766D01*
Y327864D01*
X461606Y327864D01*
Y328023D01*
Y328183D01*
X461446D01*
Y328343D01*
Y328503D01*
X461286D01*
Y328663D01*
X461126D01*
Y328823D01*
Y328983D01*
X460966D01*
Y329143D01*
Y329303D01*
X460806Y329303D01*
Y329463D01*
X460646D01*
Y329303D01*
Y329143D01*
Y328983D01*
Y328823D01*
Y328663D01*
Y328503D01*
Y328343D01*
Y328183D01*
Y328023D01*
Y327864D01*
Y327703D01*
Y327543D01*
Y327383D01*
X459846D01*
Y327543D01*
Y327703D01*
Y327864D01*
Y328023D01*
Y328183D01*
Y328343D01*
Y328503D01*
Y328663D01*
Y328823D01*
Y328983D01*
Y329143D01*
Y329303D01*
Y329463D01*
Y329623D01*
Y329783D01*
Y329943D01*
Y330103D01*
Y330263D01*
Y330423D01*
Y330583D01*
Y330743D01*
Y330903D01*
Y331063D01*
X460646D01*
Y330903D01*
X460806D01*
Y330743D01*
X460966D01*
Y330583D01*
Y330423D01*
X461126D01*
Y330263D01*
Y330103D01*
X461286D01*
Y329943D01*
X461446D01*
Y329783D01*
Y329623D01*
X461606D01*
Y329463D01*
Y329303D01*
X461766D01*
Y329143D01*
X461926D01*
Y328983D01*
Y328823D01*
Y328663D01*
X462246D01*
Y328823D01*
X462406D01*
Y328983D01*
Y329143D01*
X462566D01*
X462566Y329303D01*
X462566Y329463D01*
X462726D01*
X462726Y329623D01*
X462886D01*
Y329783D01*
Y329943D01*
X463046D01*
Y330103D01*
Y330263D01*
X463206D01*
Y330423D01*
X463366D01*
Y330583D01*
Y330743D01*
X463526D01*
Y330903D01*
Y331063D01*
X464486D01*
Y330903D01*
D02*
G37*
G36*
X475205D02*
Y330743D01*
Y330583D01*
Y330423D01*
Y330263D01*
Y330103D01*
Y329943D01*
Y329783D01*
Y329623D01*
Y329463D01*
Y329303D01*
Y329143D01*
Y328983D01*
Y328823D01*
Y328663D01*
Y328503D01*
Y328343D01*
Y328183D01*
Y328023D01*
Y327864D01*
Y327703D01*
Y327543D01*
Y327383D01*
X474085Y327383D01*
Y327543D01*
X473925D01*
Y327703D01*
X473765D01*
Y327864D01*
X473605D01*
Y328023D01*
X473445D01*
Y328183D01*
X473285D01*
Y328343D01*
X473125D01*
Y328503D01*
X472965D01*
Y328663D01*
X472805D01*
Y328823D01*
X472645D01*
Y328983D01*
X472485D01*
Y329143D01*
X472325D01*
X472325Y329303D01*
X472165D01*
X472165Y329463D01*
X472005Y329463D01*
Y329623D01*
X471845D01*
Y329783D01*
X471685D01*
Y329943D01*
X471525D01*
Y330103D01*
X471365D01*
Y329943D01*
Y329783D01*
Y329623D01*
Y329463D01*
Y329303D01*
Y329143D01*
Y328983D01*
Y328823D01*
Y328663D01*
Y328503D01*
Y328343D01*
Y328183D01*
Y328023D01*
Y327864D01*
Y327703D01*
Y327543D01*
Y327383D01*
X470565Y327383D01*
Y327543D01*
Y327703D01*
Y327864D01*
Y328023D01*
Y328183D01*
Y328343D01*
Y328503D01*
Y328663D01*
Y328823D01*
Y328983D01*
Y329143D01*
Y329303D01*
Y329463D01*
Y329623D01*
Y329783D01*
Y329943D01*
Y330103D01*
Y330263D01*
Y330423D01*
Y330583D01*
Y330743D01*
Y330903D01*
Y331063D01*
X471525D01*
Y330903D01*
X471685D01*
Y330743D01*
X471845D01*
X471845Y330583D01*
X472005D01*
Y330423D01*
X472165D01*
X472165Y330263D01*
X472325D01*
Y330103D01*
X472485D01*
Y329943D01*
X472645D01*
Y329783D01*
X472805D01*
Y329623D01*
X472965D01*
X472965Y329463D01*
X473125D01*
X473125Y329303D01*
X473285D01*
Y329143D01*
X473445D01*
Y328983D01*
X473605Y328983D01*
Y328823D01*
X473765D01*
Y328663D01*
X473925D01*
Y328503D01*
X474085D01*
Y328343D01*
X474245D01*
Y328183D01*
X474405D01*
Y328343D01*
Y328503D01*
Y328663D01*
Y328823D01*
Y328983D01*
Y329143D01*
Y329303D01*
Y329463D01*
Y329623D01*
Y329783D01*
Y329943D01*
Y330103D01*
Y330263D01*
Y330423D01*
Y330583D01*
Y330743D01*
Y330903D01*
Y331063D01*
X475205D01*
Y330903D01*
D02*
G37*
G36*
X450566D02*
Y330743D01*
Y330583D01*
Y330423D01*
Y330263D01*
Y330103D01*
Y329943D01*
Y329783D01*
Y329623D01*
Y329463D01*
Y329303D01*
Y329143D01*
Y328983D01*
Y328823D01*
Y328663D01*
Y328503D01*
Y328343D01*
Y328183D01*
Y328023D01*
X454406Y328023D01*
Y327864D01*
X454246Y327864D01*
Y327703D01*
Y327543D01*
X454406D01*
Y327383D01*
X449766D01*
Y327543D01*
X449606D01*
Y327703D01*
Y327864D01*
Y328023D01*
Y328183D01*
Y328343D01*
Y328503D01*
Y328663D01*
Y328823D01*
Y328983D01*
Y329143D01*
Y329303D01*
Y329463D01*
Y329623D01*
Y329783D01*
Y329943D01*
Y330103D01*
Y330263D01*
Y330423D01*
Y330583D01*
Y330743D01*
Y330903D01*
Y331063D01*
X450566D01*
Y330903D01*
D02*
G37*
G36*
X480645D02*
Y330743D01*
Y330583D01*
Y330423D01*
X479045D01*
Y330263D01*
X478725D01*
Y330103D01*
Y329943D01*
Y329783D01*
Y329623D01*
Y329463D01*
Y329303D01*
Y329143D01*
Y328983D01*
Y328823D01*
Y328663D01*
Y328503D01*
Y328343D01*
Y328183D01*
Y328023D01*
Y327864D01*
Y327703D01*
Y327543D01*
X478885D01*
Y327383D01*
X477925D01*
Y327543D01*
Y327703D01*
X477925Y327864D01*
X477925Y328023D01*
X477925Y328183D01*
Y328343D01*
Y328503D01*
Y328663D01*
Y328823D01*
Y328983D01*
Y329143D01*
X477925Y329303D01*
X477925Y329463D01*
X477925Y329623D01*
Y329783D01*
Y329943D01*
Y330103D01*
Y330263D01*
X477765D01*
X477765Y330423D01*
X476005D01*
Y330583D01*
Y330743D01*
Y330903D01*
Y331063D01*
X480645D01*
Y330903D01*
D02*
G37*
G36*
X459366D02*
X459206D01*
Y330743D01*
X459206Y330583D01*
X459366D01*
Y330423D01*
X455686D01*
Y330263D01*
X455526D01*
Y330103D01*
X455366Y330103D01*
Y329943D01*
Y329783D01*
Y329623D01*
Y329463D01*
X458566D01*
X458566Y329303D01*
X458566Y329143D01*
Y328983D01*
Y328823D01*
X455366D01*
Y328663D01*
Y328503D01*
Y328343D01*
Y328183D01*
X455526D01*
Y328023D01*
X459366Y328023D01*
Y327864D01*
X459206D01*
Y327703D01*
Y327543D01*
X459366D01*
Y327383D01*
X454726D01*
Y327543D01*
X454566D01*
Y327703D01*
Y327864D01*
Y328023D01*
Y328183D01*
Y328343D01*
Y328503D01*
Y328663D01*
Y328823D01*
Y328983D01*
Y329143D01*
Y329303D01*
Y329463D01*
Y329623D01*
Y329783D01*
Y329943D01*
Y330103D01*
Y330263D01*
Y330423D01*
Y330583D01*
Y330743D01*
Y330903D01*
X454886D01*
Y331063D01*
X459366D01*
Y330903D01*
D02*
G37*
G36*
X449126D02*
Y330743D01*
X449126Y330583D01*
Y330423D01*
X445446D01*
Y330263D01*
X445287Y330263D01*
Y330103D01*
Y329943D01*
Y329783D01*
Y329623D01*
Y329463D01*
X448326D01*
X448326Y329303D01*
X448326Y329143D01*
Y328983D01*
Y328823D01*
X445287D01*
Y328663D01*
Y328503D01*
Y328343D01*
Y328183D01*
Y328023D01*
X449126D01*
Y327864D01*
Y327703D01*
Y327543D01*
Y327383D01*
X444487D01*
Y327543D01*
Y327703D01*
Y327864D01*
Y328023D01*
Y328183D01*
Y328343D01*
Y328503D01*
Y328663D01*
Y328823D01*
Y328983D01*
Y329143D01*
Y329303D01*
Y329463D01*
Y329623D01*
Y329783D01*
Y329943D01*
Y330103D01*
Y330263D01*
Y330423D01*
Y330583D01*
X444487Y330743D01*
Y330903D01*
X444806D01*
Y331063D01*
X449126D01*
Y330903D01*
D02*
G37*
G36*
X470085D02*
Y330743D01*
Y330583D01*
Y330423D01*
X466405D01*
Y330263D01*
X466085D01*
Y330103D01*
Y329943D01*
Y329783D01*
Y329623D01*
Y329463D01*
X469285Y329463D01*
Y329303D01*
Y329143D01*
Y328983D01*
Y328823D01*
X466085D01*
Y328663D01*
Y328503D01*
Y328343D01*
Y328183D01*
X466246D01*
Y328023D01*
X470085D01*
Y327864D01*
Y327703D01*
Y327543D01*
Y327383D01*
X465446Y327383D01*
Y327543D01*
X465285Y327543D01*
Y327703D01*
Y327864D01*
Y328023D01*
Y328183D01*
Y328343D01*
Y328503D01*
Y328663D01*
Y328823D01*
Y328983D01*
Y329143D01*
Y329303D01*
Y329463D01*
Y329623D01*
Y329783D01*
Y329943D01*
Y330103D01*
Y330263D01*
Y330423D01*
Y330583D01*
Y330743D01*
Y330903D01*
X465605D01*
Y331063D01*
X470085D01*
Y330903D01*
D02*
G37*
D10*
X571394Y395677D02*
G03*
X571394Y395677I-394J0D01*
G01*
X588535Y410618D02*
G03*
X588535Y410618I-394J0D01*
G01*
X605252Y434882D02*
G03*
X605252Y434882I-394J0D01*
G01*
X544894Y296823D02*
G03*
X544894Y296823I-394J0D01*
G01*
X547394Y246311D02*
G03*
X547394Y246311I-394J0D01*
G01*
X363878Y405725D02*
G03*
X363878Y405725I-394J0D01*
G01*
X153512Y422843D02*
G03*
X153512Y422843I-394J0D01*
G01*
X294177Y251000D02*
G03*
X294177Y251000I-394J0D01*
G01*
X167697Y259678D02*
G03*
X167697Y259678I-394J0D01*
G01*
X213677Y251000D02*
G03*
X213677Y251000I-394J0D01*
G01*
X253677D02*
G03*
X253677Y251000I-394J0D01*
G01*
X337697Y259678D02*
G03*
X337697Y259678I-394J0D01*
G01*
X252697Y261178D02*
G03*
X252697Y261178I-394J0D01*
G01*
X568000Y388500D02*
X578000D01*
X568000Y328500D02*
X578000D01*
X568000D02*
Y388500D01*
X578000Y328500D02*
Y388500D01*
X391047Y421925D02*
Y425075D01*
X396953Y421925D02*
Y425075D01*
X591500Y365000D02*
X601500D01*
X591500D02*
Y385000D01*
X601500D01*
Y365000D02*
Y385000D01*
X594138Y422000D02*
X598862D01*
X552000Y394388D02*
Y399112D01*
X425500Y432638D02*
Y437362D01*
X150138Y300500D02*
X154862D01*
X150138Y276500D02*
X154862D01*
X318138D02*
X322862D01*
X318138Y300500D02*
X322862D01*
X552500Y375263D02*
Y379987D01*
Y356138D02*
Y360862D01*
X552000Y413513D02*
Y418237D01*
Y432638D02*
Y437362D01*
X520609Y356138D02*
Y360862D01*
X425500Y356138D02*
Y360862D01*
X459179Y356138D02*
Y360862D01*
X489894Y356138D02*
Y360862D01*
X425500Y375263D02*
Y379987D01*
Y413513D02*
Y418237D01*
X381500Y396638D02*
Y401362D01*
X363500Y396638D02*
Y401362D01*
X406425Y284047D02*
X409575D01*
X406425Y289953D02*
X409575D01*
X449655Y284047D02*
X452805D01*
X449655Y289953D02*
X452805D01*
X471900Y266651D02*
Y271375D01*
X491425Y284047D02*
X494575D01*
X491425Y289953D02*
X494575D01*
X514500Y284638D02*
Y289362D01*
X429300Y284638D02*
Y289362D01*
X514500Y266151D02*
Y270875D01*
X493200Y266151D02*
Y270875D01*
X471900Y284638D02*
Y289362D01*
X450600Y266651D02*
Y271375D01*
X429300Y267151D02*
Y271875D01*
X408000Y267151D02*
Y271875D01*
X360713Y341138D02*
Y345862D01*
X341000Y341138D02*
Y345862D01*
X380425Y346453D02*
X383575D01*
X380425Y340547D02*
X383575D01*
X295425Y348104D02*
X298575D01*
X295425Y342199D02*
X298575D01*
X425500Y394388D02*
Y399112D01*
X535625Y303638D02*
Y308362D01*
Y284638D02*
Y289362D01*
Y266138D02*
Y270862D01*
X587043Y303638D02*
Y308362D01*
Y284638D02*
Y289362D01*
Y266138D02*
Y270862D01*
X275713Y342789D02*
Y347514D01*
X256000Y342789D02*
Y347514D01*
X232638Y300500D02*
X237362D01*
X232638Y276500D02*
X237362D01*
X210756Y346604D02*
X213906D01*
X210756Y340699D02*
X213906D01*
X191043Y341289D02*
Y346014D01*
X171331Y341289D02*
Y346014D01*
D11*
X603342Y145000D02*
G03*
X603342Y145000I-9843J0D01*
G01*
Y458000D02*
G03*
X603342Y458000I-9843J0D01*
G01*
X150343Y457500D02*
G03*
X150343Y457500I-9843J0D01*
G01*
Y144500D02*
G03*
X150343Y144500I-9843J0D01*
G01*
X560500Y206500D02*
X567500D01*
X166500D02*
X173500D01*
X127000Y131000D02*
X166500D01*
Y133000D01*
X567500D01*
Y131000D02*
Y133000D01*
Y131000D02*
X607000D01*
X406500Y449000D02*
X573000D01*
X127000Y471000D02*
X127000Y131000D01*
X127000Y471000D02*
X406500D01*
Y449000D02*
Y471000D01*
X573000Y449000D02*
Y471000D01*
X607000D01*
X607000Y131000D01*
X547000Y147000D02*
Y150000D01*
X513000Y150500D02*
X527000D01*
Y147000D02*
Y150000D01*
X467000Y147000D02*
Y150500D01*
X481000D01*
X447000Y147000D02*
Y150500D01*
X406000D02*
X407000D01*
X427000D02*
X428000D01*
Y147000D02*
Y150500D01*
X406000Y147000D02*
Y150500D01*
X366000Y147000D02*
Y150500D01*
X388000Y147000D02*
Y150500D01*
X387000D02*
X388000D01*
X366000D02*
X367000D01*
X325500D02*
X327250D01*
X345750D02*
X347500D01*
Y147000D02*
Y150500D01*
X325500Y147000D02*
Y150500D01*
X307000Y147000D02*
Y150500D01*
X267000Y147000D02*
Y150500D01*
X287000Y147000D02*
Y150500D01*
X284000D02*
X287000D01*
X267000D02*
X270000D01*
X227000D02*
X229500D01*
X244500D02*
X247000D01*
Y147000D02*
Y150500D01*
X227000Y147000D02*
Y150500D01*
X187000Y147000D02*
Y149500D01*
X207000Y147000D02*
Y150500D01*
X203000D02*
X207000D01*
X187000Y149500D02*
Y150500D01*
X191000D01*
X166500Y133000D02*
Y206500D01*
X166457D02*
X166500D01*
X567500Y133000D02*
Y206500D01*
X579001Y351000D02*
Y352999D01*
Y352000D01*
X582000D01*
X579001Y353999D02*
X582000Y355998D01*
X579001D02*
X582000Y353999D01*
Y341500D02*
X579001D01*
Y343000D01*
X579501Y343499D01*
X580501D01*
X581000Y343000D01*
Y341500D01*
Y342500D02*
X582000Y343499D01*
X579001Y344499D02*
X582000Y346498D01*
X579001D02*
X582000Y344499D01*
X579501Y331499D02*
X579001Y330999D01*
Y330000D01*
X579501Y329500D01*
X581500D01*
X582000Y330000D01*
Y330999D01*
X581500Y331499D01*
X580501D01*
Y330500D01*
X582000Y332499D02*
X579001D01*
X582000Y334498D01*
X579001D01*
Y335498D02*
X582000D01*
Y336998D01*
X581500Y337497D01*
X579501D01*
X579001Y336998D01*
Y335498D01*
X594999Y389499D02*
X594499Y389999D01*
X593500D01*
X593000Y389499D01*
Y388999D01*
X593500Y388499D01*
X594499D01*
X594999Y388000D01*
Y387500D01*
X594499Y387000D01*
X593500D01*
X593000Y387500D01*
X595999Y389999D02*
Y387000D01*
X596999Y388000D01*
X597998Y387000D01*
Y389999D01*
X600997Y387000D02*
X598998D01*
X600997Y388999D01*
Y389499D01*
X600498Y389999D01*
X599498D01*
X598998Y389499D01*
X390500Y414500D02*
Y415000D01*
X391000D01*
Y414500D01*
X390500D01*
X484000Y290000D02*
Y290500D01*
X484500D01*
Y290000D01*
X484000D01*
X442500D02*
Y290500D01*
X443000D01*
Y290000D01*
X442500D01*
X399000D02*
Y290500D01*
X399500D01*
Y290000D01*
X399000D01*
X373000Y346500D02*
Y347000D01*
X373500D01*
Y346500D01*
X373000D01*
X288000D02*
Y347000D01*
X288500D01*
Y346500D01*
X288000D01*
X203331Y346000D02*
Y346500D01*
X203831D01*
Y346000D01*
X203331D01*
X437000Y308500D02*
X438000Y307500D01*
X439999D01*
X440999Y308500D01*
Y312498D01*
X439999Y313498D01*
X438000D01*
X437000Y312498D01*
Y311499D01*
X438000Y310499D01*
X440999D01*
X442998Y307500D02*
X446997Y311499D01*
X448996Y307500D02*
X450995D01*
X449996D01*
Y313498D01*
X448996Y312498D01*
X453995Y308500D02*
X454994Y307500D01*
X456993D01*
X457993Y308500D01*
Y312498D01*
X456993Y313498D01*
X454994D01*
X453995Y312498D01*
Y311499D01*
X454994Y310499D01*
X457993D01*
X459993Y307500D02*
X463991Y311499D01*
X469989Y307500D02*
X465991D01*
X469989Y311499D01*
Y312498D01*
X468990Y313498D01*
X466990D01*
X465991Y312498D01*
X471989D02*
X472988Y313498D01*
X474988D01*
X475987Y312498D01*
Y308500D01*
X474988Y307500D01*
X472988D01*
X471989Y308500D01*
Y312498D01*
X481986Y307500D02*
X477987D01*
X481986Y311499D01*
Y312498D01*
X480986Y313498D01*
X478986D01*
X477987Y312498D01*
X486984Y307500D02*
Y313498D01*
X483985Y310499D01*
X487984D01*
X412499Y323998D02*
X408500D01*
Y318000D01*
X412499D01*
X408500Y320999D02*
X410499D01*
X414498Y318000D02*
Y321999D01*
X417497D01*
X418497Y320999D01*
Y318000D01*
X423495D02*
X421496D01*
X420496Y319000D01*
Y320999D01*
X421496Y321999D01*
X423495D01*
X424495Y320999D01*
Y319999D01*
X420496D01*
X426494Y321999D02*
Y318000D01*
Y319999D01*
X427494Y320999D01*
X428493Y321999D01*
X429493D01*
X434492Y316001D02*
X435491D01*
X436491Y317000D01*
Y321999D01*
X433492D01*
X432492Y320999D01*
Y319000D01*
X433492Y318000D01*
X436491D01*
X438490Y321999D02*
Y319000D01*
X439490Y318000D01*
X442489D01*
Y317000D01*
X441489Y316001D01*
X440490D01*
X442489Y318000D02*
Y321999D01*
X450486Y318000D02*
Y323998D01*
X452486Y321999D01*
X454485Y323998D01*
Y318000D01*
X457484D02*
X459483D01*
X460483Y319000D01*
Y320999D01*
X459483Y321999D01*
X457484D01*
X456485Y320999D01*
Y319000D01*
X457484Y318000D01*
X462483D02*
Y321999D01*
X465482D01*
X466481Y320999D01*
Y318000D01*
X468481D02*
X470480D01*
X469480D01*
Y321999D01*
X468481D01*
X474479Y322998D02*
Y321999D01*
X473479D01*
X475478D01*
X474479D01*
Y319000D01*
X475478Y318000D01*
X479477D02*
X481476D01*
X482476Y319000D01*
Y320999D01*
X481476Y321999D01*
X479477D01*
X478477Y320999D01*
Y319000D01*
X479477Y318000D01*
X484475Y321999D02*
Y318000D01*
Y319999D01*
X485475Y320999D01*
X486475Y321999D01*
X487474D01*
X496472D02*
X498471Y318000D01*
X500470Y321999D01*
X502470Y318000D02*
X504469D01*
X503469D01*
Y323998D01*
X502470Y322998D01*
X507468Y318000D02*
Y319000D01*
X508468D01*
Y318000D01*
X507468D01*
X512466Y322998D02*
X513466Y323998D01*
X515465D01*
X516465Y322998D01*
Y319000D01*
X515465Y318000D01*
X513466D01*
X512466Y319000D01*
Y322998D01*
X580501Y378000D02*
Y379999D01*
X579501Y379000D02*
X581500D01*
X579501Y380999D02*
X579001Y381499D01*
Y382499D01*
X579501Y382998D01*
X580001D01*
X580501Y382499D01*
Y381999D01*
Y382499D01*
X581000Y382998D01*
X581500D01*
X582000Y382499D01*
Y381499D01*
X581500Y380999D01*
X580001Y383998D02*
X582000Y384998D01*
X580001Y385997D01*
X579501Y386997D02*
X579001Y387497D01*
Y388497D01*
X579501Y388996D01*
X580001D01*
X580501Y388497D01*
Y387997D01*
Y388497D01*
X581000Y388996D01*
X581500D01*
X582000Y388497D01*
Y387497D01*
X581500Y386997D01*
X579001Y372999D02*
Y371000D01*
X582000D01*
Y372999D01*
X580501Y371000D02*
Y372000D01*
X582000Y373999D02*
X579001D01*
X582000Y375998D01*
X579001D01*
Y358000D02*
X582000D01*
Y359500D01*
X581500Y359999D01*
X581000D01*
X580501Y359500D01*
Y358000D01*
Y359500D01*
X580001Y359999D01*
X579501D01*
X579001Y359500D01*
Y358000D01*
Y362498D02*
Y361499D01*
X579501Y360999D01*
X581500D01*
X582000Y361499D01*
Y362498D01*
X581500Y362998D01*
X579501D01*
X579001Y362498D01*
Y365498D02*
Y364498D01*
X579501Y363998D01*
X581500D01*
X582000Y364498D01*
Y365498D01*
X581500Y365997D01*
X579501D01*
X579001Y365498D01*
Y366997D02*
Y368996D01*
Y367997D01*
X582000D01*
X542999Y141498D02*
X541999Y142498D01*
X540000D01*
X539000Y141498D01*
Y137500D01*
X540000Y136500D01*
X541999D01*
X542999Y137500D01*
Y139499D01*
X540999D01*
X544998Y136500D02*
Y142498D01*
X548997Y136500D01*
Y142498D01*
X550996D02*
Y136500D01*
X553995D01*
X554995Y137500D01*
Y141498D01*
X553995Y142498D01*
X550996D01*
X505000Y136500D02*
Y140499D01*
X506999Y142498D01*
X508999Y140499D01*
Y136500D01*
Y139499D01*
X505000D01*
X525000Y142498D02*
Y136500D01*
X527999D01*
X528999Y137500D01*
Y138499D01*
X527999Y139499D01*
X525000D01*
X527999D01*
X528999Y140499D01*
Y141498D01*
X527999Y142498D01*
X525000D01*
X485000D02*
Y136500D01*
X487999D01*
X488999Y137500D01*
Y138499D01*
X487999Y139499D01*
X485000D01*
X487999D01*
X488999Y140499D01*
Y141498D01*
X487999Y142498D01*
X485000D01*
X465000Y136500D02*
Y140499D01*
X466999Y142498D01*
X468999Y140499D01*
Y136500D01*
Y139499D01*
X465000D01*
X483000Y147500D02*
Y153498D01*
X485999D01*
X486999Y152498D01*
Y150499D01*
X485999Y149499D01*
X483000D01*
X484999D02*
X486999Y147500D01*
X492997Y152498D02*
X491997Y153498D01*
X489998D01*
X488998Y152498D01*
Y151499D01*
X489998Y150499D01*
X491997D01*
X492997Y149499D01*
Y148500D01*
X491997Y147500D01*
X489998D01*
X488998Y148500D01*
X497995Y147500D02*
Y153498D01*
X494996Y150499D01*
X498995D01*
X500994Y152498D02*
X501994Y153498D01*
X503993D01*
X504993Y152498D01*
Y151499D01*
X503993Y150499D01*
X504993Y149499D01*
Y148500D01*
X503993Y147500D01*
X501994D01*
X500994Y148500D01*
Y149499D01*
X501994Y150499D01*
X500994Y151499D01*
Y152498D01*
X501994Y150499D02*
X503993D01*
X510991Y153498D02*
X506992D01*
Y150499D01*
X508992Y151499D01*
X509991D01*
X510991Y150499D01*
Y148500D01*
X509991Y147500D01*
X507992D01*
X506992Y148500D01*
X442000Y136500D02*
Y142498D01*
X445999Y136500D01*
Y142498D01*
X451997Y141498D02*
X450997Y142498D01*
X448998D01*
X447998Y141498D01*
Y137500D01*
X448998Y136500D01*
X450997D01*
X451997Y137500D01*
X412999Y152498D02*
X411999Y153498D01*
X410000D01*
X409000Y152498D01*
Y148500D01*
X410000Y147500D01*
X411999D01*
X412999Y148500D01*
X414998Y153498D02*
X418997D01*
X416997D01*
Y147500D01*
X420996Y152498D02*
X421996Y153498D01*
X423995D01*
X424995Y152498D01*
Y151499D01*
X423995Y150499D01*
X422996D01*
X423995D01*
X424995Y149499D01*
Y148500D01*
X423995Y147500D01*
X421996D01*
X420996Y148500D01*
X407499Y141498D02*
X406499Y142498D01*
X404500D01*
X403500Y141498D01*
Y140499D01*
X404500Y139499D01*
X406499D01*
X407499Y138499D01*
Y137500D01*
X406499Y136500D01*
X404500D01*
X403500Y137500D01*
X409498Y136500D02*
X411497D01*
X410498D01*
Y142498D01*
X409498Y141498D01*
X426499D02*
X425499Y142498D01*
X423500D01*
X422500Y141498D01*
Y140499D01*
X423500Y139499D01*
X425499D01*
X426499Y138499D01*
Y137500D01*
X425499Y136500D01*
X423500D01*
X422500Y137500D01*
X432497Y136500D02*
X428498D01*
X432497Y140499D01*
Y141498D01*
X431497Y142498D01*
X429498D01*
X428498Y141498D01*
X386499D02*
X385499Y142498D01*
X383500D01*
X382500Y141498D01*
Y140499D01*
X383500Y139499D01*
X385499D01*
X386499Y138499D01*
Y137500D01*
X385499Y136500D01*
X383500D01*
X382500Y137500D01*
X392497Y136500D02*
X388498D01*
X392497Y140499D01*
Y141498D01*
X391497Y142498D01*
X389498D01*
X388498Y141498D01*
X367499D02*
X366499Y142498D01*
X364500D01*
X363500Y141498D01*
Y140499D01*
X364500Y139499D01*
X366499D01*
X367499Y138499D01*
Y137500D01*
X366499Y136500D01*
X364500D01*
X363500Y137500D01*
X369498Y136500D02*
X371497D01*
X370498D01*
Y142498D01*
X369498Y141498D01*
X372999Y152498D02*
X371999Y153498D01*
X370000D01*
X369000Y152498D01*
Y148500D01*
X370000Y147500D01*
X371999D01*
X372999Y148500D01*
X374998Y153498D02*
X378997D01*
X376997D01*
Y147500D01*
X384995D02*
X380996D01*
X384995Y151499D01*
Y152498D01*
X383995Y153498D01*
X381996D01*
X380996Y152498D01*
X333499D02*
X332499Y153498D01*
X330500D01*
X329500Y152498D01*
Y148500D01*
X330500Y147500D01*
X332499D01*
X333499Y148500D01*
X335498Y153498D02*
X339497D01*
X337497D01*
Y147500D01*
X341496D02*
X343495D01*
X342496D01*
Y153498D01*
X341496Y152498D01*
X326999Y141498D02*
X325999Y142498D01*
X324000D01*
X323000Y141498D01*
Y140499D01*
X324000Y139499D01*
X325999D01*
X326999Y138499D01*
Y137500D01*
X325999Y136500D01*
X324000D01*
X323000Y137500D01*
X328998Y136500D02*
X330997D01*
X329998D01*
Y142498D01*
X328998Y141498D01*
X345999D02*
X344999Y142498D01*
X343000D01*
X342000Y141498D01*
Y140499D01*
X343000Y139499D01*
X344999D01*
X345999Y138499D01*
Y137500D01*
X344999Y136500D01*
X343000D01*
X342000Y137500D01*
X351997Y136500D02*
X347998D01*
X351997Y140499D01*
Y141498D01*
X350997Y142498D01*
X348998D01*
X347998Y141498D01*
X302000Y136500D02*
Y142498D01*
X305999Y136500D01*
Y142498D01*
X311997Y141498D02*
X310997Y142498D01*
X308998D01*
X307998Y141498D01*
Y137500D01*
X308998Y136500D01*
X310997D01*
X311997Y137500D01*
X285000Y136500D02*
Y142498D01*
X288999Y136500D01*
Y142498D01*
X265000D02*
Y136500D01*
X268999D01*
X272000Y153498D02*
Y149499D01*
X273999Y147500D01*
X275999Y149499D01*
Y153498D01*
X277998Y152498D02*
X278998Y153498D01*
X280997D01*
X281997Y152498D01*
Y151499D01*
X280997Y150499D01*
X279997D01*
X280997D01*
X281997Y149499D01*
Y148500D01*
X280997Y147500D01*
X278998D01*
X277998Y148500D01*
X232000Y153498D02*
Y149499D01*
X233999Y147500D01*
X235999Y149499D01*
Y153498D01*
X241997Y147500D02*
X237998D01*
X241997Y151499D01*
Y152498D01*
X240997Y153498D01*
X238998D01*
X237998Y152498D01*
X225000Y142498D02*
Y136500D01*
X228999D01*
X245000D02*
Y142498D01*
X248999Y136500D01*
Y142498D01*
X205000Y136500D02*
Y142498D01*
X208999Y136500D01*
Y142498D01*
X185000D02*
Y136500D01*
X188999D01*
X193000Y153498D02*
Y149499D01*
X194999Y147500D01*
X196999Y149499D01*
Y153498D01*
X198998Y147500D02*
X200997D01*
X199998D01*
Y153498D01*
X198998Y152498D01*
X590834Y395166D02*
X588168D01*
X587501Y394499D01*
Y393166D01*
X588168Y392500D01*
X590834D01*
X591500Y393166D01*
Y394499D01*
X590167Y393833D02*
X591500Y395166D01*
Y394499D02*
X590834Y395166D01*
X591500Y399165D02*
Y396499D01*
X588834Y399165D01*
X588168D01*
X587501Y398498D01*
Y397165D01*
X588168Y396499D01*
X590834Y434166D02*
X588168D01*
X587501Y433499D01*
Y432166D01*
X588168Y431500D01*
X590834D01*
X591500Y432166D01*
Y433499D01*
X590167Y432833D02*
X591500Y434166D01*
Y433499D02*
X590834Y434166D01*
X591500Y435499D02*
Y436832D01*
Y436165D01*
X587501D01*
X588168Y435499D01*
X591500Y412000D02*
X587501D01*
Y413999D01*
X588168Y414666D01*
X589501D01*
X590167Y413999D01*
Y412000D01*
Y413333D02*
X591500Y414666D01*
Y417998D02*
X587501D01*
X589501Y415999D01*
Y418665D01*
X591500Y422663D02*
Y419997D01*
X588834Y422663D01*
X588168D01*
X587501Y421997D01*
Y420664D01*
X588168Y419997D01*
X545000Y401375D02*
Y407373D01*
X547999D01*
X548999Y406373D01*
Y404374D01*
X547999Y403374D01*
X545000D01*
X546999D02*
X548999Y401375D01*
X553997D02*
Y407373D01*
X550998Y404374D01*
X554997D01*
X556996Y401375D02*
X558995D01*
X557996D01*
Y407373D01*
X556996Y406373D01*
X148500Y345334D02*
X152499D01*
X150499D01*
Y339336D01*
X154498D02*
X156497D01*
X155498D01*
Y345334D01*
X154498Y344334D01*
X265900Y266898D02*
Y260900D01*
X268899D01*
X269899Y261900D01*
Y265898D01*
X268899Y266898D01*
X265900D01*
X275897D02*
X273897Y265898D01*
X271898Y263899D01*
Y261900D01*
X272898Y260900D01*
X274897D01*
X275897Y261900D01*
Y262899D01*
X274897Y263899D01*
X271898D01*
X225400Y266898D02*
Y260900D01*
X228399D01*
X229399Y261900D01*
Y265898D01*
X228399Y266898D01*
X225400D01*
X234397Y260900D02*
Y266898D01*
X231398Y263899D01*
X235397D01*
X185376Y266898D02*
Y260900D01*
X188375D01*
X189375Y261900D01*
Y265898D01*
X188375Y266898D01*
X185376D01*
X195373Y260900D02*
X191374D01*
X195373Y264899D01*
Y265898D01*
X194374Y266898D01*
X192374D01*
X191374Y265898D01*
X452999Y252998D02*
X451999Y253998D01*
X450000D01*
X449000Y252998D01*
Y251999D01*
X450000Y250999D01*
X451999D01*
X452999Y249999D01*
Y249000D01*
X451999Y248000D01*
X450000D01*
X449000Y249000D01*
X454998Y253998D02*
Y248000D01*
X457997D01*
X458997Y249000D01*
Y249999D01*
X457997Y250999D01*
X454998D01*
X457997D01*
X458997Y251999D01*
Y252998D01*
X457997Y253998D01*
X454998D01*
X464995Y248000D02*
X460996D01*
X464995Y251999D01*
Y252998D01*
X463995Y253998D01*
X461996D01*
X460996Y252998D01*
X412499D02*
X411499Y253998D01*
X409500D01*
X408500Y252998D01*
Y251999D01*
X409500Y250999D01*
X411499D01*
X412499Y249999D01*
Y249000D01*
X411499Y248000D01*
X409500D01*
X408500Y249000D01*
X414498Y253998D02*
Y248000D01*
X417497D01*
X418497Y249000D01*
Y249999D01*
X417497Y250999D01*
X414498D01*
X417497D01*
X418497Y251999D01*
Y252998D01*
X417497Y253998D01*
X414498D01*
X420496Y248000D02*
X422496D01*
X421496D01*
Y253998D01*
X420496Y252998D01*
X495499D02*
X494499Y253998D01*
X492500D01*
X491500Y252998D01*
Y251999D01*
X492500Y250999D01*
X494499D01*
X495499Y249999D01*
Y249000D01*
X494499Y248000D01*
X492500D01*
X491500Y249000D01*
X497498Y253998D02*
Y248000D01*
X500497D01*
X501497Y249000D01*
Y249999D01*
X500497Y250999D01*
X497498D01*
X500497D01*
X501497Y251999D01*
Y252998D01*
X500497Y253998D01*
X497498D01*
X503496Y252998D02*
X504496Y253998D01*
X506495D01*
X507495Y252998D01*
Y251999D01*
X506495Y250999D01*
X505496D01*
X506495D01*
X507495Y249999D01*
Y249000D01*
X506495Y248000D01*
X504496D01*
X503496Y249000D01*
X544500Y382000D02*
Y387998D01*
X547499D01*
X548499Y386998D01*
Y384999D01*
X547499Y383999D01*
X544500D01*
X546499D02*
X548499Y382000D01*
X550498Y386998D02*
X551498Y387998D01*
X553497D01*
X554497Y386998D01*
Y385999D01*
X553497Y384999D01*
X552497D01*
X553497D01*
X554497Y383999D01*
Y383000D01*
X553497Y382000D01*
X551498D01*
X550498Y383000D01*
X556496Y386998D02*
X557496Y387998D01*
X559495D01*
X560495Y386998D01*
Y385999D01*
X559495Y384999D01*
X558496D01*
X559495D01*
X560495Y383999D01*
Y383000D01*
X559495Y382000D01*
X557496D01*
X556496Y383000D01*
X591500Y357000D02*
Y362998D01*
X594499D01*
X595499Y361998D01*
Y359999D01*
X594499Y358999D01*
X591500D01*
X597498Y361998D02*
X598498Y362998D01*
X600497D01*
X601497Y361998D01*
Y360999D01*
X600497Y359999D01*
X599497D01*
X600497D01*
X601497Y358999D01*
Y358000D01*
X600497Y357000D01*
X598498D01*
X597498Y358000D01*
X579599Y259440D02*
X578599Y260440D01*
X576600D01*
X575600Y259440D01*
Y258440D01*
X576600Y257441D01*
X578599D01*
X579599Y256441D01*
Y255441D01*
X578599Y254442D01*
X576600D01*
X575600Y255441D01*
X581598Y260440D02*
Y254442D01*
X583597Y256441D01*
X585597Y254442D01*
Y260440D01*
X587596Y254442D02*
X589596D01*
X588596D01*
Y260440D01*
X587596Y259440D01*
X544500Y363750D02*
Y369748D01*
X547499D01*
X548499Y368748D01*
Y366749D01*
X547499Y365749D01*
X544500D01*
X546499D02*
X548499Y363750D01*
X550498Y368748D02*
X551498Y369748D01*
X553497D01*
X554497Y368748D01*
Y367749D01*
X553497Y366749D01*
X552497D01*
X553497D01*
X554497Y365749D01*
Y364750D01*
X553497Y363750D01*
X551498D01*
X550498Y364750D01*
X560495Y363750D02*
X556496D01*
X560495Y367749D01*
Y368748D01*
X559495Y369748D01*
X557496D01*
X556496Y368748D01*
X349500Y460500D02*
Y466498D01*
X352499D01*
X353499Y465498D01*
Y463499D01*
X352499Y462499D01*
X349500D01*
X359497Y465498D02*
X358497Y466498D01*
X356498D01*
X355498Y465498D01*
Y464499D01*
X356498Y463499D01*
X358497D01*
X359497Y462499D01*
Y461500D01*
X358497Y460500D01*
X356498D01*
X355498Y461500D01*
X361496Y460500D02*
X363495D01*
X362496D01*
Y466498D01*
X361496Y465498D01*
X360000Y450498D02*
Y445500D01*
X361000Y444500D01*
X362999D01*
X363999Y445500D01*
Y450498D01*
X369997Y444500D02*
X365998D01*
X369997Y448499D01*
Y449498D01*
X368997Y450498D01*
X366998D01*
X365998Y449498D01*
X359999Y391998D02*
X358999Y392998D01*
X357000D01*
X356000Y391998D01*
Y388000D01*
X357000Y387000D01*
X358999D01*
X359999Y388000D01*
X361998Y387000D02*
X363997D01*
X362998D01*
Y392998D01*
X361998Y391998D01*
X370995Y392998D02*
X366996D01*
Y389999D01*
X368996Y390999D01*
X369995D01*
X370995Y389999D01*
Y388000D01*
X369995Y387000D01*
X367996D01*
X366996Y388000D01*
X378499Y391998D02*
X377499Y392998D01*
X375500D01*
X374500Y391998D01*
Y388000D01*
X375500Y387000D01*
X377499D01*
X378499Y388000D01*
X380498Y387000D02*
X382497D01*
X381498D01*
Y392998D01*
X380498Y391998D01*
X388495Y387000D02*
Y392998D01*
X385496Y389999D01*
X389495D01*
X390499Y439498D02*
X389499Y440498D01*
X387500D01*
X386500Y439498D01*
Y435500D01*
X387500Y434500D01*
X389499D01*
X390499Y435500D01*
X392498Y434500D02*
X394497D01*
X393498D01*
Y440498D01*
X392498Y439498D01*
X397496D02*
X398496Y440498D01*
X400495D01*
X401495Y439498D01*
Y438499D01*
X400495Y437499D01*
X399496D01*
X400495D01*
X401495Y436499D01*
Y435500D01*
X400495Y434500D01*
X398496D01*
X397496Y435500D01*
X445554Y443616D02*
X443554D01*
X444554D01*
Y438618D01*
X443554Y437618D01*
X442555D01*
X441555Y438618D01*
X447553Y437618D02*
X449552D01*
X448553D01*
Y443616D01*
X447553Y442617D01*
X162499Y238998D02*
X160499D01*
X161499D01*
Y234000D01*
X160499Y233000D01*
X159500D01*
X158500Y234000D01*
X168497Y233000D02*
X164498D01*
X168497Y236999D01*
Y237998D01*
X167497Y238998D01*
X165498D01*
X164498Y237998D01*
X513000Y348000D02*
Y353998D01*
X515999D01*
X516999Y352998D01*
Y350999D01*
X515999Y349999D01*
X513000D01*
X514999D02*
X516999Y348000D01*
X522997D02*
X518998D01*
X522997Y351999D01*
Y352998D01*
X521997Y353998D01*
X519998D01*
X518998Y352998D01*
X524996Y353998D02*
X528995D01*
Y352998D01*
X524996Y349000D01*
Y348000D01*
X417500Y439500D02*
Y445498D01*
X420499D01*
X421499Y444498D01*
Y442499D01*
X420499Y441499D01*
X417500D01*
X419499D02*
X421499Y439500D01*
X427497D02*
X423498D01*
X427497Y443499D01*
Y444498D01*
X426497Y445498D01*
X424498D01*
X423498Y444498D01*
X433495Y445498D02*
X431496Y444498D01*
X429496Y442499D01*
Y440500D01*
X430496Y439500D01*
X432495D01*
X433495Y440500D01*
Y441499D01*
X432495Y442499D01*
X429496D01*
X544500Y440000D02*
Y445998D01*
X547499D01*
X548499Y444998D01*
Y442999D01*
X547499Y441999D01*
X544500D01*
X546499D02*
X548499Y440000D01*
X550498D02*
X552497D01*
X551498D01*
Y445998D01*
X550498Y444998D01*
X559495Y445998D02*
X555496D01*
Y442999D01*
X557496Y443999D01*
X558496D01*
X559495Y442999D01*
Y441000D01*
X558496Y440000D01*
X556496D01*
X555496Y441000D01*
X544500Y420375D02*
Y426373D01*
X547499D01*
X548499Y425373D01*
Y423374D01*
X547499Y422374D01*
X544500D01*
X546499D02*
X548499Y420375D01*
X550498D02*
X552497D01*
X551498D01*
Y426373D01*
X550498Y425373D01*
X558496Y420375D02*
Y426373D01*
X555496Y423374D01*
X559495D01*
X580000Y273500D02*
Y279498D01*
X582999D01*
X583999Y278498D01*
Y276499D01*
X582999Y275499D01*
X580000D01*
X581999D02*
X583999Y273500D01*
X585998D02*
X587997D01*
X586998D01*
Y279498D01*
X585998Y278498D01*
X594995Y273500D02*
X590996D01*
X594995Y277499D01*
Y278498D01*
X593996Y279498D01*
X591996D01*
X590996Y278498D01*
X568500Y391500D02*
Y397498D01*
X571499D01*
X572499Y396498D01*
Y394499D01*
X571499Y393499D01*
X568500D01*
X574498Y391500D02*
X576497D01*
X575498D01*
Y397498D01*
X574498Y396498D01*
X568500Y321000D02*
Y326998D01*
X571499D01*
X572499Y325998D01*
Y323999D01*
X571499Y322999D01*
X568500D01*
X578497Y321000D02*
X574498D01*
X578497Y324999D01*
Y325998D01*
X577497Y326998D01*
X575498D01*
X574498Y325998D01*
X549500Y306498D02*
Y301500D01*
X550500Y300500D01*
X552499D01*
X553499Y301500D01*
Y306498D01*
X555498Y300500D02*
X557497D01*
X556498D01*
Y306498D01*
X555498Y305498D01*
X316500Y337834D02*
X320499D01*
X318499D01*
Y331836D01*
X322498Y336834D02*
X323498Y337834D01*
X325497D01*
X326497Y336834D01*
Y335834D01*
X325497Y334835D01*
X324497D01*
X325497D01*
X326497Y333835D01*
Y332835D01*
X325497Y331836D01*
X323498D01*
X322498Y332835D01*
X231500Y339334D02*
X235499D01*
X233499D01*
Y333336D01*
X241497D02*
X237498D01*
X241497Y337334D01*
Y338334D01*
X240497Y339334D01*
X238498D01*
X237498Y338334D01*
X507500Y274013D02*
Y280011D01*
X510499D01*
X511499Y279011D01*
Y277012D01*
X510499Y276012D01*
X507500D01*
X509499D02*
X511499Y274013D01*
X513498Y279011D02*
X514498Y280011D01*
X516497D01*
X517497Y279011D01*
Y278011D01*
X516497Y277012D01*
X515497D01*
X516497D01*
X517497Y276012D01*
Y275012D01*
X516497Y274013D01*
X514498D01*
X513498Y275012D01*
X519496Y274013D02*
X521495D01*
X520496D01*
Y280011D01*
X519496Y279011D01*
X506500Y293000D02*
Y298998D01*
X509499D01*
X510499Y297998D01*
Y295999D01*
X509499Y294999D01*
X506500D01*
X508499D02*
X510499Y293000D01*
X516497D02*
X512498D01*
X516497Y296999D01*
Y297998D01*
X515497Y298998D01*
X513498D01*
X512498Y297998D01*
X521495Y293000D02*
Y298998D01*
X518496Y295999D01*
X522495D01*
X485000Y274013D02*
Y280011D01*
X487999D01*
X488999Y279011D01*
Y277012D01*
X487999Y276012D01*
X485000D01*
X486999D02*
X488999Y274013D01*
X494997D02*
X490998D01*
X494997Y278012D01*
Y279011D01*
X493997Y280011D01*
X491998D01*
X490998Y279011D01*
X496996Y275012D02*
X497996Y274013D01*
X499995D01*
X500995Y275012D01*
Y279011D01*
X499995Y280011D01*
X497996D01*
X496996Y279011D01*
Y278012D01*
X497996Y277012D01*
X500995D01*
X333000Y350000D02*
Y355998D01*
X335999D01*
X336999Y354998D01*
Y352999D01*
X335999Y351999D01*
X333000D01*
X334999D02*
X336999Y350000D01*
X338998Y354998D02*
X339998Y355998D01*
X341997D01*
X342997Y354998D01*
Y353999D01*
X341997Y352999D01*
X340997D01*
X341997D01*
X342997Y351999D01*
Y351000D01*
X341997Y350000D01*
X339998D01*
X338998Y351000D01*
X344996Y354998D02*
X345996Y355998D01*
X347995D01*
X348995Y354998D01*
Y351000D01*
X347995Y350000D01*
X345996D01*
X344996Y351000D01*
Y354998D01*
X352500Y350000D02*
Y355998D01*
X355499D01*
X356499Y354998D01*
Y352999D01*
X355499Y351999D01*
X352500D01*
X354499D02*
X356499Y350000D01*
X362497D02*
X358498D01*
X362497Y353999D01*
Y354998D01*
X361497Y355998D01*
X359498D01*
X358498Y354998D01*
X364496D02*
X365496Y355998D01*
X367495D01*
X368495Y354998D01*
Y353999D01*
X367495Y352999D01*
X366495D01*
X367495D01*
X368495Y351999D01*
Y351000D01*
X367495Y350000D01*
X365496D01*
X364496Y351000D01*
X312500Y310000D02*
Y315998D01*
X315499D01*
X316499Y314998D01*
Y312999D01*
X315499Y311999D01*
X312500D01*
X314499D02*
X316499Y310000D01*
X322497D02*
X318498D01*
X322497Y313999D01*
Y314998D01*
X321497Y315998D01*
X319498D01*
X318498Y314998D01*
X324496D02*
X325496Y315998D01*
X327495D01*
X328495Y314998D01*
Y313999D01*
X327495Y312999D01*
X328495Y311999D01*
Y311000D01*
X327495Y310000D01*
X325496D01*
X324496Y311000D01*
Y311999D01*
X325496Y312999D01*
X324496Y313999D01*
Y314998D01*
X325496Y312999D02*
X327495D01*
X312000Y286000D02*
Y291998D01*
X314999D01*
X315999Y290998D01*
Y288999D01*
X314999Y287999D01*
X312000D01*
X313999D02*
X315999Y286000D01*
X321997D02*
X317998D01*
X321997Y289999D01*
Y290998D01*
X320997Y291998D01*
X318998D01*
X317998Y290998D01*
X327995Y291998D02*
X323996D01*
Y288999D01*
X325995Y289999D01*
X326995D01*
X327995Y288999D01*
Y287000D01*
X326995Y286000D01*
X324996D01*
X323996Y287000D01*
X463500Y274513D02*
Y280511D01*
X466499D01*
X467499Y279511D01*
Y277512D01*
X466499Y276512D01*
X463500D01*
X465499D02*
X467499Y274513D01*
X473497D02*
X469498D01*
X473497Y278512D01*
Y279511D01*
X472497Y280511D01*
X470498D01*
X469498Y279511D01*
X479495Y274513D02*
X475496D01*
X479495Y278512D01*
Y279511D01*
X478495Y280511D01*
X476496D01*
X475496Y279511D01*
X464500Y292500D02*
Y298498D01*
X467499D01*
X468499Y297498D01*
Y295499D01*
X467499Y294499D01*
X464500D01*
X466499D02*
X468499Y292500D01*
X470498D02*
X472497D01*
X471498D01*
Y298498D01*
X470498Y297498D01*
X475496Y298498D02*
X479495D01*
Y297498D01*
X475496Y293500D01*
Y292500D01*
X442500Y274513D02*
Y280511D01*
X445499D01*
X446499Y279511D01*
Y277512D01*
X445499Y276512D01*
X442500D01*
X444499D02*
X446499Y274513D01*
X452497D02*
X448498D01*
X452497Y278512D01*
Y279511D01*
X451497Y280511D01*
X449498D01*
X448498Y279511D01*
X454496D02*
X455496Y280511D01*
X457495D01*
X458495Y279511D01*
Y275513D01*
X457495Y274513D01*
X455496D01*
X454496Y275513D01*
Y279511D01*
X248537Y350652D02*
Y356650D01*
X251536D01*
X252536Y355650D01*
Y353651D01*
X251536Y352651D01*
X248537D01*
X250537D02*
X252536Y350652D01*
X258534D02*
X254536D01*
X258534Y354650D01*
Y355650D01*
X257535Y356650D01*
X255535D01*
X254536Y355650D01*
X260533Y350652D02*
X262533D01*
X261533D01*
Y356650D01*
X260533Y355650D01*
X268213Y350652D02*
Y356650D01*
X271212D01*
X272211Y355650D01*
Y353651D01*
X271212Y352651D01*
X268213D01*
X270212D02*
X272211Y350652D01*
X274211D02*
X276210D01*
X275210D01*
Y356650D01*
X274211Y355650D01*
X283208Y356650D02*
X281208Y355650D01*
X279209Y353651D01*
Y351651D01*
X280209Y350652D01*
X282208D01*
X283208Y351651D01*
Y352651D01*
X282208Y353651D01*
X279209D01*
X227000Y309500D02*
Y315498D01*
X229999D01*
X230999Y314498D01*
Y312499D01*
X229999Y311499D01*
X227000D01*
X228999D02*
X230999Y309500D01*
X232998D02*
X234997D01*
X233998D01*
Y315498D01*
X232998Y314498D01*
X237996Y310500D02*
X238996Y309500D01*
X240996D01*
X241995Y310500D01*
Y314498D01*
X240996Y315498D01*
X238996D01*
X237996Y314498D01*
Y313499D01*
X238996Y312499D01*
X241995D01*
X227500Y286000D02*
Y291998D01*
X230499D01*
X231499Y290998D01*
Y288999D01*
X230499Y287999D01*
X227500D01*
X229499D02*
X231499Y286000D01*
X233498D02*
X235497D01*
X234498D01*
Y291998D01*
X233498Y290998D01*
X238496D02*
X239496Y291998D01*
X241495D01*
X242495Y290998D01*
Y289999D01*
X241495Y288999D01*
X242495Y287999D01*
Y287000D01*
X241495Y286000D01*
X239496D01*
X238496Y287000D01*
Y287999D01*
X239496Y288999D01*
X238496Y289999D01*
Y290998D01*
X239496Y288999D02*
X241495D01*
X423000Y275013D02*
Y281011D01*
X425999D01*
X426999Y280011D01*
Y278012D01*
X425999Y277012D01*
X423000D01*
X424999D02*
X426999Y275013D01*
X428998D02*
X430997D01*
X429998D01*
Y281011D01*
X428998Y280011D01*
X433996Y275013D02*
X435996D01*
X434996D01*
Y281011D01*
X433996Y280011D01*
X424260Y293000D02*
Y298998D01*
X427259D01*
X428259Y297998D01*
Y295999D01*
X427259Y294999D01*
X424260D01*
X426259D02*
X428259Y293000D01*
X434257D02*
X430258D01*
X434257Y296999D01*
Y297998D01*
X433257Y298998D01*
X431258D01*
X430258Y297998D01*
X403000Y275013D02*
Y281011D01*
X405999D01*
X406999Y280011D01*
Y278012D01*
X405999Y277012D01*
X403000D01*
X404999D02*
X406999Y275013D01*
X408998Y276012D02*
X409998Y275013D01*
X411997D01*
X412997Y276012D01*
Y280011D01*
X411997Y281011D01*
X409998D01*
X408998Y280011D01*
Y279012D01*
X409998Y278012D01*
X412997D01*
X165231Y350552D02*
Y356550D01*
X168230D01*
X169229Y355550D01*
Y353551D01*
X168230Y352551D01*
X165231D01*
X167230D02*
X169229Y350552D01*
X171229D02*
X173228D01*
X172228D01*
Y356550D01*
X171229Y355550D01*
X176227D02*
X177227Y356550D01*
X179226D01*
X180226Y355550D01*
Y351551D01*
X179226Y350552D01*
X177227D01*
X176227Y351551D01*
Y355550D01*
X186831Y350152D02*
Y356150D01*
X189830D01*
X190829Y355150D01*
Y353151D01*
X189830Y352151D01*
X186831D01*
X188830D02*
X190829Y350152D01*
X192829D02*
X194828D01*
X193828D01*
Y356150D01*
X192829Y355150D01*
X147500Y310500D02*
Y316498D01*
X150499D01*
X151499Y315498D01*
Y313499D01*
X150499Y312499D01*
X147500D01*
X149499D02*
X151499Y310500D01*
X153498Y315498D02*
X154498Y316498D01*
X156497D01*
X157497Y315498D01*
Y314499D01*
X156497Y313499D01*
X157497Y312499D01*
Y311500D01*
X156497Y310500D01*
X154498D01*
X153498Y311500D01*
Y312499D01*
X154498Y313499D01*
X153498Y314499D01*
Y315498D01*
X154498Y313499D02*
X156497D01*
X147500Y286500D02*
Y292498D01*
X150499D01*
X151499Y291498D01*
Y289499D01*
X150499Y288499D01*
X147500D01*
X149499D02*
X151499Y286500D01*
X153498Y292498D02*
X157497D01*
Y291498D01*
X153498Y287500D01*
Y286500D01*
X530500Y311500D02*
Y317498D01*
X533499D01*
X534499Y316498D01*
Y314499D01*
X533499Y313499D01*
X530500D01*
X532499D02*
X534499Y311500D01*
X540497Y317498D02*
X538497Y316498D01*
X536498Y314499D01*
Y312500D01*
X537498Y311500D01*
X539497D01*
X540497Y312500D01*
Y313499D01*
X539497Y314499D01*
X536498D01*
X579500Y312000D02*
Y317998D01*
X582499D01*
X583499Y316998D01*
Y314999D01*
X582499Y313999D01*
X579500D01*
X581499D02*
X583499Y312000D01*
X585498D02*
X587497D01*
X586498D01*
Y317998D01*
X585498Y316998D01*
X590496D02*
X591496Y317998D01*
X593496D01*
X594495Y316998D01*
Y315999D01*
X593496Y314999D01*
X592496D01*
X593496D01*
X594495Y313999D01*
Y313000D01*
X593496Y312000D01*
X591496D01*
X590496Y313000D01*
X582000Y292500D02*
Y298498D01*
X584999D01*
X585999Y297498D01*
Y295499D01*
X584999Y294499D01*
X582000D01*
X583999D02*
X585999Y292500D01*
X587998Y297498D02*
X588998Y298498D01*
X590997D01*
X591997Y297498D01*
Y296499D01*
X590997Y295499D01*
X589997D01*
X590997D01*
X591997Y294499D01*
Y293500D01*
X590997Y292500D01*
X588998D01*
X587998Y293500D01*
X530625Y274000D02*
Y279998D01*
X533624D01*
X534624Y278998D01*
Y276999D01*
X533624Y275999D01*
X530625D01*
X532624D02*
X534624Y274000D01*
X539622D02*
Y279998D01*
X536623Y276999D01*
X540622D01*
X530500Y293000D02*
Y298998D01*
X533499D01*
X534499Y297998D01*
Y295999D01*
X533499Y294999D01*
X530500D01*
X532499D02*
X534499Y293000D01*
X540497Y298998D02*
X536498D01*
Y295999D01*
X538497Y296999D01*
X539497D01*
X540497Y295999D01*
Y294000D01*
X539497Y293000D01*
X537498D01*
X536498Y294000D01*
X449999Y297998D02*
X448999Y298998D01*
X447000D01*
X446000Y297998D01*
Y294000D01*
X447000Y293000D01*
X448999D01*
X449999Y294000D01*
X455997Y298998D02*
X453997Y297998D01*
X451998Y295999D01*
Y294000D01*
X452998Y293000D01*
X454997D01*
X455997Y294000D01*
Y294999D01*
X454997Y295999D01*
X451998D01*
X489499Y297998D02*
X488499Y298998D01*
X486500D01*
X485500Y297998D01*
Y294000D01*
X486500Y293000D01*
X488499D01*
X489499Y294000D01*
X491498Y293000D02*
X493497D01*
X492498D01*
Y298998D01*
X491498Y297998D01*
X496496D02*
X497496Y298998D01*
X499496D01*
X500495Y297998D01*
Y294000D01*
X499496Y293000D01*
X497496D01*
X496496Y294000D01*
Y297998D01*
X380999Y354998D02*
X379999Y355998D01*
X378000D01*
X377000Y354998D01*
Y351000D01*
X378000Y350000D01*
X379999D01*
X380999Y351000D01*
X382998D02*
X383998Y350000D01*
X385997D01*
X386997Y351000D01*
Y354998D01*
X385997Y355998D01*
X383998D01*
X382998Y354998D01*
Y353999D01*
X383998Y352999D01*
X386997D01*
X424499Y426373D02*
X423499Y427373D01*
X421500D01*
X420500Y426373D01*
Y422375D01*
X421500Y421375D01*
X423499D01*
X424499Y422375D01*
X426498Y426373D02*
X427498Y427373D01*
X429497D01*
X430497Y426373D01*
Y425374D01*
X429497Y424374D01*
X428497D01*
X429497D01*
X430497Y423374D01*
Y422375D01*
X429497Y421375D01*
X427498D01*
X426498Y422375D01*
X424499Y407248D02*
X423499Y408248D01*
X421500D01*
X420500Y407248D01*
Y403250D01*
X421500Y402250D01*
X423499D01*
X424499Y403250D01*
X426498Y408248D02*
X430497D01*
Y407248D01*
X426498Y403250D01*
Y402250D01*
X295999Y356650D02*
X294999Y357650D01*
X293000D01*
X292000Y356650D01*
Y352651D01*
X293000Y351652D01*
X294999D01*
X295999Y352651D01*
X301997Y357650D02*
X297998D01*
Y354651D01*
X299997Y355650D01*
X300997D01*
X301997Y354651D01*
Y352651D01*
X300997Y351652D01*
X298998D01*
X297998Y352651D01*
X406999Y297998D02*
X405999Y298998D01*
X404000D01*
X403000Y297998D01*
Y294000D01*
X404000Y293000D01*
X405999D01*
X406999Y294000D01*
X412997Y293000D02*
X408998D01*
X412997Y296999D01*
Y297998D01*
X411997Y298998D01*
X409998D01*
X408998Y297998D01*
X211329Y355150D02*
X210330Y356150D01*
X208330D01*
X207331Y355150D01*
Y351151D01*
X208330Y350152D01*
X210330D01*
X211329Y351151D01*
X213329Y350152D02*
X215328D01*
X214328D01*
Y356150D01*
X213329Y355150D01*
X422999Y388123D02*
X421999Y389123D01*
X420000D01*
X419000Y388123D01*
Y384125D01*
X420000Y383125D01*
X421999D01*
X422999Y384125D01*
X424998Y383125D02*
X426997D01*
X425998D01*
Y389123D01*
X424998Y388123D01*
X429996Y383125D02*
X431996D01*
X430996D01*
Y389123D01*
X429996Y388123D01*
X424499Y368998D02*
X423499Y369998D01*
X421500D01*
X420500Y368998D01*
Y365000D01*
X421500Y364000D01*
X423499D01*
X424499Y365000D01*
X429497Y364000D02*
Y369998D01*
X426498Y366999D01*
X430497D01*
X457999Y352998D02*
X456999Y353998D01*
X455000D01*
X454000Y352998D01*
Y349000D01*
X455000Y348000D01*
X456999D01*
X457999Y349000D01*
X459998Y352998D02*
X460998Y353998D01*
X462997D01*
X463997Y352998D01*
Y351999D01*
X462997Y350999D01*
X463997Y349999D01*
Y349000D01*
X462997Y348000D01*
X460998D01*
X459998Y349000D01*
Y349999D01*
X460998Y350999D01*
X459998Y351999D01*
Y352998D01*
X460998Y350999D02*
X462997D01*
X486499Y352998D02*
X485499Y353998D01*
X483500D01*
X482500Y352998D01*
Y349000D01*
X483500Y348000D01*
X485499D01*
X486499Y349000D01*
X488498Y348000D02*
X490497D01*
X489498D01*
Y353998D01*
X488498Y352998D01*
X497495Y348000D02*
X493496D01*
X497495Y351999D01*
Y352998D01*
X496495Y353998D01*
X494496D01*
X493496Y352998D01*
D12*
X584386Y398827D02*
Y447646D01*
X561748Y398827D02*
X584386D01*
X561748D02*
Y447646D01*
X584386D01*
X594441Y411681D02*
X599559D01*
X594441Y399319D02*
X599559D01*
Y407941D02*
Y411681D01*
Y399319D02*
Y403059D01*
X593441Y433819D02*
X598559D01*
X593441Y446181D02*
X598559D01*
X593441Y433819D02*
Y437559D01*
Y442441D02*
Y446181D01*
X554126Y296921D02*
X569874D01*
X554126Y277079D02*
X569874D01*
X173850Y242374D02*
X560150D01*
X173850Y195130D02*
X560150D01*
X173850D02*
Y242374D01*
X560150Y195130D02*
Y242374D01*
X524882Y446118D02*
Y470488D01*
X454016D02*
X524882D01*
X454016Y446118D02*
Y470488D01*
Y446118D02*
X524882D01*
Y370094D02*
Y446118D01*
X454016Y370094D02*
X524882D01*
X454016D02*
Y446118D01*
X359695Y418511D02*
X385305D01*
Y432310D01*
X359695D02*
X385305D01*
X359695Y418511D02*
Y432310D01*
X159496Y356898D02*
Y469102D01*
Y356898D02*
X346504D01*
Y469102D01*
X159496D02*
X346504D01*
X290024Y255331D02*
Y256807D01*
X267976D02*
X290024D01*
X267976Y255331D02*
Y256807D01*
Y245193D02*
Y246669D01*
Y245193D02*
X290024D01*
Y246669D01*
X159626Y337631D02*
X225374D01*
Y262040D02*
Y337631D01*
X159626Y262040D02*
X225374D01*
X159626D02*
Y337631D01*
X209524Y245193D02*
Y246669D01*
X187476Y245193D02*
X209524D01*
X187476D02*
Y246669D01*
Y255331D02*
Y256807D01*
X209524D01*
Y255331D02*
Y256807D01*
X249524Y245193D02*
Y246669D01*
X227476Y245193D02*
X249524D01*
X227476D02*
Y246669D01*
Y255331D02*
Y256807D01*
X249524D01*
Y255331D02*
Y256807D01*
X575713Y218646D02*
Y246638D01*
X586500D02*
X606697D01*
Y218646D02*
Y246638D01*
X586500Y218646D02*
X606697D01*
X329626Y337631D02*
X395374D01*
Y262040D02*
Y337631D01*
X329626Y262040D02*
X395374D01*
X329626D02*
Y337631D01*
X244626Y339131D02*
X310374D01*
Y263540D02*
Y339131D01*
X244626Y263540D02*
X310374D01*
X244626D02*
Y339131D01*
M02*
