G04*
G04 #@! TF.GenerationSoftware,Altium Limited,Altium Designer,20.0.2 (26)*
G04*
G04 Layer_Color=16711935*
%FSLAX25Y25*%
%MOIN*%
G70*
G01*
G75*
%ADD11C,0.01000*%
%ADD72C,0.00600*%
D11*
X584000Y418315D02*
Y418500D01*
X562000Y408472D02*
Y408500D01*
X497000Y128500D02*
Y225000D01*
X377000Y128500D02*
Y225000D01*
X417000Y128500D02*
Y225000D01*
X336500Y128500D02*
Y225000D01*
X277000Y128500D02*
Y225000D01*
X237000Y128500D02*
Y225000D01*
X197000Y128500D02*
Y225000D01*
X507000Y155760D02*
Y234500D01*
X547000Y155760D02*
Y234500D01*
X527000Y155760D02*
Y234500D01*
X347000Y155760D02*
Y234500D01*
X367000Y155760D02*
Y234500D01*
X407000Y155760D02*
Y234500D01*
X387000Y155760D02*
Y234500D01*
X467000Y155760D02*
Y234500D01*
X487000Y155760D02*
Y234500D01*
X447000Y155760D02*
Y234500D01*
X427000Y155760D02*
Y234500D01*
X267000Y155760D02*
Y234500D01*
X287000Y155760D02*
Y234500D01*
X327000Y155760D02*
Y234500D01*
X307000Y155760D02*
Y234500D01*
X227000Y155760D02*
Y234500D01*
X247000Y155760D02*
Y234500D01*
X207000Y155760D02*
Y234500D01*
X187000Y155760D02*
Y234500D01*
X166500Y180000D02*
X366894D01*
X119831Y457500D02*
X140500D01*
Y478169D01*
X593500Y458000D02*
X614169D01*
X593500D02*
Y478669D01*
Y145000D02*
X614169D01*
X593500Y124331D02*
Y145000D01*
X140500Y124331D02*
Y145000D01*
X119831D02*
X140500D01*
X100000Y133000D02*
X102000Y127000D01*
X98000D02*
X100000Y133000D01*
X98000Y161760D02*
X100000Y155760D01*
X102000Y161760D01*
X100000Y123000D02*
Y133000D01*
Y155760D02*
Y165760D01*
X99000Y155760D02*
X205500D01*
X99000Y133000D02*
X165000D01*
X75500Y150500D02*
X77500Y144500D01*
X79500Y150500D01*
X77500Y457500D02*
X79500Y451500D01*
X75500D02*
X77500Y457500D01*
Y144500D02*
Y284304D01*
Y314496D02*
Y457500D01*
X76500Y144500D02*
X133194D01*
X76500Y457500D02*
X133194D01*
X127000Y502000D02*
X133000Y504000D01*
X127000Y502000D02*
X133000Y500000D01*
X601000D02*
X607000Y502000D01*
X601000Y504000D02*
X607000Y502000D01*
X127000D02*
X348305D01*
X382495D02*
X607000D01*
X127000Y472500D02*
Y503000D01*
X607000Y472500D02*
Y503000D01*
X106500Y476500D02*
X108500Y470500D01*
X104500D02*
X106500Y476500D01*
X104500Y369000D02*
X106500Y363000D01*
X108500Y369000D01*
X106500Y433246D02*
Y476500D01*
Y363000D02*
Y403054D01*
X105500Y476500D02*
X120000D01*
X105500Y363000D02*
X214500D01*
X166500Y568000D02*
X172500Y570000D01*
X166500Y568000D02*
X172500Y566000D01*
X360894D02*
X366894Y568000D01*
X360894Y570000D02*
X366894Y568000D01*
X166500D02*
X244003D01*
X286191D02*
X366894D01*
X166500Y181500D02*
Y569000D01*
X366894Y181500D02*
Y569000D01*
X587500Y524500D02*
X593500Y526500D01*
X587500Y528500D02*
X593500Y526500D01*
X140500D02*
X146500Y528500D01*
X140500Y526500D02*
X146500Y524500D01*
X382495Y526500D02*
X593500D01*
X140500D02*
X348305D01*
X593500Y146500D02*
Y527500D01*
X140500Y146500D02*
Y527500D01*
X561500Y96000D02*
X567500Y98000D01*
X561500Y100000D02*
X567500Y98000D01*
X166500D02*
X172500Y100000D01*
X166500Y98000D02*
X172500Y96000D01*
X382495Y98000D02*
X567500D01*
X166500D02*
X348305D01*
X567500Y97000D02*
Y131500D01*
X166500Y97000D02*
Y131500D01*
X680500Y204177D02*
X682500Y198177D01*
X684500Y204177D01*
X682500Y470500D02*
X684500Y464500D01*
X680500D02*
X682500Y470500D01*
Y198177D02*
Y318143D01*
Y347334D02*
Y470500D01*
X120000Y198177D02*
X683500D01*
X120000Y470500D02*
X683500D01*
D72*
X86804Y136282D02*
Y132283D01*
X89803D01*
X88803Y134283D01*
Y135282D01*
X89803Y136282D01*
X91802D01*
X92802Y135282D01*
Y133283D01*
X91802Y132283D01*
X92802Y138281D02*
X91802D01*
Y139281D01*
X92802D01*
Y138281D01*
X86804Y143280D02*
Y147278D01*
X87804D01*
X91802Y143280D01*
X92802D01*
X87804Y149278D02*
X86804Y150277D01*
Y152277D01*
X87804Y153277D01*
X88803D01*
X89803Y152277D01*
X90803Y153277D01*
X91802D01*
X92802Y152277D01*
Y150277D01*
X91802Y149278D01*
X90803D01*
X89803Y150277D01*
X88803Y149278D01*
X87804D01*
X89803Y150277D02*
Y152277D01*
X75101Y285904D02*
Y289903D01*
X76101D01*
X80099Y285904D01*
X81099D01*
X80099Y291902D02*
X81099Y292902D01*
Y294901D01*
X80099Y295901D01*
X76101D01*
X75101Y294901D01*
Y292902D01*
X76101Y291902D01*
X77100D01*
X78100Y292902D01*
Y295901D01*
X81099Y297901D02*
X80099D01*
Y298900D01*
X81099D01*
Y297901D01*
X75101Y306898D02*
Y302899D01*
X78100D01*
X77100Y304898D01*
Y305898D01*
X78100Y306898D01*
X80099D01*
X81099Y305898D01*
Y303899D01*
X80099Y302899D01*
X76101Y308897D02*
X75101Y309897D01*
Y311896D01*
X76101Y312896D01*
X80099D01*
X81099Y311896D01*
Y309897D01*
X80099Y308897D01*
X76101D01*
X349905Y498401D02*
X351904D01*
X350905D01*
Y504399D01*
X349905Y503399D01*
X358902Y498401D02*
X354903D01*
X358902Y502400D01*
Y503399D01*
X357902Y504399D01*
X355903D01*
X354903Y503399D01*
X360901Y498401D02*
X362901D01*
X361901D01*
Y504399D01*
X360901Y503399D01*
X365900Y498401D02*
Y499401D01*
X366899D01*
Y498401D01*
X365900D01*
X370898Y499401D02*
X371898Y498401D01*
X373897D01*
X374897Y499401D01*
Y503399D01*
X373897Y504399D01*
X371898D01*
X370898Y503399D01*
Y502400D01*
X371898Y501400D01*
X374897D01*
X380895Y498401D02*
X376896D01*
X380895Y502400D01*
Y503399D01*
X379895Y504399D01*
X377896D01*
X376896Y503399D01*
X110099Y408653D02*
Y404654D01*
X106100Y408653D01*
X105101D01*
X104101Y407653D01*
Y405654D01*
X105101Y404654D01*
Y410652D02*
X104101Y411652D01*
Y413652D01*
X105101Y414651D01*
X106100D01*
X107100Y413652D01*
X108100Y414651D01*
X109099D01*
X110099Y413652D01*
Y411652D01*
X109099Y410652D01*
X108100D01*
X107100Y411652D01*
X106100Y410652D01*
X105101D01*
X107100Y411652D02*
Y413652D01*
X110099Y416650D02*
X109099D01*
Y417650D01*
X110099D01*
Y416650D01*
X105101Y421649D02*
X104101Y422648D01*
Y424648D01*
X105101Y425648D01*
X106100D01*
X107100Y424648D01*
X108100Y425648D01*
X109099D01*
X110099Y424648D01*
Y422648D01*
X109099Y421649D01*
X108100D01*
X107100Y422648D01*
X106100Y421649D01*
X105101D01*
X107100Y422648D02*
Y424648D01*
X105101Y427647D02*
X104101Y428647D01*
Y430646D01*
X105101Y431646D01*
X106100D01*
X107100Y430646D01*
Y429646D01*
Y430646D01*
X108100Y431646D01*
X109099D01*
X110099Y430646D01*
Y428647D01*
X109099Y427647D01*
X249602Y564401D02*
X245603D01*
X249602Y568400D01*
Y569399D01*
X248602Y570399D01*
X246603D01*
X245603Y569399D01*
X251601D02*
X252601Y570399D01*
X254600D01*
X255600Y569399D01*
Y565401D01*
X254600Y564401D01*
X252601D01*
X251601Y565401D01*
Y569399D01*
X257599D02*
X258599Y570399D01*
X260598D01*
X261598Y569399D01*
Y565401D01*
X260598Y564401D01*
X258599D01*
X257599Y565401D01*
Y569399D01*
X263597D02*
X264597Y570399D01*
X266596D01*
X267596Y569399D01*
Y568400D01*
X266596Y567400D01*
X265597D01*
X266596D01*
X267596Y566400D01*
Y565401D01*
X266596Y564401D01*
X264597D01*
X263597Y565401D01*
X269595Y564401D02*
Y565401D01*
X270595D01*
Y564401D01*
X269595D01*
X274594Y565401D02*
X275593Y564401D01*
X277593D01*
X278592Y565401D01*
Y569399D01*
X277593Y570399D01*
X275593D01*
X274594Y569399D01*
Y568400D01*
X275593Y567400D01*
X278592D01*
X283591Y564401D02*
Y570399D01*
X280592Y567400D01*
X284591D01*
X349905Y522901D02*
X351904D01*
X350905D01*
Y528899D01*
X349905Y527899D01*
X354903Y522901D02*
X356903D01*
X355903D01*
Y528899D01*
X354903Y527899D01*
X363900Y528899D02*
X359902D01*
Y525900D01*
X361901Y526900D01*
X362901D01*
X363900Y525900D01*
Y523901D01*
X362901Y522901D01*
X360901D01*
X359902Y523901D01*
X365900Y522901D02*
Y523901D01*
X366899D01*
Y522901D01*
X365900D01*
X370898Y527899D02*
X371898Y528899D01*
X373897D01*
X374897Y527899D01*
Y523901D01*
X373897Y522901D01*
X371898D01*
X370898Y523901D01*
Y527899D01*
X380895Y528899D02*
X378896Y527899D01*
X376896Y525900D01*
Y523901D01*
X377896Y522901D01*
X379895D01*
X380895Y523901D01*
Y524900D01*
X379895Y525900D01*
X376896D01*
X349905Y94401D02*
X351904D01*
X350905D01*
Y100399D01*
X349905Y99399D01*
X354903D02*
X355903Y100399D01*
X357902D01*
X358902Y99399D01*
Y95401D01*
X357902Y94401D01*
X355903D01*
X354903Y95401D01*
Y99399D01*
X360901Y94401D02*
X362901D01*
X361901D01*
Y100399D01*
X360901Y99399D01*
X365900Y94401D02*
Y95401D01*
X366899D01*
Y94401D01*
X365900D01*
X370898Y99399D02*
X371898Y100399D01*
X373897D01*
X374897Y99399D01*
Y98400D01*
X373897Y97400D01*
X374897Y96400D01*
Y95401D01*
X373897Y94401D01*
X371898D01*
X370898Y95401D01*
Y96400D01*
X371898Y97400D01*
X370898Y98400D01*
Y99399D01*
X371898Y97400D02*
X373897D01*
X380895Y100399D02*
X376896D01*
Y97400D01*
X378896Y98400D01*
X379895D01*
X380895Y97400D01*
Y95401D01*
X379895Y94401D01*
X377896D01*
X376896Y95401D01*
X680101Y323742D02*
X681101Y321742D01*
X683100Y319743D01*
X685099D01*
X686099Y320743D01*
Y322742D01*
X685099Y323742D01*
X684100D01*
X683100Y322742D01*
Y319743D01*
X685099Y325741D02*
X686099Y326741D01*
Y328740D01*
X685099Y329740D01*
X681101D01*
X680101Y328740D01*
Y326741D01*
X681101Y325741D01*
X682100D01*
X683100Y326741D01*
Y329740D01*
X686099Y331739D02*
X685099D01*
Y332739D01*
X686099D01*
Y331739D01*
Y336737D02*
Y338737D01*
Y337737D01*
X680101D01*
X681101Y336737D01*
X680101Y341736D02*
Y345734D01*
X681101D01*
X685099Y341736D01*
X686099D01*
M02*
